<svg width="170" height="171" viewBox="0 0 170 171" fill="none" xmlns="http://www.w3.org/2000/svg">
<mask id="path-1-inside-1_1_584" fill="white">
<path d="M0 0.375H170V170.375H0V0.375Z"/>
</mask>
<path d="M0 0.375H170V170.375H0V0.375Z" fill="white"/>
<g clip-path="url(#clip0_1_584)">
<path d="M86.5 92.375C97.5457 92.375 106.5 83.4207 106.5 72.375C106.5 61.3293 97.5457 52.375 86.5 52.375C75.4543 52.375 66.5 61.3293 66.5 72.375C66.5 83.4207 75.4543 92.375 86.5 92.375Z" stroke="#3483FA" stroke-miterlimit="10" stroke-linecap="square"/>
<path d="M86.5 79.375L89.5 75.375H83.5L86.5 79.375Z" stroke="#3483FA" stroke-miterlimit="10" stroke-linecap="square"/>
<path d="M86.5 79.375L89.5 75.375H83.5L86.5 79.375Z" fill="#3483FA"/>
<path d="M86.5 79.375V83.375" stroke="#3483FA" stroke-miterlimit="10" stroke-linecap="square"/>
<path d="M82.5 83.375H90.5" stroke="#3483FA" stroke-miterlimit="10" stroke-linecap="square"/>
<path d="M79.5 70.375C80.6046 70.375 81.5 69.4796 81.5 68.375C81.5 67.2704 80.6046 66.375 79.5 66.375C78.3954 66.375 77.5 67.2704 77.5 68.375C77.5 69.4796 78.3954 70.375 79.5 70.375Z" fill="#3483FA"/>
<path d="M93.5 70.375C94.6046 70.375 95.5 69.4796 95.5 68.375C95.5 67.2704 94.6046 66.375 93.5 66.375C92.3954 66.375 91.5 67.2704 91.5 68.375C91.5 69.4796 92.3954 70.375 93.5 70.375Z" fill="#3483FA"/>
<path d="M76.442 55.085C76.471 54.846 76.5 54.622 76.5 54.375C76.5 51.061 73.814 48.375 70.5 48.375C67.186 48.375 64.5 51.061 64.5 54.375C64.5 57.689 67.186 60.375 70.5 60.375" stroke="#3483FA" stroke-miterlimit="10"/>
<path d="M96.558 55.085C96.529 54.846 96.5 54.622 96.5 54.375C96.5 51.061 99.186 48.375 102.5 48.375C105.814 48.375 108.5 51.061 108.5 54.375C108.5 57.689 105.814 60.375 102.5 60.375" stroke="#3483FA" stroke-miterlimit="10"/>
</g>
<path d="M31.3129 117.47V110.422H32.6254V117.47C32.6254 118.126 32.4909 118.68 32.2221 119.131C31.9532 119.582 31.5818 119.926 31.1078 120.163C30.6384 120.396 30.0984 120.512 29.4877 120.512C28.877 120.512 28.3347 120.407 27.8607 120.197C27.3868 119.988 27.0154 119.669 26.7465 119.24C26.4776 118.812 26.3432 118.272 26.3432 117.62H27.6625C27.6625 118.039 27.74 118.383 27.8949 118.652C28.0499 118.921 28.2641 119.119 28.5375 119.247C28.8155 119.375 29.1322 119.438 29.4877 119.438C29.834 119.438 30.1439 119.366 30.4174 119.22C30.6954 119.069 30.9141 118.848 31.0736 118.557C31.2331 118.26 31.3129 117.898 31.3129 117.47ZM39.1947 118.666V112.979H40.4662V120.375H39.2562L39.1947 118.666ZM39.434 117.107L39.9604 117.094C39.9604 117.586 39.9079 118.042 39.8031 118.461C39.7029 118.876 39.5388 119.236 39.3109 119.541C39.0831 119.846 38.7846 120.086 38.4154 120.259C38.0463 120.427 37.5974 120.512 37.0687 120.512C36.7087 120.512 36.3783 120.459 36.0775 120.354C35.7813 120.25 35.5261 120.088 35.3119 119.869C35.0977 119.65 34.9314 119.366 34.8129 119.015C34.699 118.664 34.642 118.242 34.642 117.75V112.979H35.9066V117.764C35.9066 118.096 35.9431 118.372 36.016 118.591C36.0935 118.805 36.196 118.976 36.3236 119.104C36.4558 119.227 36.6016 119.313 36.7611 119.363C36.9252 119.413 37.0938 119.438 37.267 119.438C37.8048 119.438 38.2309 119.336 38.5453 119.131C38.8598 118.921 39.0854 118.641 39.2221 118.29C39.3633 117.935 39.434 117.54 39.434 117.107ZM45.4633 120.512C44.9483 120.512 44.4812 120.425 44.0619 120.252C43.6472 120.074 43.2895 119.826 42.9887 119.507C42.6924 119.188 42.4646 118.81 42.3051 118.372C42.1456 117.935 42.0658 117.456 42.0658 116.937V116.649C42.0658 116.048 42.1547 115.512 42.3324 115.043C42.5102 114.569 42.7517 114.168 43.057 113.84C43.3624 113.512 43.7087 113.263 44.0961 113.095C44.4835 112.926 44.8845 112.842 45.2992 112.842C45.8279 112.842 46.2836 112.933 46.6664 113.115C47.0538 113.298 47.3705 113.553 47.6166 113.881C47.8627 114.204 48.045 114.587 48.1635 115.029C48.282 115.467 48.3412 115.945 48.3412 116.465V117.032H42.8178V116H47.0766V115.904C47.0583 115.576 46.99 115.257 46.8715 114.947C46.7576 114.637 46.5753 114.382 46.3246 114.182C46.074 113.981 45.7322 113.881 45.2992 113.881C45.0121 113.881 44.7478 113.942 44.5062 114.065C44.2647 114.184 44.0574 114.362 43.8842 114.599C43.711 114.836 43.5766 115.125 43.4809 115.467C43.3852 115.809 43.3373 116.203 43.3373 116.649V116.937C43.3373 117.287 43.3852 117.618 43.4809 117.928C43.5811 118.233 43.7247 118.502 43.9115 118.734C44.1029 118.967 44.3331 119.149 44.602 119.281C44.8754 119.413 45.1853 119.479 45.5316 119.479C45.9783 119.479 46.3565 119.388 46.6664 119.206C46.9763 119.024 47.2475 118.78 47.4799 118.475L48.2455 119.083C48.086 119.325 47.8832 119.555 47.6371 119.773C47.391 119.992 47.088 120.17 46.7279 120.307C46.3725 120.443 45.9509 120.512 45.4633 120.512ZM54.6098 112.979H55.7582V120.218C55.7582 120.869 55.626 121.425 55.3617 121.886C55.0974 122.346 54.7283 122.695 54.2543 122.932C53.7849 123.173 53.2426 123.294 52.6273 123.294C52.3721 123.294 52.0714 123.253 51.725 123.171C51.3832 123.093 51.046 122.959 50.7133 122.768C50.3852 122.581 50.1094 122.328 49.8861 122.009L50.5492 121.257C50.8591 121.631 51.1827 121.89 51.5199 122.036C51.8617 122.182 52.199 122.255 52.5316 122.255C52.9327 122.255 53.279 122.18 53.5707 122.029C53.8624 121.879 54.088 121.656 54.2475 121.359C54.4115 121.068 54.4936 120.708 54.4936 120.279V114.605L54.6098 112.979ZM49.517 116.759V116.615C49.517 116.05 49.5831 115.537 49.7152 115.077C49.852 114.612 50.0456 114.214 50.2963 113.881C50.5515 113.548 50.8591 113.293 51.2191 113.115C51.5792 112.933 51.9848 112.842 52.4359 112.842C52.9008 112.842 53.3064 112.924 53.6527 113.088C54.0036 113.247 54.2999 113.482 54.5414 113.792C54.7875 114.097 54.9812 114.466 55.1225 114.899C55.2637 115.332 55.3617 115.822 55.4164 116.369V116.998C55.3663 117.54 55.2683 118.028 55.1225 118.461C54.9812 118.894 54.7875 119.263 54.5414 119.568C54.2999 119.874 54.0036 120.108 53.6527 120.272C53.3018 120.432 52.8917 120.512 52.4223 120.512C51.9802 120.512 51.5792 120.418 51.2191 120.231C50.8637 120.045 50.5583 119.783 50.3031 119.445C50.0479 119.108 49.852 118.712 49.7152 118.256C49.5831 117.796 49.517 117.297 49.517 116.759ZM50.7816 116.615V116.759C50.7816 117.128 50.8181 117.474 50.891 117.798C50.9685 118.121 51.0847 118.406 51.2396 118.652C51.3992 118.898 51.602 119.092 51.848 119.233C52.0941 119.37 52.3881 119.438 52.7299 119.438C53.1492 119.438 53.4955 119.35 53.7689 119.172C54.0424 118.994 54.2589 118.759 54.4184 118.468C54.5824 118.176 54.71 117.859 54.8012 117.518V115.87C54.751 115.619 54.6736 115.378 54.5687 115.146C54.4685 114.909 54.3363 114.699 54.1723 114.517C54.0128 114.33 53.8145 114.182 53.5775 114.072C53.3406 113.963 53.0626 113.908 52.7436 113.908C52.3972 113.908 52.0987 113.981 51.848 114.127C51.602 114.268 51.3992 114.464 51.2396 114.715C51.0847 114.961 50.9685 115.248 50.891 115.576C50.8181 115.9 50.7816 116.246 50.7816 116.615ZM57.3441 116.759V116.602C57.3441 116.068 57.4216 115.574 57.5766 115.118C57.7315 114.658 57.9548 114.259 58.2465 113.922C58.5381 113.58 58.8913 113.316 59.3061 113.129C59.7208 112.938 60.1856 112.842 60.7006 112.842C61.2201 112.842 61.6872 112.938 62.102 113.129C62.5212 113.316 62.8767 113.58 63.1684 113.922C63.4646 114.259 63.6902 114.658 63.8451 115.118C64.0001 115.574 64.0775 116.068 64.0775 116.602V116.759C64.0775 117.292 64.0001 117.786 63.8451 118.242C63.6902 118.698 63.4646 119.097 63.1684 119.438C62.8767 119.776 62.5235 120.04 62.1088 120.231C61.6986 120.418 61.2338 120.512 60.7143 120.512C60.1947 120.512 59.7276 120.418 59.3129 120.231C58.8982 120.04 58.5427 119.776 58.2465 119.438C57.9548 119.097 57.7315 118.698 57.5766 118.242C57.4216 117.786 57.3441 117.292 57.3441 116.759ZM58.6088 116.602V116.759C58.6088 117.128 58.6521 117.477 58.7387 117.805C58.8253 118.128 58.9551 118.415 59.1283 118.666C59.3061 118.917 59.5271 119.115 59.7914 119.261C60.0557 119.402 60.3633 119.473 60.7143 119.473C61.0606 119.473 61.3637 119.402 61.6234 119.261C61.8878 119.115 62.1065 118.917 62.2797 118.666C62.4529 118.415 62.5827 118.128 62.6693 117.805C62.7605 117.477 62.8061 117.128 62.8061 116.759V116.602C62.8061 116.237 62.7605 115.893 62.6693 115.569C62.5827 115.241 62.4506 114.952 62.2729 114.701C62.0997 114.446 61.8809 114.245 61.6166 114.1C61.3568 113.954 61.0515 113.881 60.7006 113.881C60.3542 113.881 60.0489 113.954 59.7846 114.1C59.5248 114.245 59.3061 114.446 59.1283 114.701C58.9551 114.952 58.8253 115.241 58.7387 115.569C58.6521 115.893 58.6088 116.237 58.6088 116.602ZM69.9701 118.413C69.9701 118.231 69.9291 118.062 69.8471 117.907C69.7696 117.748 69.6078 117.604 69.3617 117.477C69.1202 117.344 68.7556 117.23 68.268 117.135C67.8578 117.048 67.4864 116.946 67.1537 116.827C66.8256 116.709 66.5453 116.565 66.3129 116.396C66.085 116.228 65.9096 116.03 65.7865 115.802C65.6635 115.574 65.602 115.307 65.602 115.002C65.602 114.71 65.6658 114.435 65.7934 114.175C65.9255 113.915 66.1101 113.685 66.3471 113.484C66.5886 113.284 66.878 113.127 67.2152 113.013C67.5525 112.899 67.9284 112.842 68.3432 112.842C68.9356 112.842 69.4415 112.947 69.8607 113.156C70.28 113.366 70.6013 113.646 70.8246 113.997C71.0479 114.343 71.1596 114.729 71.1596 115.152H69.8949C69.8949 114.947 69.8334 114.749 69.7104 114.558C69.5919 114.362 69.4164 114.2 69.184 114.072C68.9561 113.945 68.6758 113.881 68.3432 113.881C67.9923 113.881 67.7074 113.936 67.4887 114.045C67.2745 114.15 67.1173 114.284 67.017 114.448C66.9213 114.612 66.8734 114.785 66.8734 114.968C66.8734 115.104 66.8962 115.228 66.9418 115.337C66.9919 115.442 67.0785 115.54 67.2016 115.631C67.3246 115.717 67.4978 115.799 67.7211 115.877C67.9444 115.954 68.2292 116.032 68.5756 116.109C69.1817 116.246 69.6807 116.41 70.0727 116.602C70.4646 116.793 70.7562 117.028 70.9477 117.306C71.1391 117.584 71.2348 117.921 71.2348 118.317C71.2348 118.641 71.1664 118.937 71.0297 119.206C70.8975 119.475 70.7038 119.707 70.4486 119.903C70.198 120.095 69.8972 120.245 69.5463 120.354C69.1999 120.459 68.8103 120.512 68.3773 120.512C67.7256 120.512 67.1742 120.396 66.723 120.163C66.2719 119.931 65.9301 119.63 65.6977 119.261C65.4652 118.892 65.349 118.502 65.349 118.092H66.6205C66.6387 118.438 66.739 118.714 66.9213 118.919C67.1036 119.119 67.3269 119.263 67.5912 119.35C67.8555 119.432 68.1176 119.473 68.3773 119.473C68.7237 119.473 69.0131 119.427 69.2455 119.336C69.4825 119.245 69.6625 119.119 69.7855 118.96C69.9086 118.8 69.9701 118.618 69.9701 118.413ZM78.4467 119.609L80.5043 112.979H81.8578L78.891 121.517C78.8227 121.699 78.7315 121.895 78.6176 122.104C78.5082 122.319 78.3669 122.521 78.1937 122.713C78.0206 122.904 77.8109 123.059 77.5648 123.178C77.3233 123.301 77.0339 123.362 76.6967 123.362C76.5964 123.362 76.4688 123.349 76.3139 123.321C76.1589 123.294 76.0495 123.271 75.9857 123.253L75.9789 122.228C76.0154 122.232 76.0723 122.237 76.1498 122.241C76.2318 122.25 76.2888 122.255 76.3207 122.255C76.6078 122.255 76.8516 122.216 77.0521 122.139C77.2527 122.066 77.4213 121.94 77.558 121.763C77.6993 121.59 77.8201 121.35 77.9203 121.045L78.4467 119.609ZM76.9359 112.979L78.8568 118.721L79.185 120.054L78.2758 120.519L75.5551 112.979H76.9359ZM90.8402 117.47V110.422H92.1527V117.47C92.1527 118.126 92.0183 118.68 91.7494 119.131C91.4805 119.582 91.1091 119.926 90.6352 120.163C90.1658 120.396 89.6257 120.512 89.015 120.512C88.4044 120.512 87.862 120.407 87.3881 120.197C86.9141 119.988 86.5427 119.669 86.2738 119.24C86.0049 118.812 85.8705 118.272 85.8705 117.62H87.1898C87.1898 118.039 87.2673 118.383 87.4223 118.652C87.5772 118.921 87.7914 119.119 88.0648 119.247C88.3428 119.375 88.6596 119.438 89.015 119.438C89.3614 119.438 89.6713 119.366 89.9447 119.22C90.2227 119.069 90.4415 118.848 90.601 118.557C90.7605 118.26 90.8402 117.898 90.8402 117.47ZM98.7221 118.666V112.979H99.9936V120.375H98.7836L98.7221 118.666ZM98.9613 117.107L99.4877 117.094C99.4877 117.586 99.4353 118.042 99.3305 118.461C99.2302 118.876 99.0661 119.236 98.8383 119.541C98.6104 119.846 98.3119 120.086 97.9428 120.259C97.5736 120.427 97.1247 120.512 96.5961 120.512C96.2361 120.512 95.9057 120.459 95.6049 120.354C95.3087 120.25 95.0534 120.088 94.8393 119.869C94.6251 119.65 94.4587 119.366 94.3402 119.015C94.2263 118.664 94.1693 118.242 94.1693 117.75V112.979H95.434V117.764C95.434 118.096 95.4704 118.372 95.5434 118.591C95.6208 118.805 95.7234 118.976 95.851 119.104C95.9831 119.227 96.129 119.313 96.2885 119.363C96.4525 119.413 96.6212 119.438 96.7943 119.438C97.3321 119.438 97.7582 119.336 98.0727 119.131C98.3871 118.921 98.6127 118.641 98.7494 118.29C98.8907 117.935 98.9613 117.54 98.9613 117.107ZM106.713 112.979H107.862V120.218C107.862 120.869 107.73 121.425 107.465 121.886C107.201 122.346 106.832 122.695 106.358 122.932C105.888 123.173 105.346 123.294 104.731 123.294C104.476 123.294 104.175 123.253 103.829 123.171C103.487 123.093 103.149 122.959 102.817 122.768C102.489 122.581 102.213 122.328 101.99 122.009L102.653 121.257C102.963 121.631 103.286 121.89 103.623 122.036C103.965 122.182 104.302 122.255 104.635 122.255C105.036 122.255 105.383 122.18 105.674 122.029C105.966 121.879 106.191 121.656 106.351 121.359C106.515 121.068 106.597 120.708 106.597 120.279V114.605L106.713 112.979ZM101.621 116.759V116.615C101.621 116.05 101.687 115.537 101.819 115.077C101.955 114.612 102.149 114.214 102.4 113.881C102.655 113.548 102.963 113.293 103.323 113.115C103.683 112.933 104.088 112.842 104.539 112.842C105.004 112.842 105.41 112.924 105.756 113.088C106.107 113.247 106.403 113.482 106.645 113.792C106.891 114.097 107.085 114.466 107.226 114.899C107.367 115.332 107.465 115.822 107.52 116.369V116.998C107.47 117.54 107.372 118.028 107.226 118.461C107.085 118.894 106.891 119.263 106.645 119.568C106.403 119.874 106.107 120.108 105.756 120.272C105.405 120.432 104.995 120.512 104.526 120.512C104.084 120.512 103.683 120.418 103.323 120.231C102.967 120.045 102.662 119.783 102.407 119.445C102.151 119.108 101.955 118.712 101.819 118.256C101.687 117.796 101.621 117.297 101.621 116.759ZM102.885 116.615V116.759C102.885 117.128 102.922 117.474 102.995 117.798C103.072 118.121 103.188 118.406 103.343 118.652C103.503 118.898 103.705 119.092 103.952 119.233C104.198 119.37 104.492 119.438 104.833 119.438C105.253 119.438 105.599 119.35 105.872 119.172C106.146 118.994 106.362 118.759 106.522 118.468C106.686 118.176 106.814 117.859 106.905 117.518V115.87C106.855 115.619 106.777 115.378 106.672 115.146C106.572 114.909 106.44 114.699 106.276 114.517C106.116 114.33 105.918 114.182 105.681 114.072C105.444 113.963 105.166 113.908 104.847 113.908C104.501 113.908 104.202 113.981 103.952 114.127C103.705 114.268 103.503 114.464 103.343 114.715C103.188 114.961 103.072 115.248 102.995 115.576C102.922 115.9 102.885 116.246 102.885 116.615ZM114.308 118.666V112.979H115.579V120.375H114.37L114.308 118.666ZM114.547 117.107L115.074 117.094C115.074 117.586 115.021 118.042 114.916 118.461C114.816 118.876 114.652 119.236 114.424 119.541C114.196 119.846 113.898 120.086 113.529 120.259C113.16 120.427 112.711 120.512 112.182 120.512C111.822 120.512 111.492 120.459 111.191 120.354C110.895 120.25 110.639 120.088 110.425 119.869C110.211 119.65 110.045 119.366 109.926 119.015C109.812 118.664 109.755 118.242 109.755 117.75V112.979H111.02V117.764C111.02 118.096 111.056 118.372 111.129 118.591C111.207 118.805 111.309 118.976 111.437 119.104C111.569 119.227 111.715 119.313 111.874 119.363C112.038 119.413 112.207 119.438 112.38 119.438C112.918 119.438 113.344 119.336 113.659 119.131C113.973 118.921 114.199 118.641 114.335 118.29C114.477 117.935 114.547 117.54 114.547 117.107ZM120.577 120.512C120.062 120.512 119.594 120.425 119.175 120.252C118.76 120.074 118.403 119.826 118.102 119.507C117.806 119.188 117.578 118.81 117.418 118.372C117.259 117.935 117.179 117.456 117.179 116.937V116.649C117.179 116.048 117.268 115.512 117.446 115.043C117.623 114.569 117.865 114.168 118.17 113.84C118.476 113.512 118.822 113.263 119.209 113.095C119.597 112.926 119.998 112.842 120.412 112.842C120.941 112.842 121.397 112.933 121.78 113.115C122.167 113.298 122.484 113.553 122.73 113.881C122.976 114.204 123.158 114.587 123.277 115.029C123.395 115.467 123.454 115.945 123.454 116.465V117.032H117.931V116H122.19V115.904C122.172 115.576 122.103 115.257 121.985 114.947C121.871 114.637 121.689 114.382 121.438 114.182C121.187 113.981 120.845 113.881 120.412 113.881C120.125 113.881 119.861 113.942 119.62 114.065C119.378 114.184 119.171 114.362 118.997 114.599C118.824 114.836 118.69 115.125 118.594 115.467C118.498 115.809 118.451 116.203 118.451 116.649V116.937C118.451 117.287 118.498 117.618 118.594 117.928C118.694 118.233 118.838 118.502 119.025 118.734C119.216 118.967 119.446 119.149 119.715 119.281C119.989 119.413 120.299 119.479 120.645 119.479C121.092 119.479 121.47 119.388 121.78 119.206C122.09 119.024 122.361 118.78 122.593 118.475L123.359 119.083C123.199 119.325 122.996 119.555 122.75 119.773C122.504 119.992 122.201 120.17 121.841 120.307C121.486 120.443 121.064 120.512 120.577 120.512ZM128.028 112.979V113.949H124.029V112.979H128.028ZM125.382 111.181H126.647V118.543C126.647 118.794 126.686 118.983 126.763 119.11C126.841 119.238 126.941 119.322 127.064 119.363C127.187 119.404 127.319 119.425 127.46 119.425C127.565 119.425 127.675 119.416 127.788 119.397C127.907 119.375 127.996 119.356 128.055 119.343L128.062 120.375C127.962 120.407 127.829 120.437 127.665 120.464C127.506 120.496 127.312 120.512 127.084 120.512C126.774 120.512 126.49 120.45 126.23 120.327C125.97 120.204 125.763 119.999 125.608 119.712C125.457 119.42 125.382 119.028 125.382 118.536V111.181ZM132.58 120.512C132.065 120.512 131.598 120.425 131.179 120.252C130.764 120.074 130.407 119.826 130.106 119.507C129.81 119.188 129.582 118.81 129.422 118.372C129.263 117.935 129.183 117.456 129.183 116.937V116.649C129.183 116.048 129.272 115.512 129.45 115.043C129.627 114.569 129.869 114.168 130.174 113.84C130.48 113.512 130.826 113.263 131.213 113.095C131.601 112.926 132.002 112.842 132.416 112.842C132.945 112.842 133.401 112.933 133.784 113.115C134.171 113.298 134.488 113.553 134.734 113.881C134.98 114.204 135.162 114.587 135.281 115.029C135.399 115.467 135.458 115.945 135.458 116.465V117.032H129.935V116H134.194V115.904C134.176 115.576 134.107 115.257 133.989 114.947C133.875 114.637 133.692 114.382 133.442 114.182C133.191 113.981 132.849 113.881 132.416 113.881C132.129 113.881 131.865 113.942 131.623 114.065C131.382 114.184 131.175 114.362 131.001 114.599C130.828 114.836 130.694 115.125 130.598 115.467C130.502 115.809 130.454 116.203 130.454 116.649V116.937C130.454 117.287 130.502 117.618 130.598 117.928C130.698 118.233 130.842 118.502 131.029 118.734C131.22 118.967 131.45 119.149 131.719 119.281C131.993 119.413 132.302 119.479 132.649 119.479C133.095 119.479 133.474 119.388 133.784 119.206C134.093 119.024 134.365 118.78 134.597 118.475L135.363 119.083C135.203 119.325 135 119.555 134.754 119.773C134.508 119.992 134.205 120.17 133.845 120.307C133.49 120.443 133.068 120.512 132.58 120.512ZM141.242 118.413C141.242 118.231 141.201 118.062 141.119 117.907C141.041 117.748 140.879 117.604 140.633 117.477C140.392 117.344 140.027 117.23 139.539 117.135C139.129 117.048 138.758 116.946 138.425 116.827C138.097 116.709 137.817 116.565 137.584 116.396C137.357 116.228 137.181 116.03 137.058 115.802C136.935 115.574 136.873 115.307 136.873 115.002C136.873 114.71 136.937 114.435 137.065 114.175C137.197 113.915 137.382 113.685 137.619 113.484C137.86 113.284 138.149 113.127 138.487 113.013C138.824 112.899 139.2 112.842 139.615 112.842C140.207 112.842 140.713 112.947 141.132 113.156C141.551 113.366 141.873 113.646 142.096 113.997C142.319 114.343 142.431 114.729 142.431 115.152H141.166C141.166 114.947 141.105 114.749 140.982 114.558C140.863 114.362 140.688 114.2 140.455 114.072C140.228 113.945 139.947 113.881 139.615 113.881C139.264 113.881 138.979 113.936 138.76 114.045C138.546 114.15 138.389 114.284 138.288 114.448C138.193 114.612 138.145 114.785 138.145 114.968C138.145 115.104 138.168 115.228 138.213 115.337C138.263 115.442 138.35 115.54 138.473 115.631C138.596 115.717 138.769 115.799 138.993 115.877C139.216 115.954 139.501 116.032 139.847 116.109C140.453 116.246 140.952 116.41 141.344 116.602C141.736 116.793 142.028 117.028 142.219 117.306C142.411 117.584 142.506 117.921 142.506 118.317C142.506 118.641 142.438 118.937 142.301 119.206C142.169 119.475 141.975 119.707 141.72 119.903C141.469 120.095 141.169 120.245 140.818 120.354C140.471 120.459 140.082 120.512 139.649 120.512C138.997 120.512 138.446 120.396 137.995 120.163C137.543 119.931 137.202 119.63 136.969 119.261C136.737 118.892 136.621 118.502 136.621 118.092H137.892C137.91 118.438 138.01 118.714 138.193 118.919C138.375 119.119 138.598 119.263 138.863 119.35C139.127 119.432 139.389 119.473 139.649 119.473C139.995 119.473 140.285 119.427 140.517 119.336C140.754 119.245 140.934 119.119 141.057 118.96C141.18 118.8 141.242 118.618 141.242 118.413Z" fill="#333333"/>
<path d="M170 170.375V171.375H171V170.375H170ZM169 0.375V170.375H171V0.375H169ZM170 169.375H0V171.375H170V169.375Z" fill="#EAE6E6" mask="url(#path-1-inside-1_1_584)"/>
<defs>
<clipPath id="clip0_1_584">
<rect width="48" height="48" fill="white" transform="translate(62.5 46.375)"/>
</clipPath>
</defs>
</svg>
