<svg width="170" height="171" viewBox="0 0 170 171" fill="none" xmlns="http://www.w3.org/2000/svg">
<mask id="path-1-inside-1_1_615" fill="white">
<path d="M0 0.375H170V170.375H0V0.375Z"/>
</mask>
<path d="M0 0.375H170V170.375H0V0.375Z" fill="white"/>
<g clip-path="url(#clip0_1_615)">
<path d="M108 55.9751L102.1 61.8751L95 54.7751L100.9 48.8751C99.5 48.4751 98.1 48.2751 96.5 48.3751C90.9 48.8751 86.4 53.8751 86.5 59.4751C86.5 60.5751 86.7 61.6751 87 62.6751L67.8 79.6751C64.9 82.1751 64.8 86.6751 67.5 89.3751C70.2 92.0751 74.6 91.9751 77.2 89.0751L94.2 69.8751C95.9 70.3751 97.8 70.5751 99.8 70.1751C103.8 69.3751 107.1 66.3751 108.2 62.4751C108.7 60.1751 108.6 57.9751 108 55.9751Z" stroke="#3483FA" stroke-miterlimit="10" stroke-linecap="square"/>
</g>
<path d="M49.9965 114.701V115.774H44.6098V114.701H49.9965ZM44.8148 110.422V120.375H43.4955V110.422H44.8148ZM51.1449 110.422V120.375H49.8324V110.422H51.1449ZM56.3676 120.512C55.8526 120.512 55.3855 120.425 54.9662 120.252C54.5515 120.074 54.1937 119.826 53.893 119.507C53.5967 119.188 53.3689 118.81 53.2094 118.372C53.0499 117.935 52.9701 117.456 52.9701 116.937V116.649C52.9701 116.048 53.059 115.512 53.2367 115.043C53.4145 114.569 53.656 114.168 53.9613 113.84C54.2667 113.512 54.613 113.263 55.0004 113.095C55.3878 112.926 55.7888 112.842 56.2035 112.842C56.7322 112.842 57.1879 112.933 57.5707 113.115C57.9581 113.298 58.2748 113.553 58.5209 113.881C58.767 114.204 58.9493 114.587 59.0678 115.029C59.1863 115.467 59.2455 115.945 59.2455 116.465V117.032H53.7221V116H57.9809V115.904C57.9626 115.576 57.8943 115.257 57.7758 114.947C57.6618 114.637 57.4796 114.382 57.2289 114.182C56.9783 113.981 56.6365 113.881 56.2035 113.881C55.9164 113.881 55.6521 113.942 55.4105 114.065C55.169 114.184 54.9617 114.362 54.7885 114.599C54.6153 114.836 54.4809 115.125 54.3852 115.467C54.2895 115.809 54.2416 116.203 54.2416 116.649V116.937C54.2416 117.287 54.2895 117.618 54.3852 117.928C54.4854 118.233 54.629 118.502 54.8158 118.734C55.0072 118.967 55.2374 119.149 55.5062 119.281C55.7797 119.413 56.0896 119.479 56.4359 119.479C56.8826 119.479 57.2608 119.388 57.5707 119.206C57.8806 119.024 58.1518 118.78 58.3842 118.475L59.1498 119.083C58.9903 119.325 58.7875 119.555 58.5414 119.773C58.2953 119.992 57.9923 120.17 57.6322 120.307C57.2768 120.443 56.8552 120.512 56.3676 120.512ZM61.9867 114.141V120.375H60.7221V112.979H61.9525L61.9867 114.141ZM64.2973 112.938L64.2904 114.113C64.1856 114.09 64.0854 114.077 63.9896 114.072C63.8985 114.063 63.7937 114.059 63.6752 114.059C63.3835 114.059 63.126 114.104 62.9027 114.195C62.6794 114.286 62.4903 114.414 62.3354 114.578C62.1804 114.742 62.0574 114.938 61.9662 115.166C61.8796 115.389 61.8227 115.635 61.7953 115.904L61.4398 116.109C61.4398 115.663 61.4831 115.243 61.5697 114.852C61.6609 114.46 61.7999 114.113 61.9867 113.812C62.1736 113.507 62.4105 113.27 62.6977 113.102C62.9893 112.928 63.3357 112.842 63.7367 112.842C63.8279 112.842 63.9327 112.853 64.0512 112.876C64.1697 112.894 64.2517 112.915 64.2973 112.938ZM66.7309 114.141V120.375H65.4662V112.979H66.6967L66.7309 114.141ZM69.0414 112.938L69.0346 114.113C68.9298 114.09 68.8295 114.077 68.7338 114.072C68.6426 114.063 68.5378 114.059 68.4193 114.059C68.1277 114.059 67.8702 114.104 67.6469 114.195C67.4236 114.286 67.2344 114.414 67.0795 114.578C66.9245 114.742 66.8015 114.938 66.7104 115.166C66.6238 115.389 66.5668 115.635 66.5395 115.904L66.184 116.109C66.184 115.663 66.2273 115.243 66.3139 114.852C66.405 114.46 66.544 114.113 66.7309 113.812C66.9177 113.507 67.1547 113.27 67.4418 113.102C67.7335 112.928 68.0798 112.842 68.4809 112.842C68.572 112.842 68.6768 112.853 68.7953 112.876C68.9138 112.894 68.9958 112.915 69.0414 112.938ZM74.2982 119.11V115.303C74.2982 115.011 74.239 114.758 74.1205 114.544C74.0066 114.325 73.8334 114.157 73.601 114.038C73.3686 113.92 73.0814 113.86 72.7396 113.86C72.4206 113.86 72.1404 113.915 71.8988 114.024C71.6618 114.134 71.475 114.277 71.3383 114.455C71.2061 114.633 71.14 114.824 71.14 115.029H69.8754C69.8754 114.765 69.9437 114.503 70.0805 114.243C70.2172 113.983 70.4131 113.749 70.6684 113.539C70.9281 113.325 71.238 113.156 71.598 113.033C71.9626 112.906 72.3682 112.842 72.8148 112.842C73.3526 112.842 73.8266 112.933 74.2367 113.115C74.6514 113.298 74.975 113.573 75.2074 113.942C75.4444 114.307 75.5629 114.765 75.5629 115.316V118.762C75.5629 119.008 75.5834 119.27 75.6244 119.548C75.67 119.826 75.7361 120.065 75.8227 120.266V120.375H74.5033C74.4395 120.229 74.3894 120.035 74.3529 119.794C74.3165 119.548 74.2982 119.32 74.2982 119.11ZM74.517 115.891L74.5307 116.779H73.2523C72.8923 116.779 72.571 116.809 72.2885 116.868C72.0059 116.923 71.7689 117.007 71.5775 117.121C71.3861 117.235 71.2403 117.379 71.14 117.552C71.0398 117.72 70.9896 117.919 70.9896 118.146C70.9896 118.379 71.0421 118.591 71.1469 118.782C71.2517 118.974 71.4089 119.126 71.6186 119.24C71.8327 119.35 72.0948 119.404 72.4047 119.404C72.7921 119.404 73.1339 119.322 73.4301 119.158C73.7263 118.994 73.961 118.794 74.1342 118.557C74.3119 118.32 74.4076 118.09 74.4213 117.866L74.9613 118.475C74.9294 118.666 74.8428 118.878 74.7016 119.11C74.5603 119.343 74.3712 119.566 74.1342 119.78C73.9018 119.99 73.6238 120.165 73.3002 120.307C72.9812 120.443 72.6212 120.512 72.2201 120.512C71.7188 120.512 71.279 120.414 70.9008 120.218C70.5271 120.022 70.2354 119.76 70.0258 119.432C69.8207 119.099 69.7182 118.728 69.7182 118.317C69.7182 117.921 69.7956 117.572 69.9506 117.271C70.1055 116.966 70.3288 116.713 70.6205 116.513C70.9122 116.308 71.2631 116.153 71.6732 116.048C72.0834 115.943 72.5414 115.891 73.0473 115.891H74.517ZM78.81 114.448V120.375H77.5385V112.979H78.7416L78.81 114.448ZM78.5502 116.396L77.9623 116.376C77.9669 115.87 78.0329 115.403 78.1605 114.975C78.2881 114.542 78.4773 114.166 78.7279 113.847C78.9786 113.528 79.2908 113.282 79.6645 113.108C80.0381 112.931 80.4711 112.842 80.9633 112.842C81.3096 112.842 81.6286 112.892 81.9203 112.992C82.212 113.088 82.4649 113.241 82.6791 113.45C82.8933 113.66 83.0596 113.929 83.1781 114.257C83.2966 114.585 83.3559 114.981 83.3559 115.446V120.375H82.0912V115.508C82.0912 115.12 82.0251 114.811 81.893 114.578C81.7654 114.346 81.5831 114.177 81.3461 114.072C81.1091 113.963 80.8311 113.908 80.5121 113.908C80.1384 113.908 79.8262 113.974 79.5756 114.106C79.3249 114.239 79.1244 114.421 78.974 114.653C78.8236 114.886 78.7143 115.152 78.6459 115.453C78.5821 115.749 78.5502 116.064 78.5502 116.396ZM83.3422 115.699L82.4945 115.959C82.4991 115.553 82.5652 115.164 82.6928 114.79C82.8249 114.416 83.0141 114.084 83.2602 113.792C83.5108 113.5 83.8184 113.27 84.183 113.102C84.5476 112.928 84.9646 112.842 85.434 112.842C85.8305 112.842 86.1814 112.894 86.4867 112.999C86.7966 113.104 87.0564 113.266 87.266 113.484C87.4802 113.699 87.642 113.974 87.7514 114.312C87.8607 114.649 87.9154 115.05 87.9154 115.515V120.375H86.6439V115.501C86.6439 115.086 86.5779 114.765 86.4457 114.537C86.3181 114.305 86.1358 114.143 85.8988 114.052C85.6664 113.956 85.3884 113.908 85.0648 113.908C84.7868 113.908 84.5408 113.956 84.3266 114.052C84.1124 114.147 83.9324 114.28 83.7865 114.448C83.6407 114.612 83.529 114.801 83.4516 115.016C83.3786 115.23 83.3422 115.458 83.3422 115.699ZM91.2035 112.979V120.375H89.932V112.979H91.2035ZM89.8363 111.017C89.8363 110.812 89.8979 110.638 90.0209 110.497C90.1485 110.356 90.3354 110.285 90.5814 110.285C90.823 110.285 91.0076 110.356 91.1352 110.497C91.2673 110.638 91.3334 110.812 91.3334 111.017C91.3334 111.213 91.2673 111.381 91.1352 111.522C91.0076 111.659 90.823 111.728 90.5814 111.728C90.3354 111.728 90.1485 111.659 90.0209 111.522C89.8979 111.381 89.8363 111.213 89.8363 111.017ZM96.3031 120.512C95.7881 120.512 95.321 120.425 94.9018 120.252C94.487 120.074 94.1293 119.826 93.8285 119.507C93.5323 119.188 93.3044 118.81 93.1449 118.372C92.9854 117.935 92.9057 117.456 92.9057 116.937V116.649C92.9057 116.048 92.9945 115.512 93.1723 115.043C93.35 114.569 93.5915 114.168 93.8969 113.84C94.2022 113.512 94.5486 113.263 94.9359 113.095C95.3233 112.926 95.7243 112.842 96.1391 112.842C96.6677 112.842 97.1234 112.933 97.5062 113.115C97.8936 113.298 98.2104 113.553 98.4564 113.881C98.7025 114.204 98.8848 114.587 99.0033 115.029C99.1218 115.467 99.1811 115.945 99.1811 116.465V117.032H93.6576V116H97.9164V115.904C97.8982 115.576 97.8298 115.257 97.7113 114.947C97.5974 114.637 97.4151 114.382 97.1645 114.182C96.9138 113.981 96.572 113.881 96.1391 113.881C95.852 113.881 95.5876 113.942 95.3461 114.065C95.1046 114.184 94.8972 114.362 94.724 114.599C94.5508 114.836 94.4164 115.125 94.3207 115.467C94.225 115.809 94.1771 116.203 94.1771 116.649V116.937C94.1771 117.287 94.225 117.618 94.3207 117.928C94.421 118.233 94.5645 118.502 94.7514 118.734C94.9428 118.967 95.1729 119.149 95.4418 119.281C95.7152 119.413 96.0251 119.479 96.3715 119.479C96.8181 119.479 97.1964 119.388 97.5062 119.206C97.8161 119.024 98.0873 118.78 98.3197 118.475L99.0854 119.083C98.9258 119.325 98.723 119.555 98.477 119.773C98.2309 119.992 97.9278 120.17 97.5678 120.307C97.2123 120.443 96.7908 120.512 96.3031 120.512ZM101.922 114.558V120.375H100.658V112.979H101.854L101.922 114.558ZM101.621 116.396L101.095 116.376C101.1 115.87 101.175 115.403 101.321 114.975C101.467 114.542 101.672 114.166 101.936 113.847C102.2 113.528 102.515 113.282 102.879 113.108C103.248 112.931 103.656 112.842 104.103 112.842C104.468 112.842 104.796 112.892 105.087 112.992C105.379 113.088 105.627 113.243 105.832 113.457C106.042 113.671 106.202 113.949 106.311 114.291C106.42 114.628 106.475 115.041 106.475 115.528V120.375H105.204V115.515C105.204 115.127 105.147 114.817 105.033 114.585C104.919 114.348 104.752 114.177 104.534 114.072C104.315 113.963 104.046 113.908 103.727 113.908C103.412 113.908 103.125 113.974 102.866 114.106C102.61 114.239 102.389 114.421 102.203 114.653C102.02 114.886 101.877 115.152 101.772 115.453C101.672 115.749 101.621 116.064 101.621 116.396ZM111.493 112.979V113.949H107.494V112.979H111.493ZM108.847 111.181H110.112V118.543C110.112 118.794 110.15 118.983 110.228 119.11C110.305 119.238 110.406 119.322 110.529 119.363C110.652 119.404 110.784 119.425 110.925 119.425C111.03 119.425 111.139 119.416 111.253 119.397C111.372 119.375 111.461 119.356 111.52 119.343L111.527 120.375C111.426 120.407 111.294 120.437 111.13 120.464C110.971 120.496 110.777 120.512 110.549 120.512C110.239 120.512 109.954 120.45 109.695 120.327C109.435 120.204 109.228 119.999 109.073 119.712C108.922 119.42 108.847 119.028 108.847 118.536V111.181ZM117.337 119.11V115.303C117.337 115.011 117.278 114.758 117.16 114.544C117.046 114.325 116.872 114.157 116.64 114.038C116.408 113.92 116.121 113.86 115.779 113.86C115.46 113.86 115.179 113.915 114.938 114.024C114.701 114.134 114.514 114.277 114.377 114.455C114.245 114.633 114.179 114.824 114.179 115.029H112.914C112.914 114.765 112.983 114.503 113.12 114.243C113.256 113.983 113.452 113.749 113.707 113.539C113.967 113.325 114.277 113.156 114.637 113.033C115.002 112.906 115.407 112.842 115.854 112.842C116.392 112.842 116.866 112.933 117.276 113.115C117.69 113.298 118.014 113.573 118.246 113.942C118.483 114.307 118.602 114.765 118.602 115.316V118.762C118.602 119.008 118.622 119.27 118.663 119.548C118.709 119.826 118.775 120.065 118.862 120.266V120.375H117.542C117.479 120.229 117.428 120.035 117.392 119.794C117.356 119.548 117.337 119.32 117.337 119.11ZM117.556 115.891L117.57 116.779H116.291C115.931 116.779 115.61 116.809 115.328 116.868C115.045 116.923 114.808 117.007 114.617 117.121C114.425 117.235 114.279 117.379 114.179 117.552C114.079 117.72 114.029 117.919 114.029 118.146C114.029 118.379 114.081 118.591 114.186 118.782C114.291 118.974 114.448 119.126 114.658 119.24C114.872 119.35 115.134 119.404 115.444 119.404C115.831 119.404 116.173 119.322 116.469 119.158C116.765 118.994 117 118.794 117.173 118.557C117.351 118.32 117.447 118.09 117.46 117.866L118 118.475C117.968 118.666 117.882 118.878 117.741 119.11C117.599 119.343 117.41 119.566 117.173 119.78C116.941 119.99 116.663 120.165 116.339 120.307C116.02 120.443 115.66 120.512 115.259 120.512C114.758 120.512 114.318 120.414 113.94 120.218C113.566 120.022 113.274 119.76 113.065 119.432C112.86 119.099 112.757 118.728 112.757 118.317C112.757 117.921 112.835 117.572 112.99 117.271C113.145 116.966 113.368 116.713 113.66 116.513C113.951 116.308 114.302 116.153 114.712 116.048C115.122 115.943 115.58 115.891 116.086 115.891H117.556ZM124.898 118.413C124.898 118.231 124.857 118.062 124.775 117.907C124.697 117.748 124.536 117.604 124.289 117.477C124.048 117.344 123.683 117.23 123.196 117.135C122.786 117.048 122.414 116.946 122.081 116.827C121.753 116.709 121.473 116.565 121.241 116.396C121.013 116.228 120.837 116.03 120.714 115.802C120.591 115.574 120.53 115.307 120.53 115.002C120.53 114.71 120.593 114.435 120.721 114.175C120.853 113.915 121.038 113.685 121.275 113.484C121.516 113.284 121.806 113.127 122.143 113.013C122.48 112.899 122.856 112.842 123.271 112.842C123.863 112.842 124.369 112.947 124.788 113.156C125.208 113.366 125.529 113.646 125.752 113.997C125.976 114.343 126.087 114.729 126.087 115.152H124.823C124.823 114.947 124.761 114.749 124.638 114.558C124.52 114.362 124.344 114.2 124.112 114.072C123.884 113.945 123.604 113.881 123.271 113.881C122.92 113.881 122.635 113.936 122.416 114.045C122.202 114.15 122.045 114.284 121.945 114.448C121.849 114.612 121.801 114.785 121.801 114.968C121.801 115.104 121.824 115.228 121.87 115.337C121.92 115.442 122.006 115.54 122.129 115.631C122.252 115.717 122.426 115.799 122.649 115.877C122.872 115.954 123.157 116.032 123.503 116.109C124.109 116.246 124.608 116.41 125 116.602C125.392 116.793 125.684 117.028 125.875 117.306C126.067 117.584 126.162 117.921 126.162 118.317C126.162 118.641 126.094 118.937 125.957 119.206C125.825 119.475 125.632 119.707 125.376 119.903C125.126 120.095 124.825 120.245 124.474 120.354C124.128 120.459 123.738 120.512 123.305 120.512C122.653 120.512 122.102 120.396 121.651 120.163C121.2 119.931 120.858 119.63 120.625 119.261C120.393 118.892 120.277 118.502 120.277 118.092H121.548C121.566 118.438 121.667 118.714 121.849 118.919C122.031 119.119 122.255 119.263 122.519 119.35C122.783 119.432 123.045 119.473 123.305 119.473C123.651 119.473 123.941 119.427 124.173 119.336C124.41 119.245 124.59 119.119 124.713 118.96C124.836 118.8 124.898 118.618 124.898 118.413Z" fill="#333333"/>
<path d="M170 170.375V171.375H171V170.375H170ZM169 0.375V170.375H171V0.375H169ZM170 169.375H0V171.375H170V169.375Z" fill="#EAE6E6" mask="url(#path-1-inside-1_1_615)"/>
<defs>
<clipPath id="clip0_1_615">
<rect width="48" height="48" fill="white" transform="translate(62.5 46.375)"/>
</clipPath>
</defs>
</svg>
