<svg width="170" height="171" viewBox="0 0 170 171" fill="none" xmlns="http://www.w3.org/2000/svg">
<mask id="path-1-inside-1_1_463" fill="white">
<path d="M0 0.375H170V170.375H0V0.375Z"/>
</mask>
<path d="M0 0.375H170V170.375H0V0.375Z" fill="white"/>
<g clip-path="url(#clip0_1_463)">
<path d="M86.5 88.375V82.375" stroke="#3483FA" stroke-miterlimit="10" stroke-linecap="square"/>
<path d="M74.5 90.375C74.5 90.375 79.5 88.375 86.5 88.375C93.5 88.375 98.5 90.375 98.5 90.375" stroke="#3483FA" stroke-miterlimit="10" stroke-linecap="square"/>
<path d="M108.5 50.375H64.5V82.375H108.5V50.375Z" stroke="#3483FA" stroke-miterlimit="10" stroke-linecap="square"/>
<path d="M64.5 76.375H108.5" stroke="#3483FA" stroke-miterlimit="10" stroke-linecap="square"/>
</g>
<path d="M49.9555 117.21H51.268C51.1996 117.839 51.0196 118.402 50.7279 118.898C50.4363 119.395 50.0238 119.789 49.4906 120.081C48.9574 120.368 48.2921 120.512 47.4945 120.512C46.9112 120.512 46.3803 120.402 45.9018 120.184C45.4278 119.965 45.0199 119.655 44.6781 119.254C44.3363 118.848 44.072 118.363 43.8852 117.798C43.7029 117.228 43.6117 116.595 43.6117 115.897V114.906C43.6117 114.209 43.7029 113.578 43.8852 113.013C44.072 112.443 44.3386 111.955 44.685 111.55C45.0359 111.144 45.4574 110.832 45.9496 110.613C46.4418 110.395 46.9955 110.285 47.6107 110.285C48.3627 110.285 48.9984 110.426 49.518 110.709C50.0375 110.992 50.4408 111.383 50.7279 111.885C51.0196 112.382 51.1996 112.958 51.268 113.614H49.9555C49.8917 113.149 49.7732 112.751 49.6 112.418C49.4268 112.081 49.1807 111.821 48.8617 111.639C48.5427 111.456 48.1257 111.365 47.6107 111.365C47.1687 111.365 46.779 111.45 46.4418 111.618C46.1091 111.787 45.8288 112.026 45.601 112.336C45.3777 112.646 45.209 113.017 45.0951 113.45C44.9812 113.883 44.9242 114.364 44.9242 114.893V115.897C44.9242 116.385 44.9743 116.843 45.0746 117.271C45.1794 117.7 45.3367 118.076 45.5463 118.399C45.7559 118.723 46.0225 118.978 46.3461 119.165C46.6697 119.347 47.0525 119.438 47.4945 119.438C48.0551 119.438 48.5017 119.35 48.8344 119.172C49.1671 118.994 49.4177 118.739 49.5863 118.406C49.7595 118.074 49.8826 117.675 49.9555 117.21ZM52.5395 116.759V116.602C52.5395 116.068 52.6169 115.574 52.7719 115.118C52.9268 114.658 53.1501 114.259 53.4418 113.922C53.7335 113.58 54.0867 113.316 54.5014 113.129C54.9161 112.938 55.3809 112.842 55.8959 112.842C56.4154 112.842 56.8826 112.938 57.2973 113.129C57.7165 113.316 58.072 113.58 58.3637 113.922C58.6599 114.259 58.8855 114.658 59.0404 115.118C59.1954 115.574 59.2729 116.068 59.2729 116.602V116.759C59.2729 117.292 59.1954 117.786 59.0404 118.242C58.8855 118.698 58.6599 119.097 58.3637 119.438C58.072 119.776 57.7188 120.04 57.3041 120.231C56.8939 120.418 56.4291 120.512 55.9096 120.512C55.39 120.512 54.9229 120.418 54.5082 120.231C54.0935 120.04 53.738 119.776 53.4418 119.438C53.1501 119.097 52.9268 118.698 52.7719 118.242C52.6169 117.786 52.5395 117.292 52.5395 116.759ZM53.8041 116.602V116.759C53.8041 117.128 53.8474 117.477 53.934 117.805C54.0206 118.128 54.1505 118.415 54.3236 118.666C54.5014 118.917 54.7224 119.115 54.9867 119.261C55.251 119.402 55.5587 119.473 55.9096 119.473C56.2559 119.473 56.559 119.402 56.8187 119.261C57.0831 119.115 57.3018 118.917 57.475 118.666C57.6482 118.415 57.7781 118.128 57.8646 117.805C57.9558 117.477 58.0014 117.128 58.0014 116.759V116.602C58.0014 116.237 57.9558 115.893 57.8646 115.569C57.7781 115.241 57.6459 114.952 57.4682 114.701C57.295 114.446 57.0762 114.245 56.8119 114.1C56.5521 113.954 56.2468 113.881 55.8959 113.881C55.5495 113.881 55.2442 113.954 54.9799 114.1C54.7201 114.245 54.5014 114.446 54.3236 114.701C54.1505 114.952 54.0206 115.241 53.934 115.569C53.8474 115.893 53.8041 116.237 53.8041 116.602ZM62.1166 114.448V120.375H60.8451V112.979H62.0482L62.1166 114.448ZM61.8568 116.396L61.2689 116.376C61.2735 115.87 61.3396 115.403 61.4672 114.975C61.5948 114.542 61.7839 114.166 62.0346 113.847C62.2852 113.528 62.5974 113.282 62.9711 113.108C63.3448 112.931 63.7777 112.842 64.2699 112.842C64.6163 112.842 64.9353 112.892 65.227 112.992C65.5186 113.088 65.7715 113.241 65.9857 113.45C66.1999 113.66 66.3663 113.929 66.4848 114.257C66.6033 114.585 66.6625 114.981 66.6625 115.446V120.375H65.3979V115.508C65.3979 115.12 65.3318 114.811 65.1996 114.578C65.072 114.346 64.8897 114.177 64.6527 114.072C64.4158 113.963 64.1378 113.908 63.8187 113.908C63.4451 113.908 63.1329 113.974 62.8822 114.106C62.6316 114.239 62.4311 114.421 62.2807 114.653C62.1303 114.886 62.0209 115.152 61.9525 115.453C61.8887 115.749 61.8568 116.064 61.8568 116.396ZM66.6488 115.699L65.8012 115.959C65.8057 115.553 65.8718 115.164 65.9994 114.79C66.1316 114.416 66.3207 114.084 66.5668 113.792C66.8174 113.5 67.1251 113.27 67.4896 113.102C67.8542 112.928 68.2712 112.842 68.7406 112.842C69.1371 112.842 69.488 112.894 69.7934 112.999C70.1033 113.104 70.363 113.266 70.5727 113.484C70.7868 113.699 70.9486 113.974 71.058 114.312C71.1674 114.649 71.2221 115.05 71.2221 115.515V120.375H69.9506V115.501C69.9506 115.086 69.8845 114.765 69.7523 114.537C69.6247 114.305 69.4424 114.143 69.2055 114.052C68.973 113.956 68.6951 113.908 68.3715 113.908C68.0935 113.908 67.8474 113.956 67.6332 114.052C67.419 114.147 67.239 114.28 67.0932 114.448C66.9473 114.612 66.8357 114.801 66.7582 115.016C66.6853 115.23 66.6488 115.458 66.6488 115.699ZM74.4008 114.4V123.219H73.1293V112.979H74.2914L74.4008 114.4ZM79.3842 116.615V116.759C79.3842 117.297 79.3204 117.796 79.1928 118.256C79.0652 118.712 78.8783 119.108 78.6322 119.445C78.3907 119.783 78.0922 120.045 77.7367 120.231C77.3812 120.418 76.9734 120.512 76.5131 120.512C76.0437 120.512 75.629 120.434 75.2689 120.279C74.9089 120.124 74.6036 119.899 74.3529 119.603C74.1023 119.306 73.9018 118.951 73.7514 118.536C73.6055 118.121 73.5053 117.654 73.4506 117.135V116.369C73.5053 115.822 73.6078 115.332 73.7582 114.899C73.9086 114.466 74.1068 114.097 74.3529 113.792C74.6036 113.482 74.9066 113.247 75.2621 113.088C75.6176 112.924 76.0277 112.842 76.4926 112.842C76.9574 112.842 77.3699 112.933 77.7299 113.115C78.0899 113.293 78.393 113.548 78.6391 113.881C78.8852 114.214 79.0697 114.612 79.1928 115.077C79.3204 115.537 79.3842 116.05 79.3842 116.615ZM78.1127 116.759V116.615C78.1127 116.246 78.074 115.9 77.9965 115.576C77.919 115.248 77.7982 114.961 77.6342 114.715C77.4747 114.464 77.2696 114.268 77.0189 114.127C76.7683 113.981 76.4698 113.908 76.1234 113.908C75.8044 113.908 75.5264 113.963 75.2895 114.072C75.057 114.182 74.8588 114.33 74.6947 114.517C74.5307 114.699 74.3962 114.909 74.2914 115.146C74.1911 115.378 74.1159 115.619 74.0658 115.87V117.641C74.157 117.96 74.2846 118.26 74.4486 118.543C74.6127 118.821 74.8314 119.047 75.1049 119.22C75.3783 119.388 75.7224 119.473 76.1371 119.473C76.4789 119.473 76.7729 119.402 77.0189 119.261C77.2696 119.115 77.4747 118.917 77.6342 118.666C77.7982 118.415 77.919 118.128 77.9965 117.805C78.074 117.477 78.1127 117.128 78.1127 116.759ZM85.5229 118.666V112.979H86.7943V120.375H85.5844L85.5229 118.666ZM85.7621 117.107L86.2885 117.094C86.2885 117.586 86.2361 118.042 86.1312 118.461C86.031 118.876 85.8669 119.236 85.6391 119.541C85.4112 119.846 85.1127 120.086 84.7436 120.259C84.3744 120.427 83.9255 120.512 83.3969 120.512C83.0368 120.512 82.7064 120.459 82.4057 120.354C82.1094 120.25 81.8542 120.088 81.64 119.869C81.4258 119.65 81.2595 119.366 81.141 119.015C81.0271 118.664 80.9701 118.242 80.9701 117.75V112.979H82.2348V117.764C82.2348 118.096 82.2712 118.372 82.3441 118.591C82.4216 118.805 82.5242 118.976 82.6518 119.104C82.7839 119.227 82.9298 119.313 83.0893 119.363C83.2533 119.413 83.4219 119.438 83.5951 119.438C84.1329 119.438 84.559 119.336 84.8734 119.131C85.1879 118.921 85.4135 118.641 85.5502 118.29C85.6915 117.935 85.7621 117.54 85.7621 117.107ZM91.8187 112.979V113.949H87.8197V112.979H91.8187ZM89.1732 111.181H90.4379V118.543C90.4379 118.794 90.4766 118.983 90.5541 119.11C90.6316 119.238 90.7318 119.322 90.8549 119.363C90.9779 119.404 91.1101 119.425 91.2514 119.425C91.3562 119.425 91.4656 119.416 91.5795 119.397C91.698 119.375 91.7868 119.356 91.8461 119.343L91.8529 120.375C91.7527 120.407 91.6205 120.437 91.4564 120.464C91.2969 120.496 91.1033 120.512 90.8754 120.512C90.5655 120.512 90.2807 120.45 90.0209 120.327C89.7611 120.204 89.5538 119.999 89.3988 119.712C89.2484 119.42 89.1732 119.028 89.1732 118.536V111.181ZM97.6635 119.11V115.303C97.6635 115.011 97.6042 114.758 97.4857 114.544C97.3718 114.325 97.1986 114.157 96.9662 114.038C96.7338 113.92 96.4467 113.86 96.1049 113.86C95.7859 113.86 95.5056 113.915 95.2641 114.024C95.0271 114.134 94.8402 114.277 94.7035 114.455C94.5714 114.633 94.5053 114.824 94.5053 115.029H93.2406C93.2406 114.765 93.309 114.503 93.4457 114.243C93.5824 113.983 93.7784 113.749 94.0336 113.539C94.2934 113.325 94.6033 113.156 94.9633 113.033C95.3279 112.906 95.7335 112.842 96.1801 112.842C96.7178 112.842 97.1918 112.933 97.602 113.115C98.0167 113.298 98.3402 113.573 98.5727 113.942C98.8096 114.307 98.9281 114.765 98.9281 115.316V118.762C98.9281 119.008 98.9486 119.27 98.9896 119.548C99.0352 119.826 99.1013 120.065 99.1879 120.266V120.375H97.8686C97.8048 120.229 97.7546 120.035 97.7182 119.794C97.6817 119.548 97.6635 119.32 97.6635 119.11ZM97.8822 115.891L97.8959 116.779H96.6176C96.2576 116.779 95.9363 116.809 95.6537 116.868C95.3712 116.923 95.1342 117.007 94.9428 117.121C94.7514 117.235 94.6055 117.379 94.5053 117.552C94.405 117.72 94.3549 117.919 94.3549 118.146C94.3549 118.379 94.4073 118.591 94.5121 118.782C94.6169 118.974 94.7742 119.126 94.9838 119.24C95.198 119.35 95.46 119.404 95.7699 119.404C96.1573 119.404 96.4991 119.322 96.7953 119.158C97.0915 118.994 97.3262 118.794 97.4994 118.557C97.6771 118.32 97.7729 118.09 97.7865 117.866L98.3266 118.475C98.2947 118.666 98.2081 118.878 98.0668 119.11C97.9255 119.343 97.7364 119.566 97.4994 119.78C97.267 119.99 96.989 120.165 96.6654 120.307C96.3464 120.443 95.9864 120.512 95.5854 120.512C95.084 120.512 94.6443 120.414 94.266 120.218C93.8923 120.022 93.6006 119.76 93.391 119.432C93.1859 119.099 93.0834 118.728 93.0834 118.317C93.0834 117.921 93.1609 117.572 93.3158 117.271C93.4708 116.966 93.6941 116.713 93.9857 116.513C94.2774 116.308 94.6283 116.153 95.0385 116.048C95.4486 115.943 95.9066 115.891 96.4125 115.891H97.8822ZM103.877 119.473C104.178 119.473 104.456 119.411 104.711 119.288C104.967 119.165 105.176 118.996 105.34 118.782C105.504 118.563 105.598 118.315 105.621 118.037H106.824C106.801 118.475 106.653 118.882 106.379 119.261C106.11 119.634 105.757 119.938 105.32 120.17C104.882 120.398 104.401 120.512 103.877 120.512C103.321 120.512 102.836 120.414 102.421 120.218C102.011 120.022 101.669 119.753 101.396 119.411C101.127 119.069 100.924 118.677 100.787 118.235C100.655 117.789 100.589 117.317 100.589 116.82V116.533C100.589 116.036 100.655 115.567 100.787 115.125C100.924 114.678 101.127 114.284 101.396 113.942C101.669 113.601 102.011 113.332 102.421 113.136C102.836 112.94 103.321 112.842 103.877 112.842C104.456 112.842 104.962 112.96 105.395 113.197C105.828 113.43 106.167 113.749 106.413 114.154C106.664 114.555 106.801 115.011 106.824 115.521H105.621C105.598 115.216 105.511 114.94 105.361 114.694C105.215 114.448 105.014 114.252 104.759 114.106C104.509 113.956 104.215 113.881 103.877 113.881C103.49 113.881 103.164 113.958 102.9 114.113C102.64 114.264 102.433 114.469 102.278 114.729C102.127 114.984 102.018 115.269 101.95 115.583C101.886 115.893 101.854 116.21 101.854 116.533V116.82C101.854 117.144 101.886 117.463 101.95 117.777C102.013 118.092 102.121 118.377 102.271 118.632C102.426 118.887 102.633 119.092 102.893 119.247C103.157 119.397 103.485 119.473 103.877 119.473ZM109.62 112.979V120.375H108.348V112.979H109.62ZM108.252 111.017C108.252 110.812 108.314 110.638 108.437 110.497C108.565 110.356 108.751 110.285 108.997 110.285C109.239 110.285 109.424 110.356 109.551 110.497C109.683 110.638 109.749 110.812 109.749 111.017C109.749 111.213 109.683 111.381 109.551 111.522C109.424 111.659 109.239 111.728 108.997 111.728C108.751 111.728 108.565 111.659 108.437 111.522C108.314 111.381 108.252 111.213 108.252 111.017ZM111.315 116.759V116.602C111.315 116.068 111.392 115.574 111.547 115.118C111.702 114.658 111.926 114.259 112.217 113.922C112.509 113.58 112.862 113.316 113.277 113.129C113.691 112.938 114.156 112.842 114.671 112.842C115.191 112.842 115.658 112.938 116.073 113.129C116.492 113.316 116.847 113.58 117.139 113.922C117.435 114.259 117.661 114.658 117.816 115.118C117.971 115.574 118.048 116.068 118.048 116.602V116.759C118.048 117.292 117.971 117.786 117.816 118.242C117.661 118.698 117.435 119.097 117.139 119.438C116.847 119.776 116.494 120.04 116.079 120.231C115.669 120.418 115.204 120.512 114.685 120.512C114.165 120.512 113.698 120.418 113.284 120.231C112.869 120.04 112.513 119.776 112.217 119.438C111.926 119.097 111.702 118.698 111.547 118.242C111.392 117.786 111.315 117.292 111.315 116.759ZM112.579 116.602V116.759C112.579 117.128 112.623 117.477 112.709 117.805C112.796 118.128 112.926 118.415 113.099 118.666C113.277 118.917 113.498 119.115 113.762 119.261C114.026 119.402 114.334 119.473 114.685 119.473C115.031 119.473 115.334 119.402 115.594 119.261C115.858 119.115 116.077 118.917 116.25 118.666C116.424 118.415 116.553 118.128 116.64 117.805C116.731 117.477 116.777 117.128 116.777 116.759V116.602C116.777 116.237 116.731 115.893 116.64 115.569C116.553 115.241 116.421 114.952 116.244 114.701C116.07 114.446 115.852 114.245 115.587 114.1C115.328 113.954 115.022 113.881 114.671 113.881C114.325 113.881 114.02 113.954 113.755 114.1C113.496 114.245 113.277 114.446 113.099 114.701C112.926 114.952 112.796 115.241 112.709 115.569C112.623 115.893 112.579 116.237 112.579 116.602ZM113.919 111.885L115.246 109.875H116.77L114.938 111.885H113.919ZM120.899 114.558V120.375H119.634V112.979H120.83L120.899 114.558ZM120.598 116.396L120.072 116.376C120.076 115.87 120.151 115.403 120.297 114.975C120.443 114.542 120.648 114.166 120.912 113.847C121.177 113.528 121.491 113.282 121.856 113.108C122.225 112.931 122.633 112.842 123.079 112.842C123.444 112.842 123.772 112.892 124.064 112.992C124.356 113.088 124.604 113.243 124.809 113.457C125.019 113.671 125.178 113.949 125.287 114.291C125.397 114.628 125.452 115.041 125.452 115.528V120.375H124.18V115.515C124.18 115.127 124.123 114.817 124.009 114.585C123.895 114.348 123.729 114.177 123.51 114.072C123.291 113.963 123.023 113.908 122.704 113.908C122.389 113.908 122.102 113.974 121.842 114.106C121.587 114.239 121.366 114.421 121.179 114.653C120.997 114.886 120.853 115.152 120.748 115.453C120.648 115.749 120.598 116.064 120.598 116.396Z" fill="#333333"/>
<path d="M170 170.375V171.375H171V170.375H170ZM169 0.375V170.375H171V0.375H169ZM170 169.375H0V171.375H170V169.375Z" fill="#EAE6E6" mask="url(#path-1-inside-1_1_463)"/>
<defs>
<clipPath id="clip0_1_463">
<rect width="48" height="48" fill="white" transform="translate(62.5 46.375)"/>
</clipPath>
</defs>
</svg>
