<svg width="170" height="171" viewBox="0 0 170 171" fill="none" xmlns="http://www.w3.org/2000/svg">
<mask id="path-1-inside-1_1_555" fill="white">
<path d="M0 0.375H170V170.375H0V0.375Z"/>
</mask>
<path d="M0 0.375H170V170.375H0V0.375Z" fill="white"/>
<g clip-path="url(#clip0_1_555)">
<path d="M101 76.375C101.828 76.375 102.5 75.7034 102.5 74.875C102.5 74.0466 101.828 73.375 101 73.375C100.172 73.375 99.5 74.0466 99.5 74.875C99.5 75.7034 100.172 76.375 101 76.375Z" fill="#3483FA"/>
<path d="M97 80.375C97.8284 80.375 98.5 79.7034 98.5 78.875C98.5 78.0466 97.8284 77.375 97 77.375C96.1716 77.375 95.5 78.0466 95.5 78.875C95.5 79.7034 96.1716 80.375 97 80.375Z" fill="#3483FA"/>
<path d="M98.5 66.375H74.5C68.977 66.375 64.5 70.852 64.5 76.375C64.5 81.898 68.977 86.375 74.5 86.375C78.598 86.375 82.111 83.904 83.656 80.375H89.344C90.888 83.904 94.401 86.375 98.5 86.375C104.023 86.375 108.5 81.898 108.5 76.375C108.5 70.852 104.023 66.375 98.5 66.375Z" stroke="#3483FA" stroke-miterlimit="10" stroke-linecap="square"/>
<path d="M74.5 72.375V80.375" stroke="#3483FA" stroke-miterlimit="10" stroke-linecap="square"/>
<path d="M70.5 76.375H78.5" stroke="#3483FA" stroke-miterlimit="10" stroke-linecap="square"/>
<path d="M86.5 60.375V48.375" stroke="#3483FA" stroke-miterlimit="10" stroke-linecap="square"/>
</g>
<path d="M55.6254 118.984H57.0316C56.9584 119.658 56.7655 120.261 56.453 120.793C56.1405 121.325 55.6986 121.748 55.1273 122.06C54.5561 122.368 53.8432 122.521 52.9887 122.521C52.3637 122.521 51.7948 122.404 51.2821 122.17C50.7743 121.936 50.3373 121.604 49.9711 121.174C49.6049 120.739 49.3217 120.219 49.1215 119.614C48.9262 119.003 48.8285 118.325 48.8285 117.578V116.516C48.8285 115.769 48.9262 115.092 49.1215 114.487C49.3217 113.876 49.6073 113.354 49.9784 112.919C50.3544 112.485 50.8061 112.15 51.3334 111.916C51.8607 111.682 52.454 111.564 53.1132 111.564C53.9188 111.564 54.6 111.716 55.1566 112.019C55.7133 112.321 56.1454 112.741 56.453 113.278C56.7655 113.811 56.9584 114.428 57.0316 115.131H55.6254C55.557 114.633 55.4301 114.206 55.2445 113.85C55.059 113.488 54.7953 113.21 54.4535 113.015C54.1117 112.819 53.6649 112.722 53.1132 112.722C52.6395 112.722 52.2221 112.812 51.8607 112.993C51.5043 113.173 51.204 113.43 50.9599 113.762C50.7206 114.094 50.5399 114.492 50.4179 114.956C50.2958 115.419 50.2348 115.935 50.2348 116.501V117.578C50.2348 118.1 50.2885 118.591 50.3959 119.05C50.5082 119.509 50.6767 119.912 50.9013 120.258C51.1259 120.605 51.4115 120.878 51.7582 121.079C52.1049 121.274 52.515 121.372 52.9887 121.372C53.5893 121.372 54.0678 121.276 54.4242 121.086C54.7807 120.896 55.0492 120.622 55.2299 120.266C55.4154 119.909 55.5473 119.482 55.6254 118.984ZM58.3939 118.5V118.332C58.3939 117.761 58.477 117.231 58.643 116.743C58.809 116.25 59.0482 115.822 59.3607 115.461C59.6732 115.095 60.0517 114.812 60.496 114.611C60.9403 114.406 61.4384 114.304 61.9901 114.304C62.5468 114.304 63.0473 114.406 63.4916 114.611C63.9408 114.812 64.3217 115.095 64.6342 115.461C64.9516 115.822 65.1933 116.25 65.3593 116.743C65.5253 117.231 65.6083 117.761 65.6083 118.332V118.5C65.6083 119.072 65.5253 119.602 65.3593 120.09C65.1933 120.578 64.9516 121.005 64.6342 121.372C64.3217 121.733 63.9433 122.016 63.4989 122.221C63.0595 122.421 62.5614 122.521 62.0048 122.521C61.4481 122.521 60.9477 122.421 60.5033 122.221C60.059 122.016 59.6781 121.733 59.3607 121.372C59.0482 121.005 58.809 120.578 58.643 120.09C58.477 119.602 58.3939 119.072 58.3939 118.5ZM59.7489 118.332V118.5C59.7489 118.896 59.7953 119.27 59.8881 119.621C59.9809 119.968 60.12 120.275 60.3056 120.544C60.496 120.812 60.7328 121.025 61.016 121.181C61.2992 121.333 61.6288 121.408 62.0048 121.408C62.3759 121.408 62.7006 121.333 62.9789 121.181C63.2621 121.025 63.4965 120.812 63.682 120.544C63.8676 120.275 64.0067 119.968 64.0995 119.621C64.1972 119.27 64.246 118.896 64.246 118.5V118.332C64.246 117.941 64.1972 117.573 64.0995 117.226C64.0067 116.875 63.8651 116.564 63.6747 116.296C63.4892 116.022 63.2548 115.808 62.9716 115.651C62.6933 115.495 62.3661 115.417 61.9901 115.417C61.619 115.417 61.2919 115.495 61.0087 115.651C60.7304 115.808 60.496 116.022 60.3056 116.296C60.12 116.564 59.9809 116.875 59.8881 117.226C59.7953 117.573 59.7489 117.941 59.7489 118.332ZM68.6625 116.142V122.375H67.3075V114.45H68.5893L68.6625 116.142ZM68.3402 118.112L67.7763 118.09C67.7812 117.548 67.8617 117.048 68.018 116.589C68.1742 116.125 68.3939 115.722 68.6771 115.38C68.9604 115.039 69.2973 114.775 69.6879 114.589C70.0834 114.399 70.5204 114.304 70.9989 114.304C71.3895 114.304 71.7411 114.357 72.0536 114.465C72.3661 114.567 72.6322 114.733 72.852 114.963C73.0766 115.192 73.2475 115.49 73.3646 115.856C73.4818 116.218 73.5404 116.66 73.5404 117.182V122.375H72.1781V117.167C72.1781 116.752 72.1171 116.42 71.995 116.171C71.8729 115.917 71.6947 115.734 71.4604 115.622C71.226 115.505 70.9379 115.446 70.5961 115.446C70.2592 115.446 69.9516 115.517 69.6732 115.659C69.3998 115.8 69.163 115.996 68.9628 116.245C68.7675 116.494 68.6137 116.779 68.5014 117.102C68.3939 117.419 68.3402 117.756 68.3402 118.112ZM80.2128 120.273C80.2128 120.078 80.1688 119.897 80.081 119.731C79.9979 119.56 79.8246 119.406 79.5609 119.27C79.3021 119.128 78.9115 119.006 78.3891 118.903C77.9496 118.811 77.5517 118.701 77.1952 118.574C76.8437 118.447 76.5434 118.293 76.2943 118.112C76.0502 117.932 75.8622 117.719 75.7304 117.475C75.5985 117.231 75.5326 116.945 75.5326 116.618C75.5326 116.306 75.601 116.01 75.7377 115.732C75.8793 115.454 76.077 115.207 76.331 114.992C76.5897 114.777 76.8998 114.609 77.2611 114.487C77.6225 114.365 78.0253 114.304 78.4696 114.304C79.1044 114.304 79.6464 114.416 80.0956 114.641C80.5448 114.865 80.8891 115.166 81.1283 115.542C81.3676 115.913 81.4872 116.325 81.4872 116.779H80.1322C80.1322 116.56 80.0663 116.347 79.9345 116.142C79.8075 115.932 79.6195 115.759 79.3705 115.622C79.1264 115.485 78.8261 115.417 78.4696 115.417C78.0937 115.417 77.7885 115.476 77.5541 115.593C77.3246 115.705 77.1562 115.849 77.0487 116.025C76.9462 116.201 76.8949 116.386 76.8949 116.582C76.8949 116.728 76.9193 116.86 76.9682 116.977C77.0219 117.089 77.1146 117.194 77.2465 117.292C77.3783 117.385 77.5639 117.473 77.8031 117.556C78.0424 117.639 78.3476 117.722 78.7187 117.805C79.3681 117.951 79.9027 118.127 80.3227 118.332C80.7426 118.537 81.0551 118.789 81.2602 119.086C81.4652 119.384 81.5678 119.746 81.5678 120.17C81.5678 120.517 81.4945 120.834 81.348 121.123C81.2064 121.411 80.9989 121.66 80.7255 121.87C80.4569 122.075 80.1347 122.236 79.7587 122.353C79.3876 122.465 78.9701 122.521 78.5062 122.521C77.808 122.521 77.2172 122.397 76.7338 122.148C76.2504 121.899 75.8842 121.577 75.6352 121.181C75.3861 120.786 75.2616 120.368 75.2616 119.929H76.6239C76.6435 120.3 76.7509 120.595 76.9462 120.815C77.1415 121.03 77.3808 121.184 77.664 121.276C77.9472 121.364 78.2279 121.408 78.5062 121.408C78.8773 121.408 79.1874 121.359 79.4364 121.262C79.6903 121.164 79.8832 121.03 80.015 120.859C80.1469 120.688 80.2128 120.493 80.2128 120.273ZM82.9887 118.5V118.332C82.9887 117.761 83.0717 117.231 83.2377 116.743C83.4037 116.25 83.643 115.822 83.9555 115.461C84.268 115.095 84.6464 114.812 85.0907 114.611C85.5351 114.406 86.0331 114.304 86.5849 114.304C87.1415 114.304 87.642 114.406 88.0863 114.611C88.5355 114.812 88.9164 115.095 89.2289 115.461C89.5463 115.822 89.788 116.25 89.954 116.743C90.12 117.231 90.203 117.761 90.203 118.332V118.5C90.203 119.072 90.12 119.602 89.954 120.09C89.788 120.578 89.5463 121.005 89.2289 121.372C88.9164 121.733 88.538 122.016 88.0937 122.221C87.6542 122.421 87.1562 122.521 86.5995 122.521C86.0429 122.521 85.5424 122.421 85.098 122.221C84.6537 122.016 84.2729 121.733 83.9555 121.372C83.643 121.005 83.4037 120.578 83.2377 120.09C83.0717 119.602 82.9887 119.072 82.9887 118.5ZM84.3437 118.332V118.5C84.3437 118.896 84.39 119.27 84.4828 119.621C84.5756 119.968 84.7147 120.275 84.9003 120.544C85.0907 120.812 85.3275 121.025 85.6107 121.181C85.8939 121.333 86.2235 121.408 86.5995 121.408C86.9706 121.408 87.2953 121.333 87.5736 121.181C87.8568 121.025 88.0912 120.812 88.2768 120.544C88.4623 120.275 88.6015 119.968 88.6942 119.621C88.7919 119.27 88.8407 118.896 88.8407 118.5V118.332C88.8407 117.941 88.7919 117.573 88.6942 117.226C88.6015 116.875 88.4599 116.564 88.2694 116.296C88.0839 116.022 87.8495 115.808 87.5663 115.651C87.288 115.495 86.9608 115.417 86.5849 115.417C86.2138 115.417 85.8866 115.495 85.6034 115.651C85.3251 115.808 85.0907 116.022 84.9003 116.296C84.7147 116.564 84.5756 116.875 84.4828 117.226C84.39 117.573 84.3437 117.941 84.3437 118.332ZM93.3744 111.125V122.375H92.0121V111.125H93.3744ZM100.223 121.02V116.94C100.223 116.628 100.159 116.357 100.032 116.127C99.9101 115.893 99.7245 115.712 99.4755 115.585C99.2265 115.458 98.9188 115.395 98.5526 115.395C98.2108 115.395 97.9105 115.454 97.6518 115.571C97.3979 115.688 97.1977 115.842 97.0512 116.032C96.9096 116.223 96.8388 116.428 96.8388 116.647H95.4838C95.4838 116.364 95.557 116.083 95.7035 115.805C95.85 115.527 96.06 115.275 96.3334 115.051C96.6117 114.821 96.9437 114.641 97.3295 114.509C97.7201 114.372 98.1547 114.304 98.6332 114.304C99.2094 114.304 99.7172 114.401 100.157 114.597C100.601 114.792 100.948 115.087 101.197 115.483C101.451 115.874 101.578 116.364 101.578 116.955V120.646C101.578 120.91 101.6 121.191 101.643 121.489C101.692 121.787 101.763 122.043 101.856 122.258V122.375H100.442C100.374 122.219 100.32 122.011 100.281 121.752C100.242 121.489 100.223 121.245 100.223 121.02ZM100.457 117.57L100.472 118.522H99.102C98.7162 118.522 98.372 118.554 98.0692 118.618C97.7665 118.676 97.5126 118.767 97.3075 118.889C97.1024 119.011 96.9462 119.165 96.8388 119.35C96.7313 119.531 96.6776 119.743 96.6776 119.987C96.6776 120.236 96.7338 120.463 96.8461 120.668C96.9584 120.874 97.1269 121.037 97.3515 121.159C97.581 121.276 97.8617 121.335 98.1937 121.335C98.6088 121.335 98.975 121.247 99.2924 121.071C99.6098 120.896 99.8612 120.681 100.047 120.427C100.237 120.173 100.34 119.926 100.354 119.687L100.933 120.339C100.899 120.544 100.806 120.771 100.655 121.02C100.503 121.269 100.301 121.508 100.047 121.738C99.7978 121.962 99.4999 122.15 99.1532 122.302C98.8114 122.448 98.4257 122.521 97.996 122.521C97.4589 122.521 96.9877 122.417 96.5824 122.207C96.182 121.997 95.8695 121.716 95.6449 121.364C95.4252 121.008 95.3153 120.61 95.3153 120.17C95.3153 119.746 95.3983 119.372 95.5644 119.05C95.7304 118.723 95.9696 118.452 96.2821 118.237C96.5946 118.017 96.9706 117.851 97.4101 117.739C97.8495 117.626 98.3402 117.57 98.8822 117.57H100.457ZM108.323 120.273C108.323 120.078 108.279 119.897 108.191 119.731C108.108 119.56 107.935 119.406 107.671 119.27C107.412 119.128 107.022 119.006 106.499 118.903C106.06 118.811 105.662 118.701 105.306 118.574C104.954 118.447 104.654 118.293 104.405 118.112C104.161 117.932 103.973 117.719 103.841 117.475C103.709 117.231 103.643 116.945 103.643 116.618C103.643 116.306 103.711 116.01 103.848 115.732C103.99 115.454 104.187 115.207 104.441 114.992C104.7 114.777 105.01 114.609 105.371 114.487C105.733 114.365 106.136 114.304 106.58 114.304C107.215 114.304 107.757 114.416 108.206 114.641C108.655 114.865 108.999 115.166 109.239 115.542C109.478 115.913 109.598 116.325 109.598 116.779H108.243C108.243 116.56 108.177 116.347 108.045 116.142C107.918 115.932 107.73 115.759 107.481 115.622C107.237 115.485 106.936 115.417 106.58 115.417C106.204 115.417 105.899 115.476 105.664 115.593C105.435 115.705 105.267 115.849 105.159 116.025C105.057 116.201 105.005 116.386 105.005 116.582C105.005 116.728 105.03 116.86 105.079 116.977C105.132 117.089 105.225 117.194 105.357 117.292C105.489 117.385 105.674 117.473 105.913 117.556C106.153 117.639 106.458 117.722 106.829 117.805C107.478 117.951 108.013 118.127 108.433 118.332C108.853 118.537 109.165 118.789 109.371 119.086C109.576 119.384 109.678 119.746 109.678 120.17C109.678 120.517 109.605 120.834 109.458 121.123C109.317 121.411 109.109 121.66 108.836 121.87C108.567 122.075 108.245 122.236 107.869 122.353C107.498 122.465 107.08 122.521 106.617 122.521C105.918 122.521 105.328 122.397 104.844 122.148C104.361 121.899 103.995 121.577 103.746 121.181C103.496 120.786 103.372 120.368 103.372 119.929H104.734C104.754 120.3 104.861 120.595 105.057 120.815C105.252 121.03 105.491 121.184 105.774 121.276C106.058 121.364 106.338 121.408 106.617 121.408C106.988 121.408 107.298 121.359 107.547 121.262C107.801 121.164 107.994 121.03 108.125 120.859C108.257 120.688 108.323 120.493 108.323 120.273ZM117.405 121.555L119.61 114.45H121.06L117.881 123.598C117.808 123.793 117.71 124.003 117.588 124.228C117.471 124.458 117.32 124.675 117.134 124.88C116.949 125.085 116.724 125.251 116.46 125.378C116.202 125.51 115.892 125.576 115.53 125.576C115.423 125.576 115.286 125.561 115.12 125.532C114.954 125.502 114.837 125.478 114.768 125.458L114.761 124.36C114.8 124.365 114.861 124.37 114.944 124.375C115.032 124.384 115.093 124.389 115.127 124.389C115.435 124.389 115.696 124.348 115.911 124.265C116.126 124.187 116.307 124.052 116.453 123.862C116.604 123.676 116.734 123.42 116.841 123.093L117.405 121.555ZM115.787 114.45L117.845 120.603L118.196 122.031L117.222 122.529L114.307 114.45H115.787ZM47.9203 138.756L51.0624 129.711H52.5932L48.6454 140.375H47.5541L47.9203 138.756ZM44.9833 129.711L48.0961 138.756L48.4843 140.375H47.393L43.4525 129.711H44.9833ZM55.2958 132.45V140.375H53.9335V132.45H55.2958ZM53.831 130.348C53.831 130.128 53.8969 129.943 54.0287 129.792C54.1654 129.64 54.3656 129.564 54.6293 129.564C54.8881 129.564 55.0858 129.64 55.2226 129.792C55.3642 129.943 55.435 130.128 55.435 130.348C55.435 130.558 55.3642 130.739 55.2226 130.89C55.0858 131.037 54.8881 131.11 54.6293 131.11C54.3656 131.11 54.1654 131.037 54.0287 130.89C53.8969 130.739 53.831 130.558 53.831 130.348ZM62.4662 138.837V129.125H63.8285V140.375H62.5834L62.4662 138.837ZM57.1342 136.5V136.347C57.1342 135.741 57.2074 135.192 57.3539 134.699C57.5053 134.201 57.7177 133.773 57.9911 133.417C58.2694 133.061 58.599 132.787 58.9799 132.597C59.3656 132.401 59.7953 132.304 60.2689 132.304C60.767 132.304 61.2016 132.392 61.5727 132.567C61.9486 132.738 62.266 132.99 62.5248 133.322C62.7885 133.649 62.996 134.044 63.1474 134.508C63.2987 134.972 63.4037 135.497 63.4623 136.083V136.757C63.4086 137.338 63.3036 137.86 63.1474 138.324C62.996 138.788 62.7885 139.184 62.5248 139.511C62.266 139.838 61.9486 140.089 61.5727 140.265C61.1967 140.436 60.7572 140.521 60.2543 140.521C59.7904 140.521 59.3656 140.421 58.9799 140.221C58.599 140.021 58.2694 139.74 57.9911 139.379C57.7177 139.018 57.5053 138.593 57.3539 138.104C57.2074 137.611 57.1342 137.077 57.1342 136.5ZM58.4965 136.347V136.5C58.4965 136.896 58.5355 137.267 58.6137 137.614C58.6967 137.96 58.8236 138.266 58.9945 138.529C59.1654 138.793 59.3827 139 59.6464 139.152C59.9101 139.298 60.225 139.372 60.5912 139.372C61.0404 139.372 61.4091 139.276 61.6972 139.086C61.9901 138.896 62.2245 138.644 62.4003 138.332C62.5761 138.019 62.7128 137.68 62.8104 137.313V135.548C62.7519 135.28 62.6664 135.021 62.5541 134.772C62.4467 134.518 62.3051 134.293 62.1293 134.098C61.9584 133.898 61.746 133.739 61.4921 133.622C61.2431 133.505 60.9477 133.446 60.6059 133.446C60.2348 133.446 59.9149 133.524 59.6464 133.681C59.3827 133.832 59.1654 134.042 58.9945 134.311C58.8236 134.574 58.6967 134.882 58.6137 135.233C58.5355 135.58 58.4965 135.951 58.4965 136.347ZM69.2265 140.521C68.6747 140.521 68.1742 140.429 67.725 140.243C67.2807 140.053 66.8974 139.787 66.5751 139.445C66.2577 139.103 66.0136 138.698 65.8427 138.229C65.6718 137.76 65.5863 137.248 65.5863 136.691V136.383C65.5863 135.739 65.6815 135.165 65.872 134.662C66.0624 134.154 66.3212 133.725 66.6483 133.373C66.9755 133.021 67.3466 132.755 67.7616 132.575C68.1767 132.394 68.6063 132.304 69.0507 132.304C69.6171 132.304 70.1054 132.401 70.5155 132.597C70.9306 132.792 71.2699 133.065 71.5336 133.417C71.7973 133.764 71.9926 134.174 72.1195 134.647C72.2465 135.116 72.31 135.629 72.31 136.186V136.793H66.392V135.688H70.955V135.585C70.9354 135.233 70.8622 134.892 70.7353 134.56C70.6132 134.228 70.4179 133.954 70.1493 133.739C69.8808 133.524 69.5145 133.417 69.0507 133.417C68.7431 133.417 68.4599 133.483 68.2011 133.615C67.9423 133.742 67.7201 133.932 67.5346 134.186C67.349 134.44 67.205 134.75 67.1024 135.116C66.9999 135.482 66.9486 135.905 66.9486 136.383V136.691C66.9486 137.067 66.9999 137.421 67.1024 137.753C67.2099 138.08 67.3637 138.368 67.5639 138.617C67.7689 138.866 68.0155 139.062 68.3036 139.203C68.5966 139.345 68.9286 139.416 69.2997 139.416C69.7782 139.416 70.1835 139.318 70.5155 139.123C70.8476 138.927 71.1381 138.666 71.3871 138.339L72.2074 138.991C72.0365 139.25 71.8192 139.496 71.5556 139.73C71.2919 139.965 70.9672 140.155 70.5814 140.302C70.2006 140.448 69.7489 140.521 69.2265 140.521ZM73.5331 136.5V136.332C73.5331 135.761 73.6161 135.231 73.7821 134.743C73.9481 134.25 74.1874 133.822 74.4999 133.461C74.8124 133.095 75.1908 132.812 75.6352 132.611C76.0795 132.406 76.5775 132.304 77.1293 132.304C77.6859 132.304 78.1864 132.406 78.6308 132.611C79.08 132.812 79.4608 133.095 79.7733 133.461C80.0907 133.822 80.3324 134.25 80.4984 134.743C80.6645 135.231 80.7475 135.761 80.7475 136.332V136.5C80.7475 137.072 80.6645 137.602 80.4984 138.09C80.3324 138.578 80.0907 139.005 79.7733 139.372C79.4608 139.733 79.0824 140.016 78.6381 140.221C78.1986 140.421 77.7006 140.521 77.1439 140.521C76.5873 140.521 76.0868 140.421 75.6425 140.221C75.1981 140.016 74.8173 139.733 74.4999 139.372C74.1874 139.005 73.9481 138.578 73.7821 138.09C73.6161 137.602 73.5331 137.072 73.5331 136.5ZM74.8881 136.332V136.5C74.8881 136.896 74.9345 137.27 75.0272 137.621C75.12 137.968 75.2592 138.275 75.4447 138.544C75.6352 138.812 75.872 139.025 76.1552 139.181C76.4384 139.333 76.768 139.408 77.1439 139.408C77.515 139.408 77.8397 139.333 78.1181 139.181C78.4013 139.025 78.6356 138.812 78.8212 138.544C79.0067 138.275 79.1459 137.968 79.2387 137.621C79.3363 137.27 79.3852 136.896 79.3852 136.5V136.332C79.3852 135.941 79.3363 135.573 79.2387 135.226C79.1459 134.875 79.0043 134.564 78.8139 134.296C78.6283 134.022 78.3939 133.808 78.1107 133.651C77.8324 133.495 77.5053 133.417 77.1293 133.417C76.7582 133.417 76.4311 133.495 76.1479 133.651C75.8695 133.808 75.6352 134.022 75.4447 134.296C75.2592 134.564 75.12 134.875 75.0272 135.226C74.9345 135.573 74.8881 135.941 74.8881 136.332ZM82.4833 132.45H83.8456V141.32C83.8456 141.803 83.7675 142.213 83.6112 142.55C83.4599 142.887 83.2304 143.141 82.9228 143.312C82.62 143.488 82.2367 143.576 81.7729 143.576C81.6508 143.576 81.5092 143.563 81.348 143.539C81.182 143.515 81.0429 143.485 80.9306 143.451L80.9379 142.36C81.0307 142.379 81.1356 142.394 81.2528 142.404C81.37 142.418 81.4726 142.426 81.5604 142.426C81.7606 142.426 81.9291 142.389 82.0658 142.316C82.2025 142.243 82.3051 142.125 82.3734 141.964C82.4467 141.803 82.4833 141.588 82.4833 141.32V132.45ZM82.3441 130.348C82.3441 130.128 82.4125 129.943 82.5492 129.792C82.6859 129.64 82.8837 129.564 83.1425 129.564C83.4062 129.564 83.6063 129.64 83.7431 129.792C83.8798 129.943 83.9481 130.128 83.9481 130.348C83.9481 130.558 83.8798 130.739 83.7431 130.89C83.6063 131.037 83.4062 131.11 83.1425 131.11C82.8837 131.11 82.6859 131.037 82.5492 130.89C82.4125 130.739 82.3441 130.558 82.3441 130.348ZM90.8842 138.544V132.45H92.2465V140.375H90.9501L90.8842 138.544ZM91.1405 136.874L91.7045 136.859C91.7045 137.387 91.6483 137.875 91.536 138.324C91.4286 138.769 91.2528 139.154 91.0087 139.481C90.7645 139.809 90.4447 140.065 90.0492 140.25C89.6537 140.431 89.1728 140.521 88.6063 140.521C88.2206 140.521 87.8666 140.465 87.5443 140.353C87.227 140.241 86.9535 140.067 86.724 139.833C86.4945 139.599 86.3163 139.293 86.1894 138.917C86.0673 138.542 86.0062 138.09 86.0062 137.562V132.45H87.3612V137.577C87.3612 137.934 87.4003 138.229 87.4784 138.463C87.5614 138.693 87.6713 138.876 87.808 139.013C87.9496 139.145 88.1059 139.237 88.2768 139.291C88.4525 139.345 88.6332 139.372 88.8187 139.372C89.3949 139.372 89.8515 139.262 90.1884 139.042C90.5253 138.817 90.767 138.517 90.9135 138.141C91.0648 137.76 91.1405 137.338 91.1405 136.874ZM97.6005 140.521C97.0487 140.521 96.5482 140.429 96.099 140.243C95.6547 140.053 95.2714 139.787 94.9491 139.445C94.6317 139.103 94.3876 138.698 94.2167 138.229C94.0458 137.76 93.9604 137.248 93.9604 136.691V136.383C93.9604 135.739 94.0556 135.165 94.246 134.662C94.4364 134.154 94.6952 133.725 95.0224 133.373C95.3495 133.021 95.7206 132.755 96.1356 132.575C96.5507 132.394 96.9804 132.304 97.4247 132.304C97.9911 132.304 98.4794 132.401 98.8895 132.597C99.3046 132.792 99.6439 133.065 99.9076 133.417C100.171 133.764 100.367 134.174 100.494 134.647C100.621 135.116 100.684 135.629 100.684 136.186V136.793H94.766V135.688H99.329V135.585C99.3095 135.233 99.2362 134.892 99.1093 134.56C98.9872 134.228 98.7919 133.954 98.5233 133.739C98.2548 133.524 97.8886 133.417 97.4247 133.417C97.1171 133.417 96.8339 133.483 96.5751 133.615C96.3163 133.742 96.0941 133.932 95.9086 134.186C95.723 134.44 95.579 134.75 95.4765 135.116C95.3739 135.482 95.3227 135.905 95.3227 136.383V136.691C95.3227 137.067 95.3739 137.421 95.4765 137.753C95.5839 138.08 95.7377 138.368 95.9379 138.617C96.143 138.866 96.3895 139.062 96.6776 139.203C96.9706 139.345 97.3026 139.416 97.6737 139.416C98.1522 139.416 98.5575 139.318 98.8895 139.123C99.2216 138.927 99.5121 138.666 99.7611 138.339L100.581 138.991C100.411 139.25 100.193 139.496 99.9296 139.73C99.6659 139.965 99.3412 140.155 98.9555 140.302C98.5746 140.448 98.1229 140.521 97.6005 140.521ZM107.4 132.45H108.631V140.207C108.631 140.905 108.489 141.5 108.206 141.994C107.923 142.487 107.527 142.86 107.019 143.114C106.517 143.373 105.935 143.502 105.276 143.502C105.003 143.502 104.681 143.458 104.309 143.371C103.943 143.288 103.582 143.144 103.225 142.938C102.874 142.738 102.579 142.467 102.339 142.125L103.05 141.32C103.382 141.72 103.728 141.999 104.09 142.155C104.456 142.311 104.817 142.389 105.174 142.389C105.603 142.389 105.975 142.309 106.287 142.147C106.6 141.986 106.841 141.747 107.012 141.43C107.188 141.117 107.276 140.731 107.276 140.272V134.193L107.4 132.45ZM101.944 136.5V136.347C101.944 135.741 102.015 135.192 102.156 134.699C102.303 134.201 102.51 133.773 102.779 133.417C103.052 133.061 103.382 132.787 103.767 132.597C104.153 132.401 104.588 132.304 105.071 132.304C105.569 132.304 106.004 132.392 106.375 132.567C106.751 132.738 107.068 132.99 107.327 133.322C107.591 133.649 107.798 134.044 107.95 134.508C108.101 134.972 108.206 135.497 108.265 136.083V136.757C108.211 137.338 108.106 137.86 107.95 138.324C107.798 138.788 107.591 139.184 107.327 139.511C107.068 139.838 106.751 140.089 106.375 140.265C105.999 140.436 105.559 140.521 105.057 140.521C104.583 140.521 104.153 140.421 103.767 140.221C103.387 140.021 103.059 139.74 102.786 139.379C102.513 139.018 102.303 138.593 102.156 138.104C102.015 137.611 101.944 137.077 101.944 136.5ZM103.299 136.347V136.5C103.299 136.896 103.338 137.267 103.416 137.614C103.499 137.96 103.623 138.266 103.789 138.529C103.96 138.793 104.178 139 104.441 139.152C104.705 139.298 105.02 139.372 105.386 139.372C105.835 139.372 106.206 139.276 106.499 139.086C106.792 138.896 107.024 138.644 107.195 138.332C107.371 138.019 107.508 137.68 107.605 137.313V135.548C107.552 135.28 107.469 135.021 107.356 134.772C107.249 134.518 107.107 134.293 106.932 134.098C106.761 133.898 106.548 133.739 106.294 133.622C106.04 133.505 105.743 133.446 105.401 133.446C105.03 133.446 104.71 133.524 104.441 133.681C104.178 133.832 103.96 134.042 103.789 134.311C103.623 134.574 103.499 134.882 103.416 135.233C103.338 135.58 103.299 135.951 103.299 136.347ZM110.33 136.5V136.332C110.33 135.761 110.413 135.231 110.579 134.743C110.745 134.25 110.984 133.822 111.297 133.461C111.609 133.095 111.988 132.812 112.432 132.611C112.876 132.406 113.374 132.304 113.926 132.304C114.483 132.304 114.983 132.406 115.428 132.611C115.877 132.812 116.258 133.095 116.57 133.461C116.888 133.822 117.129 134.25 117.295 134.743C117.461 135.231 117.544 135.761 117.544 136.332V136.5C117.544 137.072 117.461 137.602 117.295 138.09C117.129 138.578 116.888 139.005 116.57 139.372C116.258 139.733 115.879 140.016 115.435 140.221C114.996 140.421 114.497 140.521 113.941 140.521C113.384 140.521 112.884 140.421 112.439 140.221C111.995 140.016 111.614 139.733 111.297 139.372C110.984 139.005 110.745 138.578 110.579 138.09C110.413 137.602 110.33 137.072 110.33 136.5ZM111.685 136.332V136.5C111.685 136.896 111.731 137.27 111.824 137.621C111.917 137.968 112.056 138.275 112.242 138.544C112.432 138.812 112.669 139.025 112.952 139.181C113.235 139.333 113.565 139.408 113.941 139.408C114.312 139.408 114.637 139.333 114.915 139.181C115.198 139.025 115.433 138.812 115.618 138.544C115.804 138.275 115.943 137.968 116.036 137.621C116.133 137.27 116.182 136.896 116.182 136.5V136.332C116.182 135.941 116.133 135.573 116.036 135.226C115.943 134.875 115.801 134.564 115.611 134.296C115.425 134.022 115.191 133.808 114.908 133.651C114.629 133.495 114.302 133.417 113.926 133.417C113.555 133.417 113.228 133.495 112.945 133.651C112.666 133.808 112.432 134.022 112.242 134.296C112.056 134.564 111.917 134.875 111.824 135.226C111.731 135.573 111.685 135.941 111.685 136.332ZM123.858 138.273C123.858 138.078 123.814 137.897 123.726 137.731C123.643 137.56 123.47 137.406 123.206 137.27C122.947 137.128 122.557 137.006 122.034 136.903C121.595 136.811 121.197 136.701 120.84 136.574C120.489 136.447 120.188 136.293 119.939 136.112C119.695 135.932 119.507 135.719 119.375 135.475C119.244 135.231 119.178 134.945 119.178 134.618C119.178 134.306 119.246 134.01 119.383 133.732C119.524 133.454 119.722 133.207 119.976 132.992C120.235 132.777 120.545 132.609 120.906 132.487C121.267 132.365 121.67 132.304 122.115 132.304C122.749 132.304 123.291 132.416 123.741 132.641C124.19 132.865 124.534 133.166 124.773 133.542C125.013 133.913 125.132 134.325 125.132 134.779H123.777C123.777 134.56 123.711 134.347 123.579 134.142C123.453 133.932 123.265 133.759 123.016 133.622C122.771 133.485 122.471 133.417 122.115 133.417C121.739 133.417 121.433 133.476 121.199 133.593C120.97 133.705 120.801 133.849 120.694 134.025C120.591 134.201 120.54 134.386 120.54 134.582C120.54 134.728 120.564 134.86 120.613 134.977C120.667 135.089 120.76 135.194 120.892 135.292C121.023 135.385 121.209 135.473 121.448 135.556C121.687 135.639 121.993 135.722 122.364 135.805C123.013 135.951 123.548 136.127 123.968 136.332C124.388 136.537 124.7 136.789 124.905 137.086C125.11 137.384 125.213 137.746 125.213 138.17C125.213 138.517 125.14 138.834 124.993 139.123C124.851 139.411 124.644 139.66 124.371 139.87C124.102 140.075 123.78 140.236 123.404 140.353C123.033 140.465 122.615 140.521 122.151 140.521C121.453 140.521 120.862 140.397 120.379 140.148C119.895 139.899 119.529 139.577 119.28 139.181C119.031 138.786 118.907 138.368 118.907 137.929H120.269C120.288 138.3 120.396 138.595 120.591 138.815C120.787 139.03 121.026 139.184 121.309 139.276C121.592 139.364 121.873 139.408 122.151 139.408C122.522 139.408 122.832 139.359 123.081 139.262C123.335 139.164 123.528 139.03 123.66 138.859C123.792 138.688 123.858 138.493 123.858 138.273Z" fill="#333333"/>
<path d="M170 170.375V171.375H171V170.375H170ZM169 0.375V170.375H171V0.375H169ZM170 169.375H0V171.375H170V169.375Z" fill="#EAE6E6" mask="url(#path-1-inside-1_1_555)"/>
<defs>
<clipPath id="clip0_1_555">
<rect width="48" height="48" fill="white" transform="translate(62.5 46.375)"/>
</clipPath>
</defs>
</svg>
