<svg width="170" height="171" viewBox="0 0 170 171" fill="none" xmlns="http://www.w3.org/2000/svg">
<mask id="path-1-inside-1_1_487" fill="white">
<path d="M0 0.375H170V170.375H0V0.375Z"/>
</mask>
<path d="M0 0.375H170V170.375H0V0.375Z" fill="white"/>
<g clip-path="url(#clip0_1_487)">
<path d="M94.5 50.375C94.5 54.775 90.9 58.375 86.5 58.375C82.1 58.375 78.5 54.775 78.5 50.375H72.5L64.5 54.375V66.375H72.5V90.375H100.5V66.375H108.5V54.375L100.5 50.375H94.5Z" stroke="#3483FA" stroke-miterlimit="10" stroke-linecap="square"/>
</g>
<path d="M28.0258 110.422H31.3207C32.0681 110.422 32.6993 110.536 33.2143 110.764C33.7338 110.992 34.128 111.329 34.3969 111.775C34.6703 112.217 34.807 112.762 34.807 113.409C34.807 113.865 34.7136 114.282 34.5268 114.66C34.3445 115.034 34.0801 115.353 33.7338 115.617C33.392 115.877 32.9818 116.071 32.5033 116.198L32.1342 116.342H29.0375L29.0238 115.269H31.3617C31.8357 115.269 32.2299 115.187 32.5443 115.022C32.8588 114.854 33.0958 114.628 33.2553 114.346C33.4148 114.063 33.4945 113.751 33.4945 113.409C33.4945 113.026 33.4193 112.691 33.2689 112.404C33.1186 112.117 32.8816 111.896 32.558 111.741C32.239 111.582 31.8266 111.502 31.3207 111.502H29.3451V120.375H28.0258V110.422ZM33.8432 120.375L31.4232 115.863L32.7973 115.856L35.2514 120.293V120.375H33.8432ZM36.1264 116.759V116.602C36.1264 116.068 36.2038 115.574 36.3588 115.118C36.5137 114.658 36.737 114.259 37.0287 113.922C37.3204 113.58 37.6736 113.316 38.0883 113.129C38.503 112.938 38.9678 112.842 39.4828 112.842C40.0023 112.842 40.4695 112.938 40.8842 113.129C41.3034 113.316 41.6589 113.58 41.9506 113.922C42.2468 114.259 42.4724 114.658 42.6273 115.118C42.7823 115.574 42.8598 116.068 42.8598 116.602V116.759C42.8598 117.292 42.7823 117.786 42.6273 118.242C42.4724 118.698 42.2468 119.097 41.9506 119.438C41.6589 119.776 41.3057 120.04 40.891 120.231C40.4809 120.418 40.016 120.512 39.4965 120.512C38.977 120.512 38.5098 120.418 38.0951 120.231C37.6804 120.04 37.3249 119.776 37.0287 119.438C36.737 119.097 36.5137 118.698 36.3588 118.242C36.2038 117.786 36.1264 117.292 36.1264 116.759ZM37.391 116.602V116.759C37.391 117.128 37.4343 117.477 37.5209 117.805C37.6075 118.128 37.7374 118.415 37.9105 118.666C38.0883 118.917 38.3093 119.115 38.5736 119.261C38.838 119.402 39.1456 119.473 39.4965 119.473C39.8428 119.473 40.1459 119.402 40.4057 119.261C40.67 119.115 40.8887 118.917 41.0619 118.666C41.2351 118.415 41.365 118.128 41.4516 117.805C41.5427 117.477 41.5883 117.128 41.5883 116.759V116.602C41.5883 116.237 41.5427 115.893 41.4516 115.569C41.365 115.241 41.2328 114.952 41.0551 114.701C40.8819 114.446 40.6631 114.245 40.3988 114.1C40.1391 113.954 39.8337 113.881 39.4828 113.881C39.1365 113.881 38.8311 113.954 38.5668 114.1C38.307 114.245 38.0883 114.446 37.9105 114.701C37.7374 114.952 37.6075 115.241 37.5209 115.569C37.4343 115.893 37.391 116.237 37.391 116.602ZM45.7104 114.4V123.219H44.4389V112.979H45.601L45.7104 114.4ZM50.6937 116.615V116.759C50.6937 117.297 50.6299 117.796 50.5023 118.256C50.3747 118.712 50.1879 119.108 49.9418 119.445C49.7003 119.783 49.4018 120.045 49.0463 120.231C48.6908 120.418 48.2829 120.512 47.8227 120.512C47.3533 120.512 46.9385 120.434 46.5785 120.279C46.2185 120.124 45.9131 119.899 45.6625 119.603C45.4118 119.306 45.2113 118.951 45.0609 118.536C44.9151 118.121 44.8148 117.654 44.7602 117.135V116.369C44.8148 115.822 44.9174 115.332 45.0678 114.899C45.2182 114.466 45.4164 114.097 45.6625 113.792C45.9131 113.482 46.2162 113.247 46.5717 113.088C46.9271 112.924 47.3373 112.842 47.8021 112.842C48.267 112.842 48.6794 112.933 49.0395 113.115C49.3995 113.293 49.7025 113.548 49.9486 113.881C50.1947 114.214 50.3793 114.612 50.5023 115.077C50.6299 115.537 50.6937 116.05 50.6937 116.615ZM49.4223 116.759V116.615C49.4223 116.246 49.3835 115.9 49.3061 115.576C49.2286 115.248 49.1078 114.961 48.9437 114.715C48.7842 114.464 48.5792 114.268 48.3285 114.127C48.0779 113.981 47.7794 113.908 47.433 113.908C47.114 113.908 46.836 113.963 46.599 114.072C46.3666 114.182 46.1684 114.33 46.0043 114.517C45.8402 114.699 45.7058 114.909 45.601 115.146C45.5007 115.378 45.4255 115.619 45.3754 115.87V117.641C45.4665 117.96 45.5941 118.26 45.7582 118.543C45.9223 118.821 46.141 119.047 46.4145 119.22C46.6879 119.388 47.032 119.473 47.4467 119.473C47.7885 119.473 48.0824 119.402 48.3285 119.261C48.5792 119.115 48.7842 118.917 48.9437 118.666C49.1078 118.415 49.2286 118.128 49.3061 117.805C49.3835 117.477 49.4223 117.128 49.4223 116.759ZM56.6684 119.11V115.303C56.6684 115.011 56.6091 114.758 56.4906 114.544C56.3767 114.325 56.2035 114.157 55.9711 114.038C55.7387 113.92 55.4516 113.86 55.1098 113.86C54.7908 113.86 54.5105 113.915 54.2689 114.024C54.032 114.134 53.8451 114.277 53.7084 114.455C53.5762 114.633 53.5102 114.824 53.5102 115.029H52.2455C52.2455 114.765 52.3139 114.503 52.4506 114.243C52.5873 113.983 52.7833 113.749 53.0385 113.539C53.2982 113.325 53.6081 113.156 53.9682 113.033C54.3327 112.906 54.7383 112.842 55.185 112.842C55.7227 112.842 56.1967 112.933 56.6068 113.115C57.0215 113.298 57.3451 113.573 57.5775 113.942C57.8145 114.307 57.933 114.765 57.933 115.316V118.762C57.933 119.008 57.9535 119.27 57.9945 119.548C58.0401 119.826 58.1062 120.065 58.1928 120.266V120.375H56.8734C56.8096 120.229 56.7595 120.035 56.723 119.794C56.6866 119.548 56.6684 119.32 56.6684 119.11ZM56.8871 115.891L56.9008 116.779H55.6225C55.2624 116.779 54.9411 116.809 54.6586 116.868C54.376 116.923 54.1391 117.007 53.9477 117.121C53.7562 117.235 53.6104 117.379 53.5102 117.552C53.4099 117.72 53.3598 117.919 53.3598 118.146C53.3598 118.379 53.4122 118.591 53.517 118.782C53.6218 118.974 53.779 119.126 53.9887 119.24C54.2029 119.35 54.4649 119.404 54.7748 119.404C55.1622 119.404 55.504 119.322 55.8002 119.158C56.0964 118.994 56.3311 118.794 56.5043 118.557C56.682 118.32 56.7777 118.09 56.7914 117.866L57.3314 118.475C57.2995 118.666 57.213 118.878 57.0717 119.11C56.9304 119.343 56.7413 119.566 56.5043 119.78C56.2719 119.99 55.9939 120.165 55.6703 120.307C55.3513 120.443 54.9913 120.512 54.5902 120.512C54.0889 120.512 53.6492 120.414 53.2709 120.218C52.8972 120.022 52.6055 119.76 52.3959 119.432C52.1908 119.099 52.0883 118.728 52.0883 118.317C52.0883 117.921 52.1658 117.572 52.3207 117.271C52.4756 116.966 52.699 116.713 52.9906 116.513C53.2823 116.308 53.6332 116.153 54.0434 116.048C54.4535 115.943 54.9115 115.891 55.4174 115.891H56.8871ZM65.473 119.609L67.5307 112.979H68.8842L65.9174 121.517C65.849 121.699 65.7579 121.895 65.6439 122.104C65.5346 122.319 65.3933 122.521 65.2201 122.713C65.0469 122.904 64.8373 123.059 64.5912 123.178C64.3497 123.301 64.0603 123.362 63.723 123.362C63.6228 123.362 63.4952 123.349 63.3402 123.321C63.1853 123.294 63.0759 123.271 63.0121 123.253L63.0053 122.228C63.0417 122.232 63.0987 122.237 63.1762 122.241C63.2582 122.25 63.3152 122.255 63.3471 122.255C63.6342 122.255 63.878 122.216 64.0785 122.139C64.279 122.066 64.4477 121.94 64.5844 121.763C64.7256 121.59 64.8464 121.35 64.9467 121.045L65.473 119.609ZM63.9623 112.979L65.8832 118.721L66.2113 120.054L65.3021 120.519L62.5814 112.979H63.9623ZM77.3744 111.304L74.0795 120.375H72.7328L76.5268 110.422H77.3949L77.3744 111.304ZM80.1361 120.375L76.8344 111.304L76.8139 110.422H77.682L81.4896 120.375H80.1361ZM79.9652 116.69V117.771H74.3734V116.69H79.9652ZM85.5912 119.473C85.892 119.473 86.17 119.411 86.4252 119.288C86.6804 119.165 86.89 118.996 87.0541 118.782C87.2182 118.563 87.3116 118.315 87.3344 118.037H88.5375C88.5147 118.475 88.3666 118.882 88.0932 119.261C87.8243 119.634 87.4711 119.938 87.0336 120.17C86.5961 120.398 86.1153 120.512 85.5912 120.512C85.0352 120.512 84.5499 120.414 84.1352 120.218C83.725 120.022 83.3832 119.753 83.1098 119.411C82.8409 119.069 82.6381 118.677 82.5014 118.235C82.3692 117.789 82.3031 117.317 82.3031 116.82V116.533C82.3031 116.036 82.3692 115.567 82.5014 115.125C82.6381 114.678 82.8409 114.284 83.1098 113.942C83.3832 113.601 83.725 113.332 84.1352 113.136C84.5499 112.94 85.0352 112.842 85.5912 112.842C86.17 112.842 86.6758 112.96 87.1088 113.197C87.5417 113.43 87.8812 113.749 88.1273 114.154C88.378 114.555 88.5147 115.011 88.5375 115.521H87.3344C87.3116 115.216 87.225 114.94 87.0746 114.694C86.9288 114.448 86.7283 114.252 86.473 114.106C86.2224 113.956 85.9284 113.881 85.5912 113.881C85.2038 113.881 84.878 113.958 84.6137 114.113C84.3539 114.264 84.1465 114.469 83.9916 114.729C83.8412 114.984 83.7318 115.269 83.6635 115.583C83.5997 115.893 83.5678 116.21 83.5678 116.533V116.82C83.5678 117.144 83.5997 117.463 83.6635 117.777C83.7273 118.092 83.8344 118.377 83.9848 118.632C84.1397 118.887 84.3471 119.092 84.6068 119.247C84.8712 119.397 85.1993 119.473 85.5912 119.473ZM92.9193 119.473C93.2201 119.473 93.4981 119.411 93.7533 119.288C94.0085 119.165 94.2182 118.996 94.3822 118.782C94.5463 118.563 94.6397 118.315 94.6625 118.037H95.8656C95.8428 118.475 95.6947 118.882 95.4213 119.261C95.1524 119.634 94.7992 119.938 94.3617 120.17C93.9242 120.398 93.4434 120.512 92.9193 120.512C92.3633 120.512 91.878 120.414 91.4633 120.218C91.0531 120.022 90.7113 119.753 90.4379 119.411C90.169 119.069 89.9662 118.677 89.8295 118.235C89.6973 117.789 89.6312 117.317 89.6312 116.82V116.533C89.6312 116.036 89.6973 115.567 89.8295 115.125C89.9662 114.678 90.169 114.284 90.4379 113.942C90.7113 113.601 91.0531 113.332 91.4633 113.136C91.878 112.94 92.3633 112.842 92.9193 112.842C93.4981 112.842 94.004 112.96 94.4369 113.197C94.8699 113.43 95.2094 113.749 95.4555 114.154C95.7061 114.555 95.8428 115.011 95.8656 115.521H94.6625C94.6397 115.216 94.5531 114.94 94.4027 114.694C94.2569 114.448 94.0564 114.252 93.8012 114.106C93.5505 113.956 93.2566 113.881 92.9193 113.881C92.532 113.881 92.2061 113.958 91.9418 114.113C91.682 114.264 91.4747 114.469 91.3197 114.729C91.1693 114.984 91.06 115.269 90.9916 115.583C90.9278 115.893 90.8959 116.21 90.8959 116.533V116.82C90.8959 117.144 90.9278 117.463 90.9916 117.777C91.0554 118.092 91.1625 118.377 91.3129 118.632C91.4678 118.887 91.6752 119.092 91.935 119.247C92.1993 119.397 92.5274 119.473 92.9193 119.473ZM100.357 120.512C99.8419 120.512 99.3747 120.425 98.9555 120.252C98.5408 120.074 98.183 119.826 97.8822 119.507C97.586 119.188 97.3581 118.81 97.1986 118.372C97.0391 117.935 96.9594 117.456 96.9594 116.937V116.649C96.9594 116.048 97.0482 115.512 97.226 115.043C97.4037 114.569 97.6452 114.168 97.9506 113.84C98.2559 113.512 98.6023 113.263 98.9896 113.095C99.377 112.926 99.7781 112.842 100.193 112.842C100.721 112.842 101.177 112.933 101.56 113.115C101.947 113.298 102.264 113.553 102.51 113.881C102.756 114.204 102.939 114.587 103.057 115.029C103.176 115.467 103.235 115.945 103.235 116.465V117.032H97.7113V116H101.97V115.904C101.952 115.576 101.884 115.257 101.765 114.947C101.651 114.637 101.469 114.382 101.218 114.182C100.968 113.981 100.626 113.881 100.193 113.881C99.9057 113.881 99.6413 113.942 99.3998 114.065C99.1583 114.184 98.9509 114.362 98.7777 114.599C98.6046 114.836 98.4701 115.125 98.3744 115.467C98.2787 115.809 98.2309 116.203 98.2309 116.649V116.937C98.2309 117.287 98.2787 117.618 98.3744 117.928C98.4747 118.233 98.6182 118.502 98.8051 118.734C98.9965 118.967 99.2266 119.149 99.4955 119.281C99.7689 119.413 100.079 119.479 100.425 119.479C100.872 119.479 101.25 119.388 101.56 119.206C101.87 119.024 102.141 118.78 102.373 118.475L103.139 119.083C102.98 119.325 102.777 119.555 102.531 119.773C102.285 119.992 101.982 120.17 101.621 120.307C101.266 120.443 100.844 120.512 100.357 120.512ZM109.018 118.413C109.018 118.231 108.977 118.062 108.895 117.907C108.817 117.748 108.656 117.604 108.41 117.477C108.168 117.344 107.803 117.23 107.316 117.135C106.906 117.048 106.534 116.946 106.202 116.827C105.873 116.709 105.593 116.565 105.361 116.396C105.133 116.228 104.957 116.03 104.834 115.802C104.711 115.574 104.65 115.307 104.65 115.002C104.65 114.71 104.714 114.435 104.841 114.175C104.973 113.915 105.158 113.685 105.395 113.484C105.636 113.284 105.926 113.127 106.263 113.013C106.6 112.899 106.976 112.842 107.391 112.842C107.983 112.842 108.489 112.947 108.909 113.156C109.328 113.366 109.649 113.646 109.872 113.997C110.096 114.343 110.207 114.729 110.207 115.152H108.943C108.943 114.947 108.881 114.749 108.758 114.558C108.64 114.362 108.464 114.2 108.232 114.072C108.004 113.945 107.724 113.881 107.391 113.881C107.04 113.881 106.755 113.936 106.537 114.045C106.322 114.15 106.165 114.284 106.065 114.448C105.969 114.612 105.921 114.785 105.921 114.968C105.921 115.104 105.944 115.228 105.99 115.337C106.04 115.442 106.126 115.54 106.249 115.631C106.372 115.717 106.546 115.799 106.769 115.877C106.992 115.954 107.277 116.032 107.623 116.109C108.23 116.246 108.729 116.41 109.121 116.602C109.512 116.793 109.804 117.028 109.996 117.306C110.187 117.584 110.283 117.921 110.283 118.317C110.283 118.641 110.214 118.937 110.078 119.206C109.945 119.475 109.752 119.707 109.496 119.903C109.246 120.095 108.945 120.245 108.594 120.354C108.248 120.459 107.858 120.512 107.425 120.512C106.774 120.512 106.222 120.396 105.771 120.163C105.32 119.931 104.978 119.63 104.746 119.261C104.513 118.892 104.397 118.502 104.397 118.092H105.668C105.687 118.438 105.787 118.714 105.969 118.919C106.151 119.119 106.375 119.263 106.639 119.35C106.903 119.432 107.165 119.473 107.425 119.473C107.772 119.473 108.061 119.427 108.293 119.336C108.53 119.245 108.71 119.119 108.833 118.96C108.956 118.8 109.018 118.618 109.018 118.413ZM111.609 116.759V116.602C111.609 116.068 111.686 115.574 111.841 115.118C111.996 114.658 112.219 114.259 112.511 113.922C112.803 113.58 113.156 113.316 113.571 113.129C113.985 112.938 114.45 112.842 114.965 112.842C115.485 112.842 115.952 112.938 116.367 113.129C116.786 113.316 117.141 113.58 117.433 113.922C117.729 114.259 117.955 114.658 118.11 115.118C118.265 115.574 118.342 116.068 118.342 116.602V116.759C118.342 117.292 118.265 117.786 118.11 118.242C117.955 118.698 117.729 119.097 117.433 119.438C117.141 119.776 116.788 120.04 116.373 120.231C115.963 120.418 115.498 120.512 114.979 120.512C114.459 120.512 113.992 120.418 113.578 120.231C113.163 120.04 112.807 119.776 112.511 119.438C112.219 119.097 111.996 118.698 111.841 118.242C111.686 117.786 111.609 117.292 111.609 116.759ZM112.873 116.602V116.759C112.873 117.128 112.917 117.477 113.003 117.805C113.09 118.128 113.22 118.415 113.393 118.666C113.571 118.917 113.792 119.115 114.056 119.261C114.32 119.402 114.628 119.473 114.979 119.473C115.325 119.473 115.628 119.402 115.888 119.261C116.152 119.115 116.371 118.917 116.544 118.666C116.718 118.415 116.847 118.128 116.934 117.805C117.025 117.477 117.071 117.128 117.071 116.759V116.602C117.071 116.237 117.025 115.893 116.934 115.569C116.847 115.241 116.715 114.952 116.537 114.701C116.364 114.446 116.146 114.245 115.881 114.1C115.621 113.954 115.316 113.881 114.965 113.881C114.619 113.881 114.314 113.954 114.049 114.1C113.789 114.245 113.571 114.446 113.393 114.701C113.22 114.952 113.09 115.241 113.003 115.569C112.917 115.893 112.873 116.237 112.873 116.602ZM121.193 114.141V120.375H119.928V112.979H121.159L121.193 114.141ZM123.503 112.938L123.496 114.113C123.392 114.09 123.291 114.077 123.196 114.072C123.105 114.063 123 114.059 122.881 114.059C122.59 114.059 122.332 114.104 122.109 114.195C121.885 114.286 121.696 114.414 121.541 114.578C121.386 114.742 121.263 114.938 121.172 115.166C121.086 115.389 121.029 115.635 121.001 115.904L120.646 116.109C120.646 115.663 120.689 115.243 120.776 114.852C120.867 114.46 121.006 114.113 121.193 113.812C121.38 113.507 121.617 113.27 121.904 113.102C122.195 112.928 122.542 112.842 122.943 112.842C123.034 112.842 123.139 112.853 123.257 112.876C123.376 112.894 123.458 112.915 123.503 112.938ZM126.046 112.979V120.375H124.775V112.979H126.046ZM124.679 111.017C124.679 110.812 124.741 110.638 124.864 110.497C124.991 110.356 125.178 110.285 125.424 110.285C125.666 110.285 125.85 110.356 125.978 110.497C126.11 110.638 126.176 110.812 126.176 111.017C126.176 111.213 126.11 111.381 125.978 111.522C125.85 111.659 125.666 111.728 125.424 111.728C125.178 111.728 124.991 111.659 124.864 111.522C124.741 111.381 124.679 111.213 124.679 111.017ZM127.742 116.759V116.602C127.742 116.068 127.819 115.574 127.974 115.118C128.129 114.658 128.352 114.259 128.644 113.922C128.936 113.58 129.289 113.316 129.704 113.129C130.118 112.938 130.583 112.842 131.098 112.842C131.618 112.842 132.085 112.938 132.499 113.129C132.919 113.316 133.274 113.58 133.566 113.922C133.862 114.259 134.088 114.658 134.243 115.118C134.398 115.574 134.475 116.068 134.475 116.602V116.759C134.475 117.292 134.398 117.786 134.243 118.242C134.088 118.698 133.862 119.097 133.566 119.438C133.274 119.776 132.921 120.04 132.506 120.231C132.096 120.418 131.631 120.512 131.112 120.512C130.592 120.512 130.125 120.418 129.71 120.231C129.296 120.04 128.94 119.776 128.644 119.438C128.352 119.097 128.129 118.698 127.974 118.242C127.819 117.786 127.742 117.292 127.742 116.759ZM129.006 116.602V116.759C129.006 117.128 129.05 117.477 129.136 117.805C129.223 118.128 129.353 118.415 129.526 118.666C129.704 118.917 129.925 119.115 130.189 119.261C130.453 119.402 130.761 119.473 131.112 119.473C131.458 119.473 131.761 119.402 132.021 119.261C132.285 119.115 132.504 118.917 132.677 118.666C132.85 118.415 132.98 118.128 133.067 117.805C133.158 117.477 133.204 117.128 133.204 116.759V116.602C133.204 116.237 133.158 115.893 133.067 115.569C132.98 115.241 132.848 114.952 132.67 114.701C132.497 114.446 132.278 114.245 132.014 114.1C131.754 113.954 131.449 113.881 131.098 113.881C130.752 113.881 130.446 113.954 130.182 114.1C129.922 114.245 129.704 114.446 129.526 114.701C129.353 114.952 129.223 115.241 129.136 115.569C129.05 115.893 129.006 116.237 129.006 116.602ZM140.368 118.413C140.368 118.231 140.327 118.062 140.245 117.907C140.167 117.748 140.005 117.604 139.759 117.477C139.518 117.344 139.153 117.23 138.665 117.135C138.255 117.048 137.884 116.946 137.551 116.827C137.223 116.709 136.943 116.565 136.71 116.396C136.482 116.228 136.307 116.03 136.184 115.802C136.061 115.574 135.999 115.307 135.999 115.002C135.999 114.71 136.063 114.435 136.191 114.175C136.323 113.915 136.508 113.685 136.745 113.484C136.986 113.284 137.275 113.127 137.613 113.013C137.95 112.899 138.326 112.842 138.741 112.842C139.333 112.842 139.839 112.947 140.258 113.156C140.677 113.366 140.999 113.646 141.222 113.997C141.445 114.343 141.557 114.729 141.557 115.152H140.292C140.292 114.947 140.231 114.749 140.108 114.558C139.989 114.362 139.814 114.2 139.581 114.072C139.354 113.945 139.073 113.881 138.741 113.881C138.39 113.881 138.105 113.936 137.886 114.045C137.672 114.15 137.515 114.284 137.414 114.448C137.319 114.612 137.271 114.785 137.271 114.968C137.271 115.104 137.294 115.228 137.339 115.337C137.389 115.442 137.476 115.54 137.599 115.631C137.722 115.717 137.895 115.799 138.119 115.877C138.342 115.954 138.627 116.032 138.973 116.109C139.579 116.246 140.078 116.41 140.47 116.602C140.862 116.793 141.154 117.028 141.345 117.306C141.537 117.584 141.632 117.921 141.632 118.317C141.632 118.641 141.564 118.937 141.427 119.206C141.295 119.475 141.101 119.707 140.846 119.903C140.595 120.095 140.295 120.245 139.944 120.354C139.597 120.459 139.208 120.512 138.775 120.512C138.123 120.512 137.572 120.396 137.121 120.163C136.669 119.931 136.328 119.63 136.095 119.261C135.863 118.892 135.746 118.502 135.746 118.092H137.018C137.036 118.438 137.136 118.714 137.319 118.919C137.501 119.119 137.724 119.263 137.989 119.35C138.253 119.432 138.515 119.473 138.775 119.473C139.121 119.473 139.411 119.427 139.643 119.336C139.88 119.245 140.06 119.119 140.183 118.96C140.306 118.8 140.368 118.618 140.368 118.413Z" fill="#333333"/>
<path d="M170 170.375V171.375H171V170.375H170ZM169 0.375V170.375H171V0.375H169ZM170 169.375H0V171.375H170V169.375Z" fill="#EAE6E6" mask="url(#path-1-inside-1_1_487)"/>
<defs>
<clipPath id="clip0_1_487">
<rect width="48" height="48" fill="white" transform="translate(62.5 46.375)"/>
</clipPath>
</defs>
</svg>
