<svg width="170" height="171" viewBox="0 0 170 171" fill="none" xmlns="http://www.w3.org/2000/svg">
<mask id="path-1-inside-1_1_512" fill="white">
<path d="M0 0.375H170V170.375H0V0.375Z"/>
</mask>
<path d="M0 0.375H170V170.375H0V0.375Z" fill="white"/>
<g clip-path="url(#clip0_1_512)">
<path d="M70.5 92.375V88.375" stroke="#3483FA" stroke-miterlimit="10" stroke-linecap="square"/>
<path d="M102.5 92.375V88.375" stroke="#3483FA" stroke-miterlimit="10" stroke-linecap="square"/>
<path d="M102.5 69.475V52.375C102.5 50.175 100.7 48.375 98.5 48.375H74.5C72.3 48.375 70.5 50.175 70.5 52.375V69.475" stroke="#3483FA" stroke-miterlimit="10"/>
<path d="M108.5 88.375V74.375C108.5 71.575 106.3 69.375 103.5 69.375C100.7 69.375 98.5 71.575 98.5 74.375V78.375H74.5V74.375C74.5 71.575 72.3 69.375 69.5 69.375C66.7 69.375 64.5 71.575 64.5 74.375V88.375H108.5Z" stroke="#3483FA" stroke-miterlimit="10" stroke-linecap="square"/>
</g>
<path d="M39.7221 114.701V115.774H34.3354V114.701H39.7221ZM34.5404 110.422V120.375H33.2211V110.422H34.5404ZM40.8705 110.422V120.375H39.558V110.422H40.8705ZM42.6889 116.759V116.602C42.6889 116.068 42.7663 115.574 42.9213 115.118C43.0762 114.658 43.2995 114.259 43.5912 113.922C43.8829 113.58 44.2361 113.316 44.6508 113.129C45.0655 112.938 45.5303 112.842 46.0453 112.842C46.5648 112.842 47.032 112.938 47.4467 113.129C47.8659 113.316 48.2214 113.58 48.5131 113.922C48.8093 114.259 49.0349 114.658 49.1898 115.118C49.3448 115.574 49.4223 116.068 49.4223 116.602V116.759C49.4223 117.292 49.3448 117.786 49.1898 118.242C49.0349 118.698 48.8093 119.097 48.5131 119.438C48.2214 119.776 47.8682 120.04 47.4535 120.231C47.0434 120.418 46.5785 120.512 46.059 120.512C45.5395 120.512 45.0723 120.418 44.6576 120.231C44.2429 120.04 43.8874 119.776 43.5912 119.438C43.2995 119.097 43.0762 118.698 42.9213 118.242C42.7663 117.786 42.6889 117.292 42.6889 116.759ZM43.9535 116.602V116.759C43.9535 117.128 43.9968 117.477 44.0834 117.805C44.17 118.128 44.2999 118.415 44.473 118.666C44.6508 118.917 44.8718 119.115 45.1361 119.261C45.4005 119.402 45.7081 119.473 46.059 119.473C46.4053 119.473 46.7084 119.402 46.9682 119.261C47.2325 119.115 47.4512 118.917 47.6244 118.666C47.7976 118.415 47.9275 118.128 48.0141 117.805C48.1052 117.477 48.1508 117.128 48.1508 116.759V116.602C48.1508 116.237 48.1052 115.893 48.0141 115.569C47.9275 115.241 47.7953 114.952 47.6176 114.701C47.4444 114.446 47.2256 114.245 46.9613 114.1C46.7016 113.954 46.3962 113.881 46.0453 113.881C45.699 113.881 45.3936 113.954 45.1293 114.1C44.8695 114.245 44.6508 114.446 44.473 114.701C44.2999 114.952 44.17 115.241 44.0834 115.569C43.9968 115.893 43.9535 116.237 43.9535 116.602ZM55.8002 112.979H56.9486V120.218C56.9486 120.869 56.8165 121.425 56.5521 121.886C56.2878 122.346 55.9187 122.695 55.4447 122.932C54.9753 123.173 54.433 123.294 53.8178 123.294C53.5626 123.294 53.2618 123.253 52.9154 123.171C52.5736 123.093 52.2364 122.959 51.9037 122.768C51.5756 122.581 51.2999 122.328 51.0766 122.009L51.7396 121.257C52.0495 121.631 52.3731 121.89 52.7104 122.036C53.0521 122.182 53.3894 122.255 53.7221 122.255C54.1231 122.255 54.4695 122.18 54.7611 122.029C55.0528 121.879 55.2784 121.656 55.4379 121.359C55.602 121.068 55.684 120.708 55.684 120.279V114.605L55.8002 112.979ZM50.7074 116.759V116.615C50.7074 116.05 50.7735 115.537 50.9057 115.077C51.0424 114.612 51.2361 114.214 51.4867 113.881C51.7419 113.548 52.0495 113.293 52.4096 113.115C52.7696 112.933 53.1752 112.842 53.6264 112.842C54.0912 112.842 54.4968 112.924 54.8432 113.088C55.1941 113.247 55.4903 113.482 55.7318 113.792C55.9779 114.097 56.1716 114.466 56.3129 114.899C56.4542 115.332 56.5521 115.822 56.6068 116.369V116.998C56.5567 117.54 56.4587 118.028 56.3129 118.461C56.1716 118.894 55.9779 119.263 55.7318 119.568C55.4903 119.874 55.1941 120.108 54.8432 120.272C54.4923 120.432 54.0821 120.512 53.6127 120.512C53.1706 120.512 52.7696 120.418 52.4096 120.231C52.0541 120.045 51.7488 119.783 51.4936 119.445C51.2383 119.108 51.0424 118.712 50.9057 118.256C50.7735 117.796 50.7074 117.297 50.7074 116.759ZM51.9721 116.615V116.759C51.9721 117.128 52.0085 117.474 52.0814 117.798C52.1589 118.121 52.2751 118.406 52.4301 118.652C52.5896 118.898 52.7924 119.092 53.0385 119.233C53.2846 119.37 53.5785 119.438 53.9203 119.438C54.3396 119.438 54.6859 119.35 54.9594 119.172C55.2328 118.994 55.4493 118.759 55.6088 118.468C55.7729 118.176 55.9005 117.859 55.9916 117.518V115.87C55.9415 115.619 55.864 115.378 55.7592 115.146C55.6589 114.909 55.5268 114.699 55.3627 114.517C55.2032 114.33 55.0049 114.182 54.768 114.072C54.531 113.963 54.253 113.908 53.934 113.908C53.5876 113.908 53.2891 113.981 53.0385 114.127C52.7924 114.268 52.5896 114.464 52.4301 114.715C52.2751 114.961 52.1589 115.248 52.0814 115.576C52.0085 115.9 51.9721 116.246 51.9721 116.615ZM63.2309 119.11V115.303C63.2309 115.011 63.1716 114.758 63.0531 114.544C62.9392 114.325 62.766 114.157 62.5336 114.038C62.3012 113.92 62.0141 113.86 61.6723 113.86C61.3533 113.86 61.073 113.915 60.8314 114.024C60.5945 114.134 60.4076 114.277 60.2709 114.455C60.1387 114.633 60.0727 114.824 60.0727 115.029H58.808C58.808 114.765 58.8764 114.503 59.0131 114.243C59.1498 113.983 59.3458 113.749 59.601 113.539C59.8607 113.325 60.1706 113.156 60.5307 113.033C60.8952 112.906 61.3008 112.842 61.7475 112.842C62.2852 112.842 62.7592 112.933 63.1693 113.115C63.584 113.298 63.9076 113.573 64.14 113.942C64.377 114.307 64.4955 114.765 64.4955 115.316V118.762C64.4955 119.008 64.516 119.27 64.557 119.548C64.6026 119.826 64.6687 120.065 64.7553 120.266V120.375H63.4359C63.3721 120.229 63.322 120.035 63.2855 119.794C63.2491 119.548 63.2309 119.32 63.2309 119.11ZM63.4496 115.891L63.4633 116.779H62.185C61.8249 116.779 61.5036 116.809 61.2211 116.868C60.9385 116.923 60.7016 117.007 60.5102 117.121C60.3187 117.235 60.1729 117.379 60.0727 117.552C59.9724 117.72 59.9223 117.919 59.9223 118.146C59.9223 118.379 59.9747 118.591 60.0795 118.782C60.1843 118.974 60.3415 119.126 60.5512 119.24C60.7654 119.35 61.0274 119.404 61.3373 119.404C61.7247 119.404 62.0665 119.322 62.3627 119.158C62.6589 118.994 62.8936 118.794 63.0668 118.557C63.2445 118.32 63.3402 118.09 63.3539 117.866L63.8939 118.475C63.862 118.666 63.7755 118.878 63.6342 119.11C63.4929 119.343 63.3038 119.566 63.0668 119.78C62.8344 119.99 62.5564 120.165 62.2328 120.307C61.9138 120.443 61.5538 120.512 61.1527 120.512C60.6514 120.512 60.2117 120.414 59.8334 120.218C59.4597 120.022 59.168 119.76 58.9584 119.432C58.7533 119.099 58.6508 118.728 58.6508 118.317C58.6508 117.921 58.7283 117.572 58.8832 117.271C59.0381 116.966 59.2615 116.713 59.5531 116.513C59.8448 116.308 60.1957 116.153 60.6059 116.048C61.016 115.943 61.474 115.891 61.9799 115.891H63.4496ZM67.7494 114.141V120.375H66.4848V112.979H67.7152L67.7494 114.141ZM70.06 112.938L70.0531 114.113C69.9483 114.09 69.848 114.077 69.7523 114.072C69.6612 114.063 69.5564 114.059 69.4379 114.059C69.1462 114.059 68.8887 114.104 68.6654 114.195C68.4421 114.286 68.253 114.414 68.098 114.578C67.9431 114.742 67.8201 114.938 67.7289 115.166C67.6423 115.389 67.5854 115.635 67.558 115.904L67.2025 116.109C67.2025 115.663 67.2458 115.243 67.3324 114.852C67.4236 114.46 67.5626 114.113 67.7494 113.812C67.9363 113.507 68.1732 113.27 68.4604 113.102C68.752 112.928 69.0984 112.842 69.4994 112.842C69.5906 112.842 69.6954 112.853 69.8139 112.876C69.9324 112.894 70.0144 112.915 70.06 112.938ZM76.7797 119.609L78.8373 112.979H80.1908L77.224 121.517C77.1557 121.699 77.0645 121.895 76.9506 122.104C76.8412 122.319 76.6999 122.521 76.5268 122.713C76.3536 122.904 76.1439 123.059 75.8979 123.178C75.6563 123.301 75.3669 123.362 75.0297 123.362C74.9294 123.362 74.8018 123.349 74.6469 123.321C74.4919 123.294 74.3826 123.271 74.3187 123.253L74.3119 122.228C74.3484 122.232 74.4053 122.237 74.4828 122.241C74.5648 122.25 74.6218 122.255 74.6537 122.255C74.9408 122.255 75.1846 122.216 75.3852 122.139C75.5857 122.066 75.7543 121.94 75.891 121.763C76.0323 121.59 76.1531 121.35 76.2533 121.045L76.7797 119.609ZM75.2689 112.979L77.1898 118.721L77.518 120.054L76.6088 120.519L73.8881 112.979H75.2689ZM85.4135 110.422H86.6918L89.9525 118.536L93.2064 110.422H94.4916L90.4447 120.375H89.4467L85.4135 110.422ZM84.9965 110.422H86.1244L86.309 116.492V120.375H84.9965V110.422ZM93.7738 110.422H94.9018V120.375H93.5893V116.492L93.7738 110.422ZM101.553 118.666V112.979H102.825V120.375H101.615L101.553 118.666ZM101.792 117.107L102.319 117.094C102.319 117.586 102.266 118.042 102.162 118.461C102.061 118.876 101.897 119.236 101.669 119.541C101.441 119.846 101.143 120.086 100.774 120.259C100.405 120.427 99.9558 120.512 99.4271 120.512C99.0671 120.512 98.7367 120.459 98.4359 120.354C98.1397 120.25 97.8845 120.088 97.6703 119.869C97.4561 119.65 97.2898 119.366 97.1713 119.015C97.0574 118.664 97.0004 118.242 97.0004 117.75V112.979H98.265V117.764C98.265 118.096 98.3015 118.372 98.3744 118.591C98.4519 118.805 98.5544 118.976 98.682 119.104C98.8142 119.227 98.96 119.313 99.1195 119.363C99.2836 119.413 99.4522 119.438 99.6254 119.438C100.163 119.438 100.589 119.336 100.904 119.131C101.218 118.921 101.444 118.641 101.58 118.29C101.722 117.935 101.792 117.54 101.792 117.107ZM107.822 120.512C107.307 120.512 106.84 120.425 106.42 120.252C106.006 120.074 105.648 119.826 105.347 119.507C105.051 119.188 104.823 118.81 104.663 118.372C104.504 117.935 104.424 117.456 104.424 116.937V116.649C104.424 116.048 104.513 115.512 104.691 115.043C104.869 114.569 105.11 114.168 105.415 113.84C105.721 113.512 106.067 113.263 106.454 113.095C106.842 112.926 107.243 112.842 107.658 112.842C108.186 112.842 108.642 112.933 109.025 113.115C109.412 113.298 109.729 113.553 109.975 113.881C110.221 114.204 110.403 114.587 110.522 115.029C110.64 115.467 110.7 115.945 110.7 116.465V117.032H105.176V116H109.435V115.904C109.417 115.576 109.348 115.257 109.23 114.947C109.116 114.637 108.934 114.382 108.683 114.182C108.432 113.981 108.091 113.881 107.658 113.881C107.371 113.881 107.106 113.942 106.865 114.065C106.623 114.184 106.416 114.362 106.243 114.599C106.069 114.836 105.935 115.125 105.839 115.467C105.744 115.809 105.696 116.203 105.696 116.649V116.937C105.696 117.287 105.744 117.618 105.839 117.928C105.94 118.233 106.083 118.502 106.27 118.734C106.461 118.967 106.691 119.149 106.96 119.281C107.234 119.413 107.544 119.479 107.89 119.479C108.337 119.479 108.715 119.388 109.025 119.206C109.335 119.024 109.606 118.78 109.838 118.475L110.604 119.083C110.444 119.325 110.242 119.555 109.996 119.773C109.749 119.992 109.446 120.17 109.086 120.307C108.731 120.443 108.309 120.512 107.822 120.512ZM112.169 109.875H113.441V118.939L113.331 120.375H112.169V109.875ZM118.438 116.615V116.759C118.438 117.297 118.374 117.796 118.246 118.256C118.119 118.712 117.932 119.108 117.686 119.445C117.44 119.783 117.139 120.045 116.784 120.231C116.428 120.418 116.02 120.512 115.56 120.512C115.091 120.512 114.678 120.432 114.323 120.272C113.972 120.108 113.676 119.874 113.434 119.568C113.192 119.263 112.999 118.894 112.853 118.461C112.712 118.028 112.614 117.54 112.559 116.998V116.369C112.614 115.822 112.712 115.332 112.853 114.899C112.999 114.466 113.192 114.097 113.434 113.792C113.676 113.482 113.972 113.247 114.323 113.088C114.674 112.924 115.081 112.842 115.546 112.842C116.011 112.842 116.424 112.933 116.784 113.115C117.144 113.293 117.444 113.548 117.686 113.881C117.932 114.214 118.119 114.612 118.246 115.077C118.374 115.537 118.438 116.05 118.438 116.615ZM117.166 116.759V116.615C117.166 116.246 117.132 115.9 117.064 115.576C116.996 115.248 116.886 114.961 116.736 114.715C116.585 114.464 116.387 114.268 116.141 114.127C115.895 113.981 115.592 113.908 115.232 113.908C114.913 113.908 114.635 113.963 114.398 114.072C114.165 114.182 113.967 114.33 113.803 114.517C113.639 114.699 113.505 114.909 113.4 115.146C113.3 115.378 113.224 115.619 113.174 115.87V117.518C113.247 117.837 113.366 118.144 113.53 118.44C113.698 118.732 113.922 118.971 114.2 119.158C114.482 119.345 114.831 119.438 115.246 119.438C115.587 119.438 115.879 119.37 116.121 119.233C116.367 119.092 116.565 118.898 116.715 118.652C116.87 118.406 116.984 118.121 117.057 117.798C117.13 117.474 117.166 117.128 117.166 116.759ZM121.412 109.875V120.375H120.14V109.875H121.412ZM126.511 120.512C125.996 120.512 125.529 120.425 125.11 120.252C124.695 120.074 124.337 119.826 124.037 119.507C123.74 119.188 123.512 118.81 123.353 118.372C123.193 117.935 123.114 117.456 123.114 116.937V116.649C123.114 116.048 123.203 115.512 123.38 115.043C123.558 114.569 123.8 114.168 124.105 113.84C124.41 113.512 124.757 113.263 125.144 113.095C125.531 112.926 125.932 112.842 126.347 112.842C126.876 112.842 127.331 112.933 127.714 113.115C128.102 113.298 128.418 113.553 128.664 113.881C128.911 114.204 129.093 114.587 129.211 115.029C129.33 115.467 129.389 115.945 129.389 116.465V117.032H123.866V116H128.124V115.904C128.106 115.576 128.038 115.257 127.919 114.947C127.805 114.637 127.623 114.382 127.372 114.182C127.122 113.981 126.78 113.881 126.347 113.881C126.06 113.881 125.796 113.942 125.554 114.065C125.313 114.184 125.105 114.362 124.932 114.599C124.759 114.836 124.624 115.125 124.529 115.467C124.433 115.809 124.385 116.203 124.385 116.649V116.937C124.385 117.287 124.433 117.618 124.529 117.928C124.629 118.233 124.773 118.502 124.959 118.734C125.151 118.967 125.381 119.149 125.65 119.281C125.923 119.413 126.233 119.479 126.579 119.479C127.026 119.479 127.404 119.388 127.714 119.206C128.024 119.024 128.295 118.78 128.528 118.475L129.293 119.083C129.134 119.325 128.931 119.555 128.685 119.773C128.439 119.992 128.136 120.17 127.776 120.307C127.42 120.443 126.999 120.512 126.511 120.512ZM135.172 118.413C135.172 118.231 135.131 118.062 135.049 117.907C134.972 117.748 134.81 117.604 134.564 117.477C134.322 117.344 133.958 117.23 133.47 117.135C133.06 117.048 132.689 116.946 132.356 116.827C132.028 116.709 131.747 116.565 131.515 116.396C131.287 116.228 131.112 116.03 130.989 115.802C130.866 115.574 130.804 115.307 130.804 115.002C130.804 114.71 130.868 114.435 130.996 114.175C131.128 113.915 131.312 113.685 131.549 113.484C131.791 113.284 132.08 113.127 132.417 113.013C132.755 112.899 133.131 112.842 133.545 112.842C134.138 112.842 134.644 112.947 135.063 113.156C135.482 113.366 135.803 113.646 136.027 113.997C136.25 114.343 136.362 114.729 136.362 115.152H135.097C135.097 114.947 135.036 114.749 134.912 114.558C134.794 114.362 134.619 114.2 134.386 114.072C134.158 113.945 133.878 113.881 133.545 113.881C133.194 113.881 132.91 113.936 132.691 114.045C132.477 114.15 132.319 114.284 132.219 114.448C132.123 114.612 132.076 114.785 132.076 114.968C132.076 115.104 132.098 115.228 132.144 115.337C132.194 115.442 132.281 115.54 132.404 115.631C132.527 115.717 132.7 115.799 132.923 115.877C133.147 115.954 133.431 116.032 133.778 116.109C134.384 116.246 134.883 116.41 135.275 116.602C135.667 116.793 135.958 117.028 136.15 117.306C136.341 117.584 136.437 117.921 136.437 118.317C136.437 118.641 136.369 118.937 136.232 119.206C136.1 119.475 135.906 119.707 135.651 119.903C135.4 120.095 135.099 120.245 134.748 120.354C134.402 120.459 134.012 120.512 133.579 120.512C132.928 120.512 132.376 120.396 131.925 120.163C131.474 119.931 131.132 119.63 130.9 119.261C130.667 118.892 130.551 118.502 130.551 118.092H131.823C131.841 118.438 131.941 118.714 132.123 118.919C132.306 119.119 132.529 119.263 132.793 119.35C133.058 119.432 133.32 119.473 133.579 119.473C133.926 119.473 134.215 119.427 134.448 119.336C134.685 119.245 134.865 119.119 134.988 118.96C135.111 118.8 135.172 118.618 135.172 118.413Z" fill="#333333"/>
<path d="M170 170.375V171.375H171V170.375H170ZM169 0.375V170.375H171V0.375H169ZM170 169.375H0V171.375H170V169.375Z" fill="#EAE6E6" mask="url(#path-1-inside-1_1_512)"/>
<defs>
<clipPath id="clip0_1_512">
<rect width="48" height="48" fill="white" transform="translate(62.5 46.375)"/>
</clipPath>
</defs>
</svg>
