<svg width="170" height="171" viewBox="0 0 170 171" fill="none" xmlns="http://www.w3.org/2000/svg">
<mask id="path-1-inside-1_1_541" fill="white">
<path d="M0 0.375H170V170.375H0V0.375Z"/>
</mask>
<path d="M0 0.375H170V170.375H0V0.375Z" fill="white"/>
<g clip-path="url(#clip0_1_541)">
<path d="M69.5202 69.5386C76.5098 72.7385 81.6637 79.2535 83.1032 87.0356" stroke="#3483FA" stroke-miterlimit="10"/>
<path d="M103.48 69.5386C96.4902 72.7385 91.3363 79.2535 89.8968 87.0356" stroke="#3483FA" stroke-miterlimit="10"/>
<path d="M70.5894 64.375C70.5894 64.375 78.563 63.375 86.5003 63.375C94.4375 63.375 102.411 64.375 102.411 64.375" stroke="#3483FA" stroke-miterlimit="10"/>
<path d="M86.5 92.375C98.6503 92.375 108.5 82.5253 108.5 70.375C108.5 58.2247 98.6503 48.375 86.5 48.375C74.3497 48.375 64.5 58.2247 64.5 70.375C64.5 82.5253 74.3497 92.375 86.5 92.375Z" stroke="#3483FA" stroke-miterlimit="10" stroke-linecap="square"/>
<path d="M86.5 87.375C95.8888 87.375 103.5 79.7638 103.5 70.375C103.5 60.9862 95.8888 53.375 86.5 53.375C77.1112 53.375 69.5 60.9862 69.5 70.375C69.5 79.7638 77.1112 87.375 86.5 87.375Z" stroke="#3483FA" stroke-miterlimit="10" stroke-linecap="square"/>
<path d="M86.5 76.375C88.7091 76.375 90.5 74.5841 90.5 72.375C90.5 70.1659 88.7091 68.375 86.5 68.375C84.2909 68.375 82.5 70.1659 82.5 72.375C82.5 74.5841 84.2909 76.375 86.5 76.375Z" stroke="#3483FA" stroke-miterlimit="10" stroke-linecap="square"/>
</g>
<path d="M52.3954 112.656L48.8651 122.375H47.4223L51.4872 111.711H52.4174L52.3954 112.656ZM55.3544 122.375L51.8168 112.656L51.7948 111.711H52.725L56.8046 122.375H55.3544ZM55.1713 118.427V119.584H49.1801V118.427H55.1713ZM61.1991 121.408C61.5214 121.408 61.8192 121.342 62.0927 121.21C62.3661 121.079 62.5907 120.898 62.7665 120.668C62.9423 120.434 63.0424 120.168 63.0668 119.87H64.3559C64.3314 120.339 64.1728 120.776 63.8798 121.181C63.5917 121.582 63.2133 121.906 62.7445 122.155C62.2758 122.399 61.7606 122.521 61.1991 122.521C60.6034 122.521 60.0834 122.417 59.6391 122.207C59.1996 121.997 58.8334 121.708 58.5404 121.342C58.2523 120.976 58.0351 120.556 57.8886 120.083C57.747 119.604 57.6762 119.099 57.6762 118.566V118.259C57.6762 117.727 57.747 117.224 57.8886 116.75C58.0351 116.271 58.2523 115.849 58.5404 115.483C58.8334 115.117 59.1996 114.829 59.6391 114.619C60.0834 114.409 60.6034 114.304 61.1991 114.304C61.8192 114.304 62.3612 114.431 62.8251 114.685C63.289 114.934 63.6527 115.275 63.9164 115.71C64.185 116.14 64.3314 116.628 64.3559 117.175H63.0668C63.0424 116.848 62.9496 116.552 62.7885 116.289C62.6322 116.025 62.4174 115.815 62.1439 115.659C61.8754 115.498 61.5604 115.417 61.1991 115.417C60.7841 115.417 60.435 115.5 60.1518 115.666C59.8734 115.827 59.6513 116.047 59.4853 116.325C59.3241 116.599 59.2069 116.904 59.1337 117.241C59.0653 117.573 59.0312 117.912 59.0312 118.259V118.566C59.0312 118.913 59.0653 119.255 59.1337 119.592C59.202 119.929 59.3168 120.234 59.4779 120.507C59.6439 120.781 59.8661 121 60.1444 121.167C60.4276 121.328 60.7792 121.408 61.1991 121.408ZM69.0507 121.408C69.3729 121.408 69.6708 121.342 69.9442 121.21C70.2177 121.079 70.4423 120.898 70.6181 120.668C70.7938 120.434 70.8939 120.168 70.9184 119.87H72.2074C72.183 120.339 72.0243 120.776 71.7313 121.181C71.4433 121.582 71.0648 121.906 70.5961 122.155C70.1273 122.399 69.6122 122.521 69.0507 122.521C68.455 122.521 67.935 122.417 67.4906 122.207C67.0512 121.997 66.685 121.708 66.392 121.342C66.1039 120.976 65.8866 120.556 65.7401 120.083C65.5985 119.604 65.5277 119.099 65.5277 118.566V118.259C65.5277 117.727 65.5985 117.224 65.7401 116.75C65.8866 116.271 66.1039 115.849 66.392 115.483C66.685 115.117 67.0512 114.829 67.4906 114.619C67.935 114.409 68.455 114.304 69.0507 114.304C69.6708 114.304 70.2128 114.431 70.6767 114.685C71.1405 114.934 71.5043 115.275 71.768 115.71C72.0365 116.14 72.183 116.628 72.2074 117.175H70.9184C70.8939 116.848 70.8012 116.552 70.64 116.289C70.4838 116.025 70.2689 115.815 69.9955 115.659C69.727 115.498 69.412 115.417 69.0507 115.417C68.6356 115.417 68.2865 115.5 68.0033 115.666C67.725 115.827 67.5028 116.047 67.3368 116.325C67.1757 116.599 67.0585 116.904 66.9853 117.241C66.9169 117.573 66.8827 117.912 66.8827 118.259V118.566C66.8827 118.913 66.9169 119.255 66.9853 119.592C67.0536 119.929 67.1684 120.234 67.3295 120.507C67.4955 120.781 67.7177 121 67.996 121.167C68.2792 121.328 68.6308 121.408 69.0507 121.408ZM77.0194 122.521C76.4677 122.521 75.9672 122.429 75.518 122.243C75.0736 122.053 74.6903 121.787 74.3681 121.445C74.0507 121.103 73.8065 120.698 73.6356 120.229C73.4647 119.76 73.3793 119.248 73.3793 118.691V118.383C73.3793 117.739 73.4745 117.165 73.6649 116.662C73.8554 116.154 74.1142 115.725 74.4413 115.373C74.7685 115.021 75.1395 114.755 75.5546 114.575C75.9696 114.394 76.3993 114.304 76.8437 114.304C77.4101 114.304 77.8983 114.401 78.3085 114.597C78.7235 114.792 79.0629 115.065 79.3266 115.417C79.5902 115.764 79.7855 116.174 79.9125 116.647C80.0395 117.116 80.1029 117.629 80.1029 118.186V118.793H74.185V117.688H78.7479V117.585C78.7284 117.233 78.6552 116.892 78.5282 116.56C78.4062 116.228 78.2108 115.954 77.9423 115.739C77.6737 115.524 77.3075 115.417 76.8437 115.417C76.536 115.417 76.2528 115.483 75.994 115.615C75.7353 115.742 75.5131 115.932 75.3275 116.186C75.142 116.44 74.9979 116.75 74.8954 117.116C74.7929 117.482 74.7416 117.905 74.7416 118.383V118.691C74.7416 119.067 74.7929 119.421 74.8954 119.753C75.0028 120.08 75.1566 120.368 75.3568 120.617C75.5619 120.866 75.8085 121.062 76.0966 121.203C76.3895 121.345 76.7216 121.416 77.0927 121.416C77.5712 121.416 77.9765 121.318 78.3085 121.123C78.6405 120.927 78.9311 120.666 79.1801 120.339L80.0004 120.991C79.8295 121.25 79.6122 121.496 79.3485 121.73C79.0849 121.965 78.7602 122.155 78.3744 122.302C77.9936 122.448 77.5419 122.521 77.0194 122.521ZM86.2992 120.273C86.2992 120.078 86.2553 119.897 86.1674 119.731C86.0844 119.56 85.911 119.406 85.6474 119.27C85.3886 119.128 84.9979 119.006 84.4755 118.903C84.036 118.811 83.6381 118.701 83.2816 118.574C82.9301 118.447 82.6298 118.293 82.3808 118.112C82.1366 117.932 81.9486 117.719 81.8168 117.475C81.685 117.231 81.619 116.945 81.619 116.618C81.619 116.306 81.6874 116.01 81.8241 115.732C81.9657 115.454 82.1635 115.207 82.4174 114.992C82.6762 114.777 82.9862 114.609 83.3476 114.487C83.7089 114.365 84.1117 114.304 84.5561 114.304C85.1908 114.304 85.7328 114.416 86.182 114.641C86.6312 114.865 86.9755 115.166 87.2147 115.542C87.454 115.913 87.5736 116.325 87.5736 116.779H86.2187C86.2187 116.56 86.1527 116.347 86.0209 116.142C85.8939 115.932 85.706 115.759 85.4569 115.622C85.2128 115.485 84.9125 115.417 84.5561 115.417C84.1801 115.417 83.8749 115.476 83.6405 115.593C83.411 115.705 83.2426 115.849 83.1352 116.025C83.0326 116.201 82.9813 116.386 82.9813 116.582C82.9813 116.728 83.0058 116.86 83.0546 116.977C83.1083 117.089 83.2011 117.194 83.3329 117.292C83.4647 117.385 83.6503 117.473 83.8895 117.556C84.1288 117.639 84.434 117.722 84.8051 117.805C85.4545 117.951 85.9892 118.127 86.4091 118.332C86.829 118.537 87.1415 118.789 87.3466 119.086C87.5517 119.384 87.6542 119.746 87.6542 120.17C87.6542 120.517 87.581 120.834 87.4345 121.123C87.2929 121.411 87.0854 121.66 86.8119 121.87C86.5434 122.075 86.2211 122.236 85.8451 122.353C85.474 122.465 85.0565 122.521 84.5927 122.521C83.8944 122.521 83.3036 122.397 82.8202 122.148C82.3368 121.899 81.9706 121.577 81.7216 121.181C81.4726 120.786 81.348 120.368 81.348 119.929H82.7104C82.7299 120.3 82.8373 120.595 83.0326 120.815C83.2279 121.03 83.4672 121.184 83.7504 121.276C84.0336 121.364 84.3144 121.408 84.5927 121.408C84.9638 121.408 85.2738 121.359 85.5229 121.262C85.7768 121.164 85.9696 121.03 86.1015 120.859C86.2333 120.688 86.2992 120.493 86.2992 120.273ZM89.0751 118.5V118.332C89.0751 117.761 89.1581 117.231 89.3241 116.743C89.4901 116.25 89.7294 115.822 90.0419 115.461C90.3544 115.095 90.7328 114.812 91.1771 114.611C91.6215 114.406 92.1195 114.304 92.6713 114.304C93.2279 114.304 93.7284 114.406 94.1728 114.611C94.622 114.812 95.0028 115.095 95.3153 115.461C95.6327 115.822 95.8744 116.25 96.0404 116.743C96.2064 117.231 96.2895 117.761 96.2895 118.332V118.5C96.2895 119.072 96.2064 119.602 96.0404 120.09C95.8744 120.578 95.6327 121.005 95.3153 121.372C95.0028 121.733 94.6244 122.016 94.1801 122.221C93.7406 122.421 93.2426 122.521 92.6859 122.521C92.1293 122.521 91.6288 122.421 91.1845 122.221C90.7401 122.016 90.3593 121.733 90.0419 121.372C89.7294 121.005 89.4901 120.578 89.3241 120.09C89.1581 119.602 89.0751 119.072 89.0751 118.5ZM90.4301 118.332V118.5C90.4301 118.896 90.4765 119.27 90.5692 119.621C90.662 119.968 90.8012 120.275 90.9867 120.544C91.1771 120.812 91.414 121.025 91.6972 121.181C91.9804 121.333 92.31 121.408 92.6859 121.408C93.057 121.408 93.3817 121.333 93.6601 121.181C93.9433 121.025 94.1776 120.812 94.3632 120.544C94.5487 120.275 94.6879 119.968 94.7807 119.621C94.8783 119.27 94.9271 118.896 94.9271 118.5V118.332C94.9271 117.941 94.8783 117.573 94.7807 117.226C94.6879 116.875 94.5463 116.564 94.3559 116.296C94.1703 116.022 93.9359 115.808 93.6527 115.651C93.3744 115.495 93.0473 115.417 92.6713 115.417C92.3002 115.417 91.973 115.495 91.6898 115.651C91.4115 115.808 91.1771 116.022 90.9867 116.296C90.8012 116.564 90.662 116.875 90.5692 117.226C90.4765 117.573 90.4301 117.941 90.4301 118.332ZM99.3437 115.695V122.375H97.9887V114.45H99.307L99.3437 115.695ZM101.819 114.406L101.812 115.666C101.7 115.642 101.592 115.627 101.49 115.622C101.392 115.612 101.28 115.607 101.153 115.607C100.84 115.607 100.564 115.656 100.325 115.754C100.086 115.852 99.8832 115.988 99.7172 116.164C99.5512 116.34 99.4193 116.55 99.3217 116.794C99.2289 117.033 99.1679 117.297 99.1386 117.585L98.7577 117.805C98.7577 117.326 98.8041 116.877 98.8969 116.457C98.9945 116.037 99.1435 115.666 99.3437 115.344C99.5438 115.017 99.7978 114.763 100.105 114.582C100.418 114.396 100.789 114.304 101.219 114.304C101.316 114.304 101.429 114.316 101.556 114.34C101.683 114.36 101.77 114.382 101.819 114.406ZM104.544 114.45V122.375H103.182V114.45H104.544ZM103.079 112.348C103.079 112.128 103.145 111.943 103.277 111.792C103.413 111.64 103.614 111.564 103.877 111.564C104.136 111.564 104.334 111.64 104.471 111.792C104.612 111.943 104.683 112.128 104.683 112.348C104.683 112.558 104.612 112.739 104.471 112.89C104.334 113.037 104.136 113.11 103.877 113.11C103.614 113.11 103.413 113.037 103.277 112.89C103.145 112.739 103.079 112.558 103.079 112.348ZM106.36 118.5V118.332C106.36 117.761 106.443 117.231 106.609 116.743C106.775 116.25 107.015 115.822 107.327 115.461C107.64 115.095 108.018 114.812 108.462 114.611C108.907 114.406 109.405 114.304 109.956 114.304C110.513 114.304 111.014 114.406 111.458 114.611C111.907 114.812 112.288 115.095 112.6 115.461C112.918 115.822 113.16 116.25 113.326 116.743C113.492 117.231 113.575 117.761 113.575 118.332V118.5C113.575 119.072 113.492 119.602 113.326 120.09C113.16 120.578 112.918 121.005 112.6 121.372C112.288 121.733 111.91 122.016 111.465 122.221C111.026 122.421 110.528 122.521 109.971 122.521C109.414 122.521 108.914 122.421 108.47 122.221C108.025 122.016 107.644 121.733 107.327 121.372C107.015 121.005 106.775 120.578 106.609 120.09C106.443 119.602 106.36 119.072 106.36 118.5ZM107.715 118.332V118.5C107.715 118.896 107.762 119.27 107.854 119.621C107.947 119.968 108.086 120.275 108.272 120.544C108.462 120.812 108.699 121.025 108.982 121.181C109.266 121.333 109.595 121.408 109.971 121.408C110.342 121.408 110.667 121.333 110.945 121.181C111.228 121.025 111.463 120.812 111.648 120.544C111.834 120.275 111.973 119.968 112.066 119.621C112.163 119.27 112.212 118.896 112.212 118.5V118.332C112.212 117.941 112.163 117.573 112.066 117.226C111.973 116.875 111.831 116.564 111.641 116.296C111.455 116.022 111.221 115.808 110.938 115.651C110.66 115.495 110.332 115.417 109.956 115.417C109.585 115.417 109.258 115.495 108.975 115.651C108.697 115.808 108.462 116.022 108.272 116.296C108.086 116.564 107.947 116.875 107.854 117.226C107.762 117.573 107.715 117.941 107.715 118.332ZM119.888 120.273C119.888 120.078 119.844 119.897 119.756 119.731C119.673 119.56 119.5 119.406 119.236 119.27C118.977 119.128 118.587 119.006 118.064 118.903C117.625 118.811 117.227 118.701 116.871 118.574C116.519 118.447 116.219 118.293 115.97 118.112C115.725 117.932 115.537 117.719 115.406 117.475C115.274 117.231 115.208 116.945 115.208 116.618C115.208 116.306 115.276 116.01 115.413 115.732C115.555 115.454 115.752 115.207 116.006 114.992C116.265 114.777 116.575 114.609 116.936 114.487C117.298 114.365 117.701 114.304 118.145 114.304C118.78 114.304 119.322 114.416 119.771 114.641C120.22 114.865 120.564 115.166 120.804 115.542C121.043 115.913 121.162 116.325 121.162 116.779H119.808C119.808 116.56 119.742 116.347 119.61 116.142C119.483 115.932 119.295 115.759 119.046 115.622C118.802 115.485 118.501 115.417 118.145 115.417C117.769 115.417 117.464 115.476 117.229 115.593C117 115.705 116.831 115.849 116.724 116.025C116.621 116.201 116.57 116.386 116.57 116.582C116.57 116.728 116.595 116.86 116.643 116.977C116.697 117.089 116.79 117.194 116.922 117.292C117.054 117.385 117.239 117.473 117.478 117.556C117.718 117.639 118.023 117.722 118.394 117.805C119.043 117.951 119.578 118.127 119.998 118.332C120.418 118.537 120.73 118.789 120.935 119.086C121.141 119.384 121.243 119.746 121.243 120.17C121.243 120.517 121.17 120.834 121.023 121.123C120.882 121.411 120.674 121.66 120.401 121.87C120.132 122.075 119.81 122.236 119.434 122.353C119.063 122.465 118.645 122.521 118.182 122.521C117.483 122.521 116.892 122.397 116.409 122.148C115.926 121.899 115.559 121.577 115.31 121.181C115.061 120.786 114.937 120.368 114.937 119.929H116.299C116.319 120.3 116.426 120.595 116.621 120.815C116.817 121.03 117.056 121.184 117.339 121.276C117.622 121.364 117.903 121.408 118.182 121.408C118.553 121.408 118.863 121.359 119.112 121.262C119.366 121.164 119.558 121.03 119.69 120.859C119.822 120.688 119.888 120.493 119.888 120.273ZM37.7396 133.974V143.422H36.3773V132.45H37.6225L37.7396 133.974ZM43.079 136.347V136.5C43.079 137.077 43.0106 137.611 42.8739 138.104C42.7372 138.593 42.537 139.018 42.2733 139.379C42.0145 139.74 41.6947 140.021 41.3139 140.221C40.933 140.421 40.496 140.521 40.0028 140.521C39.4999 140.521 39.0556 140.438 38.6698 140.272C38.2841 140.106 37.9569 139.865 37.6884 139.547C37.4198 139.23 37.205 138.849 37.0438 138.405C36.8876 137.96 36.7802 137.46 36.7216 136.903V136.083C36.7802 135.497 36.89 134.972 37.0512 134.508C37.2123 134.044 37.4247 133.649 37.6884 133.322C37.9569 132.99 38.2816 132.738 38.6625 132.567C39.0434 132.392 39.4828 132.304 39.9809 132.304C40.4789 132.304 40.9208 132.401 41.3065 132.597C41.6923 132.787 42.017 133.061 42.2807 133.417C42.5443 133.773 42.7421 134.201 42.8739 134.699C43.0106 135.192 43.079 135.741 43.079 136.347ZM41.7167 136.5V136.347C41.7167 135.951 41.6752 135.58 41.5922 135.233C41.5092 134.882 41.3798 134.574 41.204 134.311C41.0331 134.042 40.8134 133.832 40.5448 133.681C40.2763 133.524 39.9564 133.446 39.5854 133.446C39.2436 133.446 38.9457 133.505 38.6918 133.622C38.4428 133.739 38.2304 133.898 38.0546 134.098C37.8788 134.293 37.7348 134.518 37.6225 134.772C37.515 135.021 37.4345 135.28 37.3808 135.548V137.445C37.4784 137.787 37.6151 138.109 37.7909 138.412C37.9667 138.71 38.2011 138.952 38.494 139.137C38.787 139.318 39.1557 139.408 39.6 139.408C39.9662 139.408 40.2812 139.333 40.5448 139.181C40.8134 139.025 41.0331 138.812 41.204 138.544C41.3798 138.275 41.5092 137.968 41.5922 137.621C41.6752 137.27 41.7167 136.896 41.7167 136.5ZM49.4804 139.02V134.94C49.4804 134.628 49.4169 134.357 49.2899 134.127C49.1679 133.893 48.9823 133.712 48.7333 133.585C48.4843 133.458 48.1767 133.395 47.8104 133.395C47.4687 133.395 47.1684 133.454 46.9096 133.571C46.6557 133.688 46.4555 133.842 46.309 134.032C46.1674 134.223 46.0966 134.428 46.0966 134.647H44.7416C44.7416 134.364 44.8148 134.083 44.9613 133.805C45.1078 133.527 45.3178 133.275 45.5912 133.051C45.8695 132.821 46.2016 132.641 46.5873 132.509C46.9779 132.372 47.4125 132.304 47.891 132.304C48.4672 132.304 48.975 132.401 49.4145 132.597C49.8588 132.792 50.2055 133.087 50.4545 133.483C50.7084 133.874 50.8354 134.364 50.8354 134.955V138.646C50.8354 138.91 50.8573 139.191 50.9013 139.489C50.9501 139.787 51.0209 140.043 51.1137 140.258V140.375H49.7001C49.6317 140.219 49.578 140.011 49.539 139.752C49.4999 139.489 49.4804 139.245 49.4804 139.02ZM49.7147 135.57L49.7294 136.522H48.3598C47.974 136.522 47.6298 136.554 47.327 136.618C47.0243 136.676 46.7704 136.767 46.5653 136.889C46.3603 137.011 46.204 137.165 46.0966 137.35C45.9892 137.531 45.9354 137.743 45.9354 137.987C45.9354 138.236 45.9916 138.463 46.1039 138.668C46.2162 138.874 46.3847 139.037 46.6093 139.159C46.8388 139.276 47.1195 139.335 47.4516 139.335C47.8666 139.335 48.2328 139.247 48.5502 139.071C48.8676 138.896 49.119 138.681 49.3046 138.427C49.495 138.173 49.5976 137.926 49.6122 137.687L50.1908 138.339C50.1566 138.544 50.0639 138.771 49.9125 139.02C49.7611 139.269 49.5585 139.508 49.3046 139.738C49.0556 139.962 48.7577 140.15 48.411 140.302C48.0692 140.448 47.6835 140.521 47.2538 140.521C46.7167 140.521 46.2455 140.417 45.8402 140.207C45.4398 139.997 45.1273 139.716 44.9027 139.364C44.683 139.008 44.5731 138.61 44.5731 138.17C44.5731 137.746 44.6562 137.372 44.8222 137.05C44.9882 136.723 45.2274 136.452 45.5399 136.237C45.8524 136.017 46.2284 135.851 46.6679 135.739C47.1073 135.626 47.598 135.57 48.14 135.57H49.7147ZM54.3217 133.695V140.375H52.9667V132.45H54.2851L54.3217 133.695ZM56.7973 132.406L56.7899 133.666C56.6776 133.642 56.5702 133.627 56.4677 133.622C56.37 133.612 56.2577 133.607 56.1308 133.607C55.8183 133.607 55.5424 133.656 55.3031 133.754C55.0639 133.852 54.8612 133.988 54.6952 134.164C54.5292 134.34 54.3974 134.55 54.2997 134.794C54.2069 135.033 54.1459 135.297 54.1166 135.585L53.7357 135.805C53.7357 135.326 53.7821 134.877 53.8749 134.457C53.9726 134.037 54.1215 133.666 54.3217 133.344C54.5219 133.017 54.7758 132.763 55.0834 132.582C55.3959 132.396 55.767 132.304 56.1967 132.304C56.2943 132.304 56.4066 132.316 56.5336 132.34C56.6605 132.36 56.7484 132.382 56.7973 132.406ZM62.4296 139.02V134.94C62.4296 134.628 62.3661 134.357 62.2392 134.127C62.1171 133.893 61.9315 133.712 61.6825 133.585C61.4335 133.458 61.1259 133.395 60.7597 133.395C60.4179 133.395 60.1176 133.454 59.8588 133.571C59.6049 133.688 59.4047 133.842 59.2582 134.032C59.1166 134.223 59.0458 134.428 59.0458 134.647H57.6908C57.6908 134.364 57.7641 134.083 57.9105 133.805C58.057 133.527 58.267 133.275 58.5404 133.051C58.8187 132.821 59.1508 132.641 59.5365 132.509C59.9271 132.372 60.3617 132.304 60.8402 132.304C61.4164 132.304 61.9242 132.401 62.3637 132.597C62.808 132.792 63.1547 133.087 63.4037 133.483C63.6576 133.874 63.7846 134.364 63.7846 134.955V138.646C63.7846 138.91 63.8065 139.191 63.8505 139.489C63.8993 139.787 63.9701 140.043 64.0629 140.258V140.375H62.6493C62.581 140.219 62.5272 140.011 62.4882 139.752C62.4491 139.489 62.4296 139.245 62.4296 139.02ZM62.664 135.57L62.6786 136.522H61.309C60.9232 136.522 60.579 136.554 60.2763 136.618C59.9735 136.676 59.7196 136.767 59.5145 136.889C59.3095 137.011 59.1532 137.165 59.0458 137.35C58.9384 137.531 58.8847 137.743 58.8847 137.987C58.8847 138.236 58.9408 138.463 59.0531 138.668C59.1654 138.874 59.3339 139.037 59.5585 139.159C59.788 139.276 60.0687 139.335 60.4008 139.335C60.8158 139.335 61.182 139.247 61.4994 139.071C61.8168 138.896 62.0683 138.681 62.2538 138.427C62.4442 138.173 62.5468 137.926 62.5614 137.687L63.14 138.339C63.1059 138.544 63.0131 138.771 62.8617 139.02C62.7104 139.269 62.5077 139.508 62.2538 139.738C62.0048 139.962 61.7069 140.15 61.3603 140.302C61.0185 140.448 60.6327 140.521 60.203 140.521C59.6659 140.521 59.1947 140.417 58.7895 140.207C58.3891 139.997 58.0766 139.716 57.852 139.364C57.6322 139.008 57.5224 138.61 57.5224 138.17C57.5224 137.746 57.6054 137.372 57.7714 137.05C57.9374 136.723 58.1767 136.452 58.4892 136.237C58.8017 136.017 59.1776 135.851 59.6171 135.739C60.0565 135.626 60.5473 135.57 61.0893 135.57H62.664ZM73.2841 138.756L76.4262 129.711H77.9569L74.0092 140.375H72.9179L73.2841 138.756ZM70.3471 129.711L73.4599 138.756L73.848 140.375H72.7567L68.8163 129.711H70.3471ZM82.1537 140.521C81.602 140.521 81.1015 140.429 80.6522 140.243C80.2079 140.053 79.8246 139.787 79.5023 139.445C79.185 139.103 78.9408 138.698 78.7699 138.229C78.599 137.76 78.5136 137.248 78.5136 136.691V136.383C78.5136 135.739 78.6088 135.165 78.7992 134.662C78.9896 134.154 79.2484 133.725 79.5756 133.373C79.9027 133.021 80.2738 132.755 80.6889 132.575C81.1039 132.394 81.5336 132.304 81.9779 132.304C82.5443 132.304 83.0326 132.401 83.4428 132.597C83.8578 132.792 84.1972 133.065 84.4608 133.417C84.7245 133.764 84.9198 134.174 85.0468 134.647C85.1737 135.116 85.2372 135.629 85.2372 136.186V136.793H79.3192V135.688H83.8822V135.585C83.8627 135.233 83.7895 134.892 83.6625 134.56C83.5404 134.228 83.3451 133.954 83.0766 133.739C82.808 133.524 82.4418 133.417 81.9779 133.417C81.6703 133.417 81.3871 133.483 81.1283 133.615C80.8695 133.742 80.6474 133.932 80.4618 134.186C80.2763 134.44 80.1322 134.75 80.0297 135.116C79.9271 135.482 79.8759 135.905 79.8759 136.383V136.691C79.8759 137.067 79.9271 137.421 80.0297 137.753C80.1371 138.08 80.2909 138.368 80.4911 138.617C80.6962 138.866 80.9428 139.062 81.2309 139.203C81.5238 139.345 81.8559 139.416 82.227 139.416C82.7055 139.416 83.1107 139.318 83.4428 139.123C83.7748 138.927 84.0653 138.666 84.3144 138.339L85.1347 138.991C84.9638 139.25 84.7465 139.496 84.4828 139.73C84.2191 139.965 83.8944 140.155 83.5087 140.302C83.1278 140.448 82.6762 140.521 82.1537 140.521ZM88.1742 129.125V140.375H86.8192V129.125H88.1742ZM87.852 136.112L87.288 136.09C87.2929 135.548 87.3734 135.048 87.5297 134.589C87.6859 134.125 87.9057 133.722 88.1889 133.38C88.4721 133.039 88.809 132.775 89.1996 132.589C89.5951 132.399 90.0321 132.304 90.5106 132.304C90.9013 132.304 91.2528 132.357 91.5653 132.465C91.8778 132.567 92.1439 132.733 92.3637 132.963C92.5883 133.192 92.7592 133.49 92.8764 133.856C92.9936 134.218 93.0521 134.66 93.0521 135.182V140.375H91.6898V135.167C91.6898 134.752 91.6288 134.42 91.5067 134.171C91.3847 133.917 91.2064 133.734 90.9721 133.622C90.7377 133.505 90.4496 133.446 90.1078 133.446C89.7709 133.446 89.4633 133.517 89.185 133.659C88.9115 133.8 88.6747 133.996 88.4745 134.245C88.2792 134.494 88.1254 134.779 88.0131 135.102C87.9057 135.419 87.852 135.756 87.852 136.112ZM96.5458 132.45V140.375H95.1908V132.45H96.5458ZM95.1469 131.293L96.5678 129.14H98.2011L96.2382 131.293H95.1469ZM101.973 139.408C102.295 139.408 102.593 139.342 102.867 139.21C103.14 139.079 103.365 138.898 103.54 138.668C103.716 138.434 103.816 138.168 103.841 137.87H105.13C105.105 138.339 104.947 138.776 104.654 139.181C104.366 139.582 103.987 139.906 103.518 140.155C103.05 140.399 102.535 140.521 101.973 140.521C101.377 140.521 100.857 140.417 100.413 140.207C99.9735 139.997 99.6073 139.708 99.3144 139.342C99.0263 138.976 98.809 138.556 98.6625 138.083C98.5209 137.604 98.4501 137.099 98.4501 136.566V136.259C98.4501 135.727 98.5209 135.224 98.6625 134.75C98.809 134.271 99.0263 133.849 99.3144 133.483C99.6073 133.117 99.9735 132.829 100.413 132.619C100.857 132.409 101.377 132.304 101.973 132.304C102.593 132.304 103.135 132.431 103.599 132.685C104.063 132.934 104.427 133.275 104.69 133.71C104.959 134.14 105.105 134.628 105.13 135.175H103.841C103.816 134.848 103.724 134.552 103.562 134.289C103.406 134.025 103.191 133.815 102.918 133.659C102.649 133.498 102.334 133.417 101.973 133.417C101.558 133.417 101.209 133.5 100.926 133.666C100.647 133.827 100.425 134.047 100.259 134.325C100.098 134.599 99.9809 134.904 99.9076 135.241C99.8393 135.573 99.8051 135.912 99.8051 136.259V136.566C99.8051 136.913 99.8393 137.255 99.9076 137.592C99.976 137.929 100.091 138.234 100.252 138.507C100.418 138.781 100.64 139 100.918 139.167C101.202 139.328 101.553 139.408 101.973 139.408ZM111.502 138.544V132.45H112.864V140.375H111.568L111.502 138.544ZM111.758 136.874L112.322 136.859C112.322 137.387 112.266 137.875 112.154 138.324C112.046 138.769 111.871 139.154 111.626 139.481C111.382 139.809 111.062 140.065 110.667 140.25C110.271 140.431 109.79 140.521 109.224 140.521C108.838 140.521 108.484 140.465 108.162 140.353C107.845 140.241 107.571 140.067 107.342 139.833C107.112 139.599 106.934 139.293 106.807 138.917C106.685 138.542 106.624 138.09 106.624 137.562V132.45H107.979V137.577C107.979 137.934 108.018 138.229 108.096 138.463C108.179 138.693 108.289 138.876 108.426 139.013C108.567 139.145 108.724 139.237 108.894 139.291C109.07 139.345 109.251 139.372 109.436 139.372C110.013 139.372 110.469 139.262 110.806 139.042C111.143 138.817 111.385 138.517 111.531 138.141C111.683 137.76 111.758 137.338 111.758 136.874ZM116.402 129.125V140.375H115.039V129.125H116.402ZM118.218 136.5V136.332C118.218 135.761 118.301 135.231 118.467 134.743C118.633 134.25 118.872 133.822 119.185 133.461C119.497 133.095 119.876 132.812 120.32 132.611C120.765 132.406 121.263 132.304 121.814 132.304C122.371 132.304 122.871 132.406 123.316 132.611C123.765 132.812 124.146 133.095 124.458 133.461C124.776 133.822 125.017 134.25 125.183 134.743C125.35 135.231 125.433 135.761 125.433 136.332V136.5C125.433 137.072 125.35 137.602 125.183 138.09C125.017 138.578 124.776 139.005 124.458 139.372C124.146 139.733 123.767 140.016 123.323 140.221C122.884 140.421 122.386 140.521 121.829 140.521C121.272 140.521 120.772 140.421 120.328 140.221C119.883 140.016 119.502 139.733 119.185 139.372C118.872 139.005 118.633 138.578 118.467 138.09C118.301 137.602 118.218 137.072 118.218 136.5ZM119.573 136.332V136.5C119.573 136.896 119.62 137.27 119.712 137.621C119.805 137.968 119.944 138.275 120.13 138.544C120.32 138.812 120.557 139.025 120.84 139.181C121.123 139.333 121.453 139.408 121.829 139.408C122.2 139.408 122.525 139.333 122.803 139.181C123.086 139.025 123.321 138.812 123.506 138.544C123.692 138.275 123.831 137.968 123.924 137.621C124.021 137.27 124.07 136.896 124.07 136.5V136.332C124.07 135.941 124.021 135.573 123.924 135.226C123.831 134.875 123.689 134.564 123.499 134.296C123.313 134.022 123.079 133.808 122.796 133.651C122.517 133.495 122.19 133.417 121.814 133.417C121.443 133.417 121.116 133.495 120.833 133.651C120.555 133.808 120.32 134.022 120.13 134.296C119.944 134.564 119.805 134.875 119.712 135.226C119.62 135.573 119.573 135.941 119.573 136.332ZM131.746 138.273C131.746 138.078 131.702 137.897 131.614 137.731C131.531 137.56 131.358 137.406 131.094 137.27C130.835 137.128 130.445 137.006 129.922 136.903C129.483 136.811 129.085 136.701 128.728 136.574C128.377 136.447 128.077 136.293 127.828 136.112C127.583 135.932 127.395 135.719 127.264 135.475C127.132 135.231 127.066 134.945 127.066 134.618C127.066 134.306 127.134 134.01 127.271 133.732C127.412 133.454 127.61 133.207 127.864 132.992C128.123 132.777 128.433 132.609 128.794 132.487C129.156 132.365 129.558 132.304 130.003 132.304C130.638 132.304 131.18 132.416 131.629 132.641C132.078 132.865 132.422 133.166 132.662 133.542C132.901 133.913 133.02 134.325 133.02 134.779H131.665C131.665 134.56 131.6 134.347 131.468 134.142C131.341 133.932 131.153 133.759 130.904 133.622C130.66 133.485 130.359 133.417 130.003 133.417C129.627 133.417 129.322 133.476 129.087 133.593C128.858 133.705 128.689 133.849 128.582 134.025C128.479 134.201 128.428 134.386 128.428 134.582C128.428 134.728 128.453 134.86 128.501 134.977C128.555 135.089 128.648 135.194 128.78 135.292C128.912 135.385 129.097 135.473 129.336 135.556C129.576 135.639 129.881 135.722 130.252 135.805C130.901 135.951 131.436 136.127 131.856 136.332C132.276 136.537 132.588 136.789 132.793 137.086C132.998 137.384 133.101 137.746 133.101 138.17C133.101 138.517 133.028 138.834 132.881 139.123C132.74 139.411 132.532 139.66 132.259 139.87C131.99 140.075 131.668 140.236 131.292 140.353C130.921 140.465 130.503 140.521 130.039 140.521C129.341 140.521 128.75 140.397 128.267 140.148C127.784 139.899 127.417 139.577 127.168 139.181C126.919 138.786 126.795 138.368 126.795 137.929H128.157C128.177 138.3 128.284 138.595 128.479 138.815C128.675 139.03 128.914 139.184 129.197 139.276C129.48 139.364 129.761 139.408 130.039 139.408C130.411 139.408 130.721 139.359 130.97 139.262C131.224 139.164 131.416 139.03 131.548 138.859C131.68 138.688 131.746 138.493 131.746 138.273Z" fill="#333333"/>
<path d="M170 170.375V171.375H171V170.375H170ZM169 0.375V170.375H171V0.375H169ZM170 169.375H0V171.375H170V169.375Z" fill="#EAE6E6" mask="url(#path-1-inside-1_1_541)"/>
<defs>
<clipPath id="clip0_1_541">
<rect width="48" height="48" fill="white" transform="translate(62.5 46.375)"/>
</clipPath>
</defs>
</svg>
