<svg width="170" height="171" viewBox="0 0 170 171" fill="none" xmlns="http://www.w3.org/2000/svg">
<mask id="path-1-inside-1_1_570" fill="white">
<path d="M0 0.375H170V170.375H0V0.375Z"/>
</mask>
<path d="M0 0.375H170V170.375H0V0.375Z" fill="white"/>
<g clip-path="url(#clip0_1_570)">
<path d="M108.5 48.375H64.5V92.375H108.5V48.375Z" stroke="#3483FA" stroke-miterlimit="10" stroke-linecap="square"/>
<path d="M101.5 64.375H71.5V85.375H101.5V64.375Z" stroke="#3483FA" stroke-miterlimit="10" stroke-linecap="square"/>
<path d="M92.5 72.375V74.375H80.5V72.375" stroke="#3483FA" stroke-miterlimit="10" stroke-linecap="square"/>
<path d="M86.5 58.375C87.6046 58.375 88.5 57.4796 88.5 56.375C88.5 55.2704 87.6046 54.375 86.5 54.375C85.3954 54.375 84.5 55.2704 84.5 56.375C84.5 57.4796 85.3954 58.375 86.5 58.375Z" stroke="#3483FA" stroke-miterlimit="10" stroke-linecap="square"/>
<path d="M73.5 58.375C74.6046 58.375 75.5 57.4796 75.5 56.375C75.5 55.2704 74.6046 54.375 73.5 54.375C72.3954 54.375 71.5 55.2704 71.5 56.375C71.5 57.4796 72.3954 58.375 73.5 58.375Z" stroke="#3483FA" stroke-miterlimit="10" stroke-linecap="square"/>
<path d="M99.5 58.375C100.605 58.375 101.5 57.4796 101.5 56.375C101.5 55.2704 100.605 54.375 99.5 54.375C98.3954 54.375 97.5 55.2704 97.5 56.375C97.5 57.4796 98.3954 58.375 99.5 58.375Z" stroke="#3483FA" stroke-miterlimit="10" stroke-linecap="square"/>
</g>
<path d="M33.7533 119.302V120.375H28.4828V119.302H33.7533ZM28.7494 110.422V120.375H27.4301V110.422H28.7494ZM33.0561 114.701V115.774H28.4828V114.701H33.0561ZM33.685 110.422V111.502H28.4828V110.422H33.685ZM36.5697 109.875V120.375H35.2982V109.875H36.5697ZM41.6693 120.512C41.1544 120.512 40.6872 120.425 40.268 120.252C39.8533 120.074 39.4955 119.826 39.1947 119.507C38.8985 119.188 38.6706 118.81 38.5111 118.372C38.3516 117.935 38.2719 117.456 38.2719 116.937V116.649C38.2719 116.048 38.3607 115.512 38.5385 115.043C38.7162 114.569 38.9577 114.168 39.2631 113.84C39.5684 113.512 39.9148 113.263 40.3021 113.095C40.6895 112.926 41.0906 112.842 41.5053 112.842C42.0339 112.842 42.4896 112.933 42.8725 113.115C43.2598 113.298 43.5766 113.553 43.8227 113.881C44.0687 114.204 44.251 114.587 44.3695 115.029C44.488 115.467 44.5473 115.945 44.5473 116.465V117.032H39.0238V116H43.2826V115.904C43.2644 115.576 43.196 115.257 43.0775 114.947C42.9636 114.637 42.7813 114.382 42.5307 114.182C42.28 113.981 41.9382 113.881 41.5053 113.881C41.2182 113.881 40.9538 113.942 40.7123 114.065C40.4708 114.184 40.2634 114.362 40.0902 114.599C39.9171 114.836 39.7826 115.125 39.6869 115.467C39.5912 115.809 39.5434 116.203 39.5434 116.649V116.937C39.5434 117.287 39.5912 117.618 39.6869 117.928C39.7872 118.233 39.9307 118.502 40.1176 118.734C40.309 118.967 40.5391 119.149 40.808 119.281C41.0814 119.413 41.3913 119.479 41.7377 119.479C42.1843 119.479 42.5626 119.388 42.8725 119.206C43.1824 119.024 43.4535 118.78 43.6859 118.475L44.4516 119.083C44.2921 119.325 44.0893 119.555 43.8432 119.773C43.5971 119.992 43.294 120.17 42.934 120.307C42.5785 120.443 42.157 120.512 41.6693 120.512ZM48.9838 119.473C49.2846 119.473 49.5626 119.411 49.8178 119.288C50.073 119.165 50.2826 118.996 50.4467 118.782C50.6107 118.563 50.7042 118.315 50.727 118.037H51.9301C51.9073 118.475 51.7592 118.882 51.4857 119.261C51.2169 119.634 50.8637 119.938 50.4262 120.17C49.9887 120.398 49.5079 120.512 48.9838 120.512C48.4278 120.512 47.9424 120.414 47.5277 120.218C47.1176 120.022 46.7758 119.753 46.5023 119.411C46.2335 119.069 46.0307 118.677 45.8939 118.235C45.7618 117.789 45.6957 117.317 45.6957 116.82V116.533C45.6957 116.036 45.7618 115.567 45.8939 115.125C46.0307 114.678 46.2335 114.284 46.5023 113.942C46.7758 113.601 47.1176 113.332 47.5277 113.136C47.9424 112.94 48.4278 112.842 48.9838 112.842C49.5626 112.842 50.0684 112.96 50.5014 113.197C50.9343 113.43 51.2738 113.749 51.5199 114.154C51.7706 114.555 51.9073 115.011 51.9301 115.521H50.727C50.7042 115.216 50.6176 114.94 50.4672 114.694C50.3214 114.448 50.1208 114.252 49.8656 114.106C49.615 113.956 49.321 113.881 48.9838 113.881C48.5964 113.881 48.2706 113.958 48.0062 114.113C47.7465 114.264 47.5391 114.469 47.3842 114.729C47.2338 114.984 47.1244 115.269 47.0561 115.583C46.9923 115.893 46.9604 116.21 46.9604 116.533V116.82C46.9604 117.144 46.9923 117.463 47.0561 117.777C47.1199 118.092 47.227 118.377 47.3773 118.632C47.5323 118.887 47.7396 119.092 47.9994 119.247C48.2637 119.397 48.5919 119.473 48.9838 119.473ZM56.4486 112.979V113.949H52.4496V112.979H56.4486ZM53.8031 111.181H55.0678V118.543C55.0678 118.794 55.1065 118.983 55.184 119.11C55.2615 119.238 55.3617 119.322 55.4848 119.363C55.6078 119.404 55.74 119.425 55.8812 119.425C55.9861 119.425 56.0954 119.416 56.2094 119.397C56.3279 119.375 56.4167 119.356 56.476 119.343L56.4828 120.375C56.3826 120.407 56.2504 120.437 56.0863 120.464C55.9268 120.496 55.7331 120.512 55.5053 120.512C55.1954 120.512 54.9105 120.45 54.6508 120.327C54.391 120.204 54.1837 119.999 54.0287 119.712C53.8783 119.42 53.8031 119.028 53.8031 118.536V111.181ZM59.1967 114.141V120.375H57.932V112.979H59.1625L59.1967 114.141ZM61.5072 112.938L61.5004 114.113C61.3956 114.09 61.2953 114.077 61.1996 114.072C61.1085 114.063 61.0036 114.059 60.8852 114.059C60.5935 114.059 60.336 114.104 60.1127 114.195C59.8894 114.286 59.7003 114.414 59.5453 114.578C59.3904 114.742 59.2673 114.938 59.1762 115.166C59.0896 115.389 59.0326 115.635 59.0053 115.904L58.6498 116.109C58.6498 115.663 58.6931 115.243 58.7797 114.852C58.8708 114.46 59.0098 114.113 59.1967 113.812C59.3835 113.507 59.6205 113.27 59.9076 113.102C60.1993 112.928 60.5456 112.842 60.9467 112.842C61.0378 112.842 61.1426 112.853 61.2611 112.876C61.3796 112.894 61.4617 112.915 61.5072 112.938ZM62.2045 116.759V116.602C62.2045 116.068 62.282 115.574 62.4369 115.118C62.5919 114.658 62.8152 114.259 63.1068 113.922C63.3985 113.58 63.7517 113.316 64.1664 113.129C64.5811 112.938 65.046 112.842 65.5609 112.842C66.0805 112.842 66.5476 112.938 66.9623 113.129C67.3816 113.316 67.737 113.58 68.0287 113.922C68.3249 114.259 68.5505 114.658 68.7055 115.118C68.8604 115.574 68.9379 116.068 68.9379 116.602V116.759C68.9379 117.292 68.8604 117.786 68.7055 118.242C68.5505 118.698 68.3249 119.097 68.0287 119.438C67.737 119.776 67.3839 120.04 66.9691 120.231C66.559 120.418 66.0941 120.512 65.5746 120.512C65.0551 120.512 64.588 120.418 64.1732 120.231C63.7585 120.04 63.4031 119.776 63.1068 119.438C62.8152 119.097 62.5919 118.698 62.4369 118.242C62.282 117.786 62.2045 117.292 62.2045 116.759ZM63.4691 116.602V116.759C63.4691 117.128 63.5124 117.477 63.599 117.805C63.6856 118.128 63.8155 118.415 63.9887 118.666C64.1664 118.917 64.3874 119.115 64.6518 119.261C64.9161 119.402 65.2237 119.473 65.5746 119.473C65.921 119.473 66.224 119.402 66.4838 119.261C66.7481 119.115 66.9669 118.917 67.14 118.666C67.3132 118.415 67.4431 118.128 67.5297 117.805C67.6208 117.477 67.6664 117.128 67.6664 116.759V116.602C67.6664 116.237 67.6208 115.893 67.5297 115.569C67.4431 115.241 67.3109 114.952 67.1332 114.701C66.96 114.446 66.7413 114.245 66.477 114.1C66.2172 113.954 65.9118 113.881 65.5609 113.881C65.2146 113.881 64.9092 113.954 64.6449 114.1C64.3852 114.245 64.1664 114.446 63.9887 114.701C63.8155 114.952 63.6856 115.241 63.599 115.569C63.5124 115.893 63.4691 116.237 63.4691 116.602ZM75.1859 118.939V109.875H76.4574V120.375H75.2953L75.1859 118.939ZM70.2094 116.759V116.615C70.2094 116.05 70.2777 115.537 70.4145 115.077C70.5557 114.612 70.754 114.214 71.0092 113.881C71.2689 113.548 71.5766 113.293 71.932 113.115C72.2921 112.933 72.6931 112.842 73.1352 112.842C73.6 112.842 74.0056 112.924 74.352 113.088C74.7029 113.247 74.9991 113.482 75.2406 113.792C75.4867 114.097 75.6804 114.466 75.8217 114.899C75.963 115.332 76.0609 115.822 76.1156 116.369V116.998C76.0655 117.54 75.9675 118.028 75.8217 118.461C75.6804 118.894 75.4867 119.263 75.2406 119.568C74.9991 119.874 74.7029 120.108 74.352 120.272C74.001 120.432 73.5909 120.512 73.1215 120.512C72.6885 120.512 72.2921 120.418 71.932 120.231C71.5766 120.045 71.2689 119.783 71.0092 119.445C70.754 119.108 70.5557 118.712 70.4145 118.256C70.2777 117.796 70.2094 117.297 70.2094 116.759ZM71.4809 116.615V116.759C71.4809 117.128 71.5173 117.474 71.5902 117.798C71.6677 118.121 71.7862 118.406 71.9457 118.652C72.1052 118.898 72.308 119.092 72.5541 119.233C72.8002 119.37 73.0941 119.438 73.4359 119.438C73.8552 119.438 74.1993 119.35 74.4682 119.172C74.7416 118.994 74.9604 118.759 75.1244 118.468C75.2885 118.176 75.4161 117.859 75.5072 117.518V115.87C75.4525 115.619 75.3728 115.378 75.268 115.146C75.1677 114.909 75.0355 114.699 74.8715 114.517C74.712 114.33 74.5137 114.182 74.2768 114.072C74.0443 113.963 73.7686 113.908 73.4496 113.908C73.1033 113.908 72.8048 113.981 72.5541 114.127C72.308 114.268 72.1052 114.464 71.9457 114.715C71.7862 114.961 71.6677 115.248 71.5902 115.576C71.5173 115.9 71.4809 116.246 71.4809 116.615ZM78.0912 116.759V116.602C78.0912 116.068 78.1687 115.574 78.3236 115.118C78.4786 114.658 78.7019 114.259 78.9936 113.922C79.2852 113.58 79.6384 113.316 80.0531 113.129C80.4678 112.938 80.9327 112.842 81.4477 112.842C81.9672 112.842 82.4343 112.938 82.849 113.129C83.2683 113.316 83.6238 113.58 83.9154 113.922C84.2117 114.259 84.4372 114.658 84.5922 115.118C84.7471 115.574 84.8246 116.068 84.8246 116.602V116.759C84.8246 117.292 84.7471 117.786 84.5922 118.242C84.4372 118.698 84.2117 119.097 83.9154 119.438C83.6238 119.776 83.2706 120.04 82.8559 120.231C82.4457 120.418 81.9809 120.512 81.4613 120.512C80.9418 120.512 80.4747 120.418 80.06 120.231C79.6452 120.04 79.2898 119.776 78.9936 119.438C78.7019 119.097 78.4786 118.698 78.3236 118.242C78.1687 117.786 78.0912 117.292 78.0912 116.759ZM79.3559 116.602V116.759C79.3559 117.128 79.3992 117.477 79.4857 117.805C79.5723 118.128 79.7022 118.415 79.8754 118.666C80.0531 118.917 80.2742 119.115 80.5385 119.261C80.8028 119.402 81.1104 119.473 81.4613 119.473C81.8077 119.473 82.1107 119.402 82.3705 119.261C82.6348 119.115 82.8536 118.917 83.0268 118.666C83.1999 118.415 83.3298 118.128 83.4164 117.805C83.5076 117.477 83.5531 117.128 83.5531 116.759V116.602C83.5531 116.237 83.5076 115.893 83.4164 115.569C83.3298 115.241 83.1977 114.952 83.0199 114.701C82.8467 114.446 82.628 114.245 82.3637 114.1C82.1039 113.954 81.7986 113.881 81.4477 113.881C81.1013 113.881 80.796 113.954 80.5316 114.1C80.2719 114.245 80.0531 114.446 79.8754 114.701C79.7022 114.952 79.5723 115.241 79.4857 115.569C79.3992 115.893 79.3559 116.237 79.3559 116.602ZM87.6684 114.448V120.375H86.3969V112.979H87.6L87.6684 114.448ZM87.4086 116.396L86.8207 116.376C86.8253 115.87 86.8913 115.403 87.0189 114.975C87.1465 114.542 87.3357 114.166 87.5863 113.847C87.837 113.528 88.1492 113.282 88.5229 113.108C88.8965 112.931 89.3295 112.842 89.8217 112.842C90.168 112.842 90.487 112.892 90.7787 112.992C91.0704 113.088 91.3233 113.241 91.5375 113.45C91.7517 113.66 91.918 113.929 92.0365 114.257C92.155 114.585 92.2143 114.981 92.2143 115.446V120.375H90.9496V115.508C90.9496 115.12 90.8835 114.811 90.7514 114.578C90.6238 114.346 90.4415 114.177 90.2045 114.072C89.9675 113.963 89.6895 113.908 89.3705 113.908C88.9968 113.908 88.6846 113.974 88.434 114.106C88.1833 114.239 87.9828 114.421 87.8324 114.653C87.682 114.886 87.5727 115.152 87.5043 115.453C87.4405 115.749 87.4086 116.064 87.4086 116.396ZM92.2006 115.699L91.3529 115.959C91.3575 115.553 91.4236 115.164 91.5512 114.79C91.6833 114.416 91.8725 114.084 92.1186 113.792C92.3692 113.5 92.6768 113.27 93.0414 113.102C93.406 112.928 93.823 112.842 94.2924 112.842C94.6889 112.842 95.0398 112.894 95.3451 112.999C95.655 113.104 95.9148 113.266 96.1244 113.484C96.3386 113.699 96.5004 113.974 96.6098 114.312C96.7191 114.649 96.7738 115.05 96.7738 115.515V120.375H95.5023V115.501C95.5023 115.086 95.4363 114.765 95.3041 114.537C95.1765 114.305 94.9942 114.143 94.7572 114.052C94.5248 113.956 94.2468 113.908 93.9232 113.908C93.6452 113.908 93.3992 113.956 93.185 114.052C92.9708 114.147 92.7908 114.28 92.6449 114.448C92.4991 114.612 92.3874 114.801 92.31 115.016C92.237 115.23 92.2006 115.458 92.2006 115.699ZM101.757 120.512C101.242 120.512 100.775 120.425 100.356 120.252C99.9411 120.074 99.5834 119.826 99.2826 119.507C98.9864 119.188 98.7585 118.81 98.599 118.372C98.4395 117.935 98.3598 117.456 98.3598 116.937V116.649C98.3598 116.048 98.4486 115.512 98.6264 115.043C98.8041 114.569 99.0456 114.168 99.351 113.84C99.6563 113.512 100.003 113.263 100.39 113.095C100.777 112.926 101.178 112.842 101.593 112.842C102.122 112.842 102.578 112.933 102.96 113.115C103.348 113.298 103.664 113.553 103.911 113.881C104.157 114.204 104.339 114.587 104.457 115.029C104.576 115.467 104.635 115.945 104.635 116.465V117.032H99.1117V116H103.371V115.904C103.352 115.576 103.284 115.257 103.165 114.947C103.051 114.637 102.869 114.382 102.619 114.182C102.368 113.981 102.026 113.881 101.593 113.881C101.306 113.881 101.042 113.942 100.8 114.065C100.559 114.184 100.351 114.362 100.178 114.599C100.005 114.836 99.8705 115.125 99.7748 115.467C99.6791 115.809 99.6312 116.203 99.6312 116.649V116.937C99.6312 117.287 99.6791 117.618 99.7748 117.928C99.8751 118.233 100.019 118.502 100.205 118.734C100.397 118.967 100.627 119.149 100.896 119.281C101.169 119.413 101.479 119.479 101.826 119.479C102.272 119.479 102.65 119.388 102.96 119.206C103.27 119.024 103.541 118.78 103.774 118.475L104.539 119.083C104.38 119.325 104.177 119.555 103.931 119.773C103.685 119.992 103.382 120.17 103.022 120.307C102.666 120.443 102.245 120.512 101.757 120.512ZM100.889 111.885L102.215 109.875H103.74L101.908 111.885H100.889ZM110.418 118.413C110.418 118.231 110.377 118.062 110.295 117.907C110.218 117.748 110.056 117.604 109.81 117.477C109.568 117.344 109.204 117.23 108.716 117.135C108.306 117.048 107.935 116.946 107.602 116.827C107.274 116.709 106.994 116.565 106.761 116.396C106.533 116.228 106.358 116.03 106.235 115.802C106.112 115.574 106.05 115.307 106.05 115.002C106.05 114.71 106.114 114.435 106.242 114.175C106.374 113.915 106.558 113.685 106.795 113.484C107.037 113.284 107.326 113.127 107.663 113.013C108.001 112.899 108.377 112.842 108.791 112.842C109.384 112.842 109.89 112.947 110.309 113.156C110.728 113.366 111.05 113.646 111.273 113.997C111.496 114.343 111.608 114.729 111.608 115.152H110.343C110.343 114.947 110.282 114.749 110.159 114.558C110.04 114.362 109.865 114.2 109.632 114.072C109.404 113.945 109.124 113.881 108.791 113.881C108.44 113.881 108.156 113.936 107.937 114.045C107.723 114.15 107.565 114.284 107.465 114.448C107.37 114.612 107.322 114.785 107.322 114.968C107.322 115.104 107.344 115.228 107.39 115.337C107.44 115.442 107.527 115.54 107.65 115.631C107.773 115.717 107.946 115.799 108.169 115.877C108.393 115.954 108.677 116.032 109.024 116.109C109.63 116.246 110.129 116.41 110.521 116.602C110.913 116.793 111.204 117.028 111.396 117.306C111.587 117.584 111.683 117.921 111.683 118.317C111.683 118.641 111.615 118.937 111.478 119.206C111.346 119.475 111.152 119.707 110.897 119.903C110.646 120.095 110.345 120.245 109.995 120.354C109.648 120.459 109.259 120.512 108.826 120.512C108.174 120.512 107.622 120.396 107.171 120.163C106.72 119.931 106.378 119.63 106.146 119.261C105.913 118.892 105.797 118.502 105.797 118.092H107.069C107.087 118.438 107.187 118.714 107.37 118.919C107.552 119.119 107.775 119.263 108.039 119.35C108.304 119.432 108.566 119.473 108.826 119.473C109.172 119.473 109.461 119.427 109.694 119.336C109.931 119.245 110.111 119.119 110.234 118.96C110.357 118.8 110.418 118.618 110.418 118.413ZM116.441 112.979V113.949H112.442V112.979H116.441ZM113.795 111.181H115.06V118.543C115.06 118.794 115.099 118.983 115.176 119.11C115.254 119.238 115.354 119.322 115.477 119.363C115.6 119.404 115.732 119.425 115.873 119.425C115.978 119.425 116.088 119.416 116.202 119.397C116.32 119.375 116.409 119.356 116.468 119.343L116.475 120.375C116.375 120.407 116.243 120.437 116.079 120.464C115.919 120.496 115.725 120.512 115.497 120.512C115.188 120.512 114.903 120.45 114.643 120.327C114.383 120.204 114.176 119.999 114.021 119.712C113.871 119.42 113.795 119.028 113.795 118.536V111.181ZM119.298 112.979V120.375H118.027V112.979H119.298ZM117.931 111.017C117.931 110.812 117.993 110.638 118.116 110.497C118.243 110.356 118.43 110.285 118.676 110.285C118.918 110.285 119.102 110.356 119.23 110.497C119.362 110.638 119.428 110.812 119.428 111.017C119.428 111.213 119.362 111.381 119.23 111.522C119.102 111.659 118.918 111.728 118.676 111.728C118.43 111.728 118.243 111.659 118.116 111.522C117.993 111.381 117.931 111.213 117.931 111.017ZM124.288 119.473C124.589 119.473 124.867 119.411 125.122 119.288C125.378 119.165 125.587 118.996 125.751 118.782C125.915 118.563 126.009 118.315 126.032 118.037H127.235C127.212 118.475 127.064 118.882 126.79 119.261C126.522 119.634 126.168 119.938 125.731 120.17C125.293 120.398 124.813 120.512 124.288 120.512C123.732 120.512 123.247 120.414 122.832 120.218C122.422 120.022 122.08 119.753 121.807 119.411C121.538 119.069 121.335 118.677 121.199 118.235C121.066 117.789 121 117.317 121 116.82V116.533C121 116.036 121.066 115.567 121.199 115.125C121.335 114.678 121.538 114.284 121.807 113.942C122.08 113.601 122.422 113.332 122.832 113.136C123.247 112.94 123.732 112.842 124.288 112.842C124.867 112.842 125.373 112.96 125.806 113.197C126.239 113.43 126.579 113.749 126.825 114.154C127.075 114.555 127.212 115.011 127.235 115.521H126.032C126.009 115.216 125.922 114.94 125.772 114.694C125.626 114.448 125.426 114.252 125.17 114.106C124.92 113.956 124.626 113.881 124.288 113.881C123.901 113.881 123.575 113.958 123.311 114.113C123.051 114.264 122.844 114.469 122.689 114.729C122.538 114.984 122.429 115.269 122.361 115.583C122.297 115.893 122.265 116.21 122.265 116.533V116.82C122.265 117.144 122.297 117.463 122.361 117.777C122.425 118.092 122.532 118.377 122.682 118.632C122.837 118.887 123.044 119.092 123.304 119.247C123.568 119.397 123.897 119.473 124.288 119.473ZM128.322 116.759V116.602C128.322 116.068 128.399 115.574 128.554 115.118C128.709 114.658 128.932 114.259 129.224 113.922C129.516 113.58 129.869 113.316 130.284 113.129C130.698 112.938 131.163 112.842 131.678 112.842C132.198 112.842 132.665 112.938 133.079 113.129C133.499 113.316 133.854 113.58 134.146 113.922C134.442 114.259 134.668 114.658 134.823 115.118C134.978 115.574 135.055 116.068 135.055 116.602V116.759C135.055 117.292 134.978 117.786 134.823 118.242C134.668 118.698 134.442 119.097 134.146 119.438C133.854 119.776 133.501 120.04 133.086 120.231C132.676 120.418 132.211 120.512 131.692 120.512C131.172 120.512 130.705 120.418 130.29 120.231C129.876 120.04 129.52 119.776 129.224 119.438C128.932 119.097 128.709 118.698 128.554 118.242C128.399 117.786 128.322 117.292 128.322 116.759ZM129.586 116.602V116.759C129.586 117.128 129.63 117.477 129.716 117.805C129.803 118.128 129.933 118.415 130.106 118.666C130.284 118.917 130.505 119.115 130.769 119.261C131.033 119.402 131.341 119.473 131.692 119.473C132.038 119.473 132.341 119.402 132.601 119.261C132.865 119.115 133.084 118.917 133.257 118.666C133.43 118.415 133.56 118.128 133.647 117.805C133.738 117.477 133.784 117.128 133.784 116.759V116.602C133.784 116.237 133.738 115.893 133.647 115.569C133.56 115.241 133.428 114.952 133.25 114.701C133.077 114.446 132.858 114.245 132.594 114.1C132.334 113.954 132.029 113.881 131.678 113.881C131.332 113.881 131.026 113.954 130.762 114.1C130.502 114.245 130.284 114.446 130.106 114.701C129.933 114.952 129.803 115.241 129.716 115.569C129.63 115.893 129.586 116.237 129.586 116.602ZM140.948 118.413C140.948 118.231 140.907 118.062 140.825 117.907C140.747 117.748 140.585 117.604 140.339 117.477C140.098 117.344 139.733 117.23 139.246 117.135C138.835 117.048 138.464 116.946 138.131 116.827C137.803 116.709 137.523 116.565 137.29 116.396C137.063 116.228 136.887 116.03 136.764 115.802C136.641 115.574 136.579 115.307 136.579 115.002C136.579 114.71 136.643 114.435 136.771 114.175C136.903 113.915 137.088 113.685 137.325 113.484C137.566 113.284 137.856 113.127 138.193 113.013C138.53 112.899 138.906 112.842 139.321 112.842C139.913 112.842 140.419 112.947 140.838 113.156C141.258 113.366 141.579 113.646 141.802 113.997C142.025 114.343 142.137 114.729 142.137 115.152H140.872C140.872 114.947 140.811 114.749 140.688 114.558C140.569 114.362 140.394 114.2 140.162 114.072C139.934 113.945 139.653 113.881 139.321 113.881C138.97 113.881 138.685 113.936 138.466 114.045C138.252 114.15 138.095 114.284 137.995 114.448C137.899 114.612 137.851 114.785 137.851 114.968C137.851 115.104 137.874 115.228 137.919 115.337C137.969 115.442 138.056 115.54 138.179 115.631C138.302 115.717 138.475 115.799 138.699 115.877C138.922 115.954 139.207 116.032 139.553 116.109C140.159 116.246 140.658 116.41 141.05 116.602C141.442 116.793 141.734 117.028 141.925 117.306C142.117 117.584 142.212 117.921 142.212 118.317C142.212 118.641 142.144 118.937 142.007 119.206C141.875 119.475 141.681 119.707 141.426 119.903C141.176 120.095 140.875 120.245 140.524 120.354C140.177 120.459 139.788 120.512 139.355 120.512C138.703 120.512 138.152 120.396 137.701 120.163C137.249 119.931 136.908 119.63 136.675 119.261C136.443 118.892 136.327 118.502 136.327 118.092H137.598C137.616 118.438 137.717 118.714 137.899 118.919C138.081 119.119 138.304 119.263 138.569 119.35C138.833 119.432 139.095 119.473 139.355 119.473C139.701 119.473 139.991 119.427 140.223 119.336C140.46 119.245 140.64 119.119 140.763 118.96C140.886 118.8 140.948 118.618 140.948 118.413Z" fill="#333333"/>
<path d="M170 170.375V171.375H171V170.375H170ZM169 0.375V170.375H171V0.375H169ZM170 169.375H0V171.375H170V169.375Z" fill="#EAE6E6" mask="url(#path-1-inside-1_1_570)"/>
<defs>
<clipPath id="clip0_1_570">
<rect width="48" height="48" fill="white" transform="translate(62.5 46.375)"/>
</clipPath>
</defs>
</svg>
