<svg width="170" height="171" viewBox="0 0 170 171" fill="none" xmlns="http://www.w3.org/2000/svg">
<mask id="path-1-inside-1_1_602" fill="white">
<path d="M0 0.375H170V170.375H0V0.375Z"/>
</mask>
<path d="M0 0.375H170V170.375H0V0.375Z" fill="white"/>
<g clip-path="url(#clip0_1_602)">
<path d="M69.5 52.375H74.5" stroke="#3483FA" stroke-miterlimit="10" stroke-linecap="square"/>
<path d="M67.5 89.375H105.5C107.157 89.375 108.5 88.032 108.5 86.375V60.375C108.5 58.718 107.157 57.375 105.5 57.375H97.5L93.501 51.375H83.5L79.5 57.375H67.5C65.843 57.375 64.5 58.718 64.5 60.375V86.375C64.5 88.032 65.843 89.375 67.5 89.375Z" stroke="#3483FA" stroke-miterlimit="10" stroke-linecap="square"/>
<path d="M88.5 83.375C94.0228 83.375 98.5 78.8978 98.5 73.375C98.5 67.8522 94.0228 63.375 88.5 63.375C82.9772 63.375 78.5 67.8522 78.5 73.375C78.5 78.8978 82.9772 83.375 88.5 83.375Z" stroke="#3483FA" stroke-miterlimit="10" stroke-linecap="square"/>
<path d="M72.5 66.375C73.0523 66.375 73.5 65.9273 73.5 65.375C73.5 64.8227 73.0523 64.375 72.5 64.375C71.9477 64.375 71.5 64.8227 71.5 65.375C71.5 65.9273 71.9477 66.375 72.5 66.375Z" stroke="#3483FA" stroke-miterlimit="10" stroke-linecap="square"/>
<path d="M72.5 66.375C73.0523 66.375 73.5 65.9273 73.5 65.375C73.5 64.8227 73.0523 64.375 72.5 64.375C71.9477 64.375 71.5 64.8227 71.5 65.375C71.5 65.9273 71.9477 66.375 72.5 66.375Z" fill="#3483FA"/>
</g>
<path d="M58.7318 120.21H60.0443C59.976 120.839 59.796 121.402 59.5043 121.898C59.2126 122.395 58.8002 122.789 58.267 123.081C57.7338 123.368 57.0684 123.512 56.2709 123.512C55.6876 123.512 55.1566 123.402 54.6781 123.184C54.2042 122.965 53.7963 122.655 53.4545 122.254C53.1127 121.848 52.8484 121.363 52.6615 120.798C52.4792 120.228 52.3881 119.595 52.3881 118.897V117.906C52.3881 117.209 52.4792 116.578 52.6615 116.013C52.8484 115.443 53.115 114.955 53.4613 114.55C53.8122 114.144 54.2338 113.832 54.726 113.613C55.2182 113.395 55.7719 113.285 56.3871 113.285C57.1391 113.285 57.7748 113.426 58.2943 113.709C58.8139 113.992 59.2172 114.383 59.5043 114.885C59.796 115.382 59.976 115.958 60.0443 116.614H58.7318C58.668 116.149 58.5495 115.751 58.3764 115.418C58.2032 115.081 57.9571 114.821 57.6381 114.639C57.3191 114.456 56.9021 114.365 56.3871 114.365C55.9451 114.365 55.5554 114.45 55.2182 114.618C54.8855 114.787 54.6052 115.026 54.3773 115.336C54.154 115.646 53.9854 116.017 53.8715 116.45C53.7576 116.883 53.7006 117.364 53.7006 117.893V118.897C53.7006 119.385 53.7507 119.843 53.851 120.271C53.9558 120.7 54.113 121.076 54.3227 121.399C54.5323 121.723 54.7989 121.978 55.1225 122.165C55.446 122.347 55.8288 122.438 56.2709 122.438C56.8314 122.438 57.2781 122.35 57.6107 122.172C57.9434 121.994 58.1941 121.739 58.3627 121.406C58.5359 121.074 58.6589 120.675 58.7318 120.21ZM66.0121 122.11V118.303C66.0121 118.011 65.9529 117.758 65.8344 117.544C65.7204 117.325 65.5473 117.157 65.3148 117.038C65.0824 116.92 64.7953 116.86 64.4535 116.86C64.1345 116.86 63.8542 116.915 63.6127 117.024C63.3757 117.134 63.1889 117.277 63.0521 117.455C62.92 117.633 62.8539 117.824 62.8539 118.029H61.5893C61.5893 117.765 61.6576 117.503 61.7943 117.243C61.9311 116.983 62.127 116.749 62.3822 116.539C62.642 116.325 62.9519 116.156 63.3119 116.033C63.6765 115.906 64.0821 115.842 64.5287 115.842C65.0665 115.842 65.5404 115.933 65.9506 116.115C66.3653 116.298 66.6889 116.573 66.9213 116.942C67.1583 117.307 67.2768 117.765 67.2768 118.316V121.762C67.2768 122.008 67.2973 122.27 67.3383 122.548C67.3839 122.826 67.4499 123.065 67.5365 123.266V123.375H66.2172C66.1534 123.229 66.1033 123.035 66.0668 122.794C66.0303 122.548 66.0121 122.32 66.0121 122.11ZM66.2309 118.891L66.2445 119.779H64.9662C64.6062 119.779 64.2849 119.809 64.0023 119.868C63.7198 119.923 63.4828 120.007 63.2914 120.121C63.1 120.235 62.9542 120.379 62.8539 120.552C62.7536 120.72 62.7035 120.919 62.7035 121.146C62.7035 121.379 62.7559 121.591 62.8607 121.782C62.9656 121.974 63.1228 122.126 63.3324 122.24C63.5466 122.35 63.8087 122.404 64.1186 122.404C64.5059 122.404 64.8477 122.322 65.1439 122.158C65.4402 121.994 65.6749 121.794 65.848 121.557C66.0258 121.32 66.1215 121.09 66.1352 120.866L66.6752 121.475C66.6433 121.666 66.5567 121.878 66.4154 122.11C66.2742 122.343 66.085 122.566 65.848 122.78C65.6156 122.99 65.3376 123.165 65.0141 123.307C64.6951 123.443 64.335 123.512 63.934 123.512C63.4327 123.512 62.9929 123.414 62.6146 123.218C62.2409 123.022 61.9493 122.76 61.7396 122.432C61.5346 122.099 61.432 121.728 61.432 121.317C61.432 120.921 61.5095 120.572 61.6645 120.271C61.8194 119.966 62.0427 119.713 62.3344 119.513C62.626 119.308 62.977 119.153 63.3871 119.048C63.7973 118.943 64.2553 118.891 64.7611 118.891H66.2309ZM63.9682 114.885L65.2943 112.875H66.8187L64.9867 114.885H63.9682ZM70.5238 117.448V123.375H69.2523V115.979H70.4555L70.5238 117.448ZM70.2641 119.396L69.6762 119.376C69.6807 118.87 69.7468 118.403 69.8744 117.975C70.002 117.542 70.1911 117.166 70.4418 116.847C70.6924 116.528 71.0046 116.282 71.3783 116.108C71.752 115.931 72.185 115.842 72.6771 115.842C73.0235 115.842 73.3425 115.892 73.6342 115.992C73.9258 116.088 74.1788 116.241 74.393 116.45C74.6072 116.66 74.7735 116.929 74.892 117.257C75.0105 117.585 75.0697 117.981 75.0697 118.446V123.375H73.8051V118.508C73.8051 118.12 73.739 117.811 73.6068 117.578C73.4792 117.346 73.2969 117.177 73.06 117.072C72.823 116.963 72.545 116.908 72.226 116.908C71.8523 116.908 71.5401 116.974 71.2895 117.106C71.0388 117.239 70.8383 117.421 70.6879 117.653C70.5375 117.886 70.4281 118.152 70.3598 118.453C70.296 118.749 70.2641 119.064 70.2641 119.396ZM75.0561 118.699L74.2084 118.959C74.213 118.553 74.279 118.164 74.4066 117.79C74.5388 117.416 74.7279 117.084 74.974 116.792C75.2247 116.5 75.5323 116.27 75.8969 116.102C76.2615 115.928 76.6784 115.842 77.1479 115.842C77.5443 115.842 77.8952 115.894 78.2006 115.999C78.5105 116.104 78.7702 116.266 78.9799 116.484C79.1941 116.699 79.3559 116.974 79.4652 117.312C79.5746 117.649 79.6293 118.05 79.6293 118.515V123.375H78.3578V118.501C78.3578 118.086 78.2917 117.765 78.1596 117.537C78.032 117.305 77.8497 117.143 77.6127 117.052C77.3803 116.956 77.1023 116.908 76.7787 116.908C76.5007 116.908 76.2546 116.956 76.0404 117.052C75.8262 117.147 75.6462 117.28 75.5004 117.448C75.3546 117.612 75.2429 117.801 75.1654 118.016C75.0925 118.23 75.0561 118.458 75.0561 118.699ZM85.9047 122.11V118.303C85.9047 118.011 85.8454 117.758 85.727 117.544C85.613 117.325 85.4398 117.157 85.2074 117.038C84.975 116.92 84.6879 116.86 84.3461 116.86C84.0271 116.86 83.7468 116.915 83.5053 117.024C83.2683 117.134 83.0814 117.277 82.9447 117.455C82.8126 117.633 82.7465 117.824 82.7465 118.029H81.4818C81.4818 117.765 81.5502 117.503 81.6869 117.243C81.8236 116.983 82.0196 116.749 82.2748 116.539C82.5346 116.325 82.8445 116.156 83.2045 116.033C83.5691 115.906 83.9747 115.842 84.4213 115.842C84.959 115.842 85.433 115.933 85.8432 116.115C86.2579 116.298 86.5814 116.573 86.8139 116.942C87.0508 117.307 87.1693 117.765 87.1693 118.316V121.762C87.1693 122.008 87.1898 122.27 87.2309 122.548C87.2764 122.826 87.3425 123.065 87.4291 123.266V123.375H86.1098C86.046 123.229 85.9958 123.035 85.9594 122.794C85.9229 122.548 85.9047 122.32 85.9047 122.11ZM86.1234 118.891L86.1371 119.779H84.8588C84.4988 119.779 84.1775 119.809 83.8949 119.868C83.6124 119.923 83.3754 120.007 83.184 120.121C82.9926 120.235 82.8467 120.379 82.7465 120.552C82.6462 120.72 82.5961 120.919 82.5961 121.146C82.5961 121.379 82.6485 121.591 82.7533 121.782C82.8581 121.974 83.0154 122.126 83.225 122.24C83.4392 122.35 83.7012 122.404 84.0111 122.404C84.3985 122.404 84.7403 122.322 85.0365 122.158C85.3327 121.994 85.5674 121.794 85.7406 121.557C85.9184 121.32 86.0141 121.09 86.0277 120.866L86.5678 121.475C86.5359 121.666 86.4493 121.878 86.308 122.11C86.1667 122.343 85.9776 122.566 85.7406 122.78C85.5082 122.99 85.2302 123.165 84.9066 123.307C84.5876 123.443 84.2276 123.512 83.8266 123.512C83.3253 123.512 82.8855 123.414 82.5072 123.218C82.1335 123.022 81.8419 122.76 81.6322 122.432C81.4271 122.099 81.3246 121.728 81.3246 121.317C81.3246 120.921 81.4021 120.572 81.557 120.271C81.712 119.966 81.9353 119.713 82.227 119.513C82.5186 119.308 82.8695 119.153 83.2797 119.048C83.6898 118.943 84.1479 118.891 84.6537 118.891H86.1234ZM90.4232 117.141V123.375H89.1586V115.979H90.3891L90.4232 117.141ZM92.7338 115.938L92.727 117.113C92.6221 117.09 92.5219 117.077 92.4262 117.072C92.335 117.063 92.2302 117.059 92.1117 117.059C91.8201 117.059 91.5626 117.104 91.3393 117.195C91.1159 117.286 90.9268 117.414 90.7719 117.578C90.6169 117.742 90.4939 117.938 90.4027 118.166C90.3161 118.389 90.2592 118.635 90.2318 118.904L89.8764 119.109C89.8764 118.663 89.9197 118.243 90.0062 117.852C90.0974 117.46 90.2364 117.113 90.4232 116.812C90.6101 116.507 90.8471 116.27 91.1342 116.102C91.4258 115.928 91.7722 115.842 92.1732 115.842C92.2644 115.842 92.3692 115.853 92.4877 115.876C92.6062 115.894 92.6882 115.915 92.7338 115.938ZM97.9906 122.11V118.303C97.9906 118.011 97.9314 117.758 97.8129 117.544C97.699 117.325 97.5258 117.157 97.2934 117.038C97.0609 116.92 96.7738 116.86 96.432 116.86C96.113 116.86 95.8327 116.915 95.5912 117.024C95.3542 117.134 95.1674 117.277 95.0307 117.455C94.8985 117.633 94.8324 117.824 94.8324 118.029H93.5678C93.5678 117.765 93.6361 117.503 93.7729 117.243C93.9096 116.983 94.1055 116.749 94.3607 116.539C94.6205 116.325 94.9304 116.156 95.2904 116.033C95.655 115.906 96.0606 115.842 96.5072 115.842C97.045 115.842 97.5189 115.933 97.9291 116.115C98.3438 116.298 98.6674 116.573 98.8998 116.942C99.1368 117.307 99.2553 117.765 99.2553 118.316V121.762C99.2553 122.008 99.2758 122.27 99.3168 122.548C99.3624 122.826 99.4284 123.065 99.515 123.266V123.375H98.1957C98.1319 123.229 98.0818 123.035 98.0453 122.794C98.0089 122.548 97.9906 122.32 97.9906 122.11ZM98.2094 118.891L98.223 119.779H96.9447C96.5847 119.779 96.2634 119.809 95.9809 119.868C95.6983 119.923 95.4613 120.007 95.2699 120.121C95.0785 120.235 94.9327 120.379 94.8324 120.552C94.7322 120.72 94.682 120.919 94.682 121.146C94.682 121.379 94.7344 121.591 94.8393 121.782C94.9441 121.974 95.1013 122.126 95.3109 122.24C95.5251 122.35 95.7872 122.404 96.0971 122.404C96.4844 122.404 96.8262 122.322 97.1225 122.158C97.4187 121.994 97.6534 121.794 97.8266 121.557C98.0043 121.32 98.1 121.09 98.1137 120.866L98.6537 121.475C98.6218 121.666 98.5352 121.878 98.3939 122.11C98.2527 122.343 98.0635 122.566 97.8266 122.78C97.5941 122.99 97.3161 123.165 96.9926 123.307C96.6736 123.443 96.3135 123.512 95.9125 123.512C95.4112 123.512 94.9714 123.414 94.5932 123.218C94.2195 123.022 93.9278 122.76 93.7182 122.432C93.5131 122.099 93.4105 121.728 93.4105 121.317C93.4105 120.921 93.488 120.572 93.643 120.271C93.7979 119.966 94.0212 119.713 94.3129 119.513C94.6046 119.308 94.9555 119.153 95.3656 119.048C95.7758 118.943 96.2338 118.891 96.7396 118.891H98.2094ZM105.551 121.413C105.551 121.231 105.51 121.062 105.428 120.907C105.351 120.748 105.189 120.604 104.943 120.477C104.701 120.344 104.337 120.23 103.849 120.135C103.439 120.048 103.067 119.946 102.735 119.827C102.407 119.709 102.126 119.565 101.894 119.396C101.666 119.228 101.491 119.03 101.368 118.802C101.245 118.574 101.183 118.307 101.183 118.002C101.183 117.71 101.247 117.435 101.374 117.175C101.507 116.915 101.691 116.685 101.928 116.484C102.17 116.284 102.459 116.127 102.796 116.013C103.134 115.899 103.51 115.842 103.924 115.842C104.517 115.842 105.023 115.947 105.442 116.156C105.861 116.366 106.182 116.646 106.406 116.997C106.629 117.343 106.741 117.729 106.741 118.152H105.476C105.476 117.947 105.414 117.749 105.291 117.558C105.173 117.362 104.997 117.2 104.765 117.072C104.537 116.945 104.257 116.881 103.924 116.881C103.573 116.881 103.288 116.936 103.07 117.045C102.856 117.15 102.698 117.284 102.598 117.448C102.502 117.612 102.454 117.785 102.454 117.968C102.454 118.104 102.477 118.228 102.523 118.337C102.573 118.442 102.66 118.54 102.783 118.631C102.906 118.717 103.079 118.799 103.302 118.877C103.525 118.954 103.81 119.032 104.157 119.109C104.763 119.246 105.262 119.41 105.654 119.602C106.046 119.793 106.337 120.028 106.529 120.306C106.72 120.584 106.816 120.921 106.816 121.317C106.816 121.641 106.747 121.937 106.611 122.206C106.479 122.475 106.285 122.707 106.03 122.903C105.779 123.095 105.478 123.245 105.127 123.354C104.781 123.459 104.391 123.512 103.958 123.512C103.307 123.512 102.755 123.396 102.304 123.163C101.853 122.931 101.511 122.63 101.279 122.261C101.046 121.892 100.93 121.502 100.93 121.092H102.202C102.22 121.438 102.32 121.714 102.502 121.919C102.685 122.119 102.908 122.263 103.172 122.35C103.437 122.432 103.699 122.473 103.958 122.473C104.305 122.473 104.594 122.427 104.827 122.336C105.064 122.245 105.244 122.119 105.367 121.96C105.49 121.8 105.551 121.618 105.551 121.413ZM114.028 122.609L116.085 115.979H117.439L114.472 124.517C114.404 124.699 114.313 124.895 114.199 125.104C114.089 125.319 113.948 125.521 113.775 125.713C113.602 125.904 113.392 126.059 113.146 126.178C112.904 126.301 112.615 126.362 112.278 126.362C112.177 126.362 112.05 126.349 111.895 126.321C111.74 126.294 111.631 126.271 111.567 126.253L111.56 125.228C111.596 125.232 111.653 125.237 111.731 125.241C111.813 125.25 111.87 125.255 111.902 125.255C112.189 125.255 112.433 125.216 112.633 125.139C112.834 125.066 113.002 124.94 113.139 124.763C113.28 124.59 113.401 124.35 113.501 124.045L114.028 122.609ZM112.517 115.979L114.438 121.721L114.766 123.054L113.857 123.519L111.136 115.979H112.517ZM54.5346 130.304L51.2396 139.375H49.893L53.6869 129.422H54.5551L54.5346 130.304ZM57.2963 139.375L53.9945 130.304L53.974 129.422H54.8422L58.6498 139.375H57.2963ZM57.1254 135.69V136.771H51.5336V135.69H57.1254ZM62.7514 138.473C63.0521 138.473 63.3301 138.411 63.5854 138.288C63.8406 138.165 64.0502 137.996 64.2143 137.782C64.3783 137.563 64.4717 137.315 64.4945 137.037H65.6977C65.6749 137.475 65.5268 137.882 65.2533 138.261C64.9844 138.634 64.6312 138.938 64.1937 139.17C63.7562 139.398 63.2755 139.512 62.7514 139.512C62.1954 139.512 61.71 139.414 61.2953 139.218C60.8852 139.022 60.5434 138.753 60.2699 138.411C60.001 138.069 59.7982 137.677 59.6615 137.235C59.5294 136.789 59.4633 136.317 59.4633 135.82V135.533C59.4633 135.036 59.5294 134.567 59.6615 134.125C59.7982 133.678 60.001 133.284 60.2699 132.942C60.5434 132.601 60.8852 132.332 61.2953 132.136C61.71 131.94 62.1954 131.842 62.7514 131.842C63.3301 131.842 63.836 131.96 64.2689 132.197C64.7019 132.43 65.0414 132.749 65.2875 133.154C65.5381 133.555 65.6749 134.011 65.6977 134.521H64.4945C64.4717 134.216 64.3852 133.94 64.2348 133.694C64.0889 133.448 63.8884 133.252 63.6332 133.106C63.3826 132.956 63.0886 132.881 62.7514 132.881C62.364 132.881 62.0381 132.958 61.7738 133.113C61.5141 133.264 61.3067 133.469 61.1518 133.729C61.0014 133.984 60.892 134.269 60.8236 134.583C60.7598 134.893 60.7279 135.21 60.7279 135.533V135.82C60.7279 136.144 60.7598 136.463 60.8236 136.777C60.8874 137.092 60.9945 137.377 61.1449 137.632C61.2999 137.887 61.5072 138.092 61.767 138.247C62.0313 138.397 62.3594 138.473 62.7514 138.473ZM70.0795 138.473C70.3803 138.473 70.6583 138.411 70.9135 138.288C71.1687 138.165 71.3783 137.996 71.5424 137.782C71.7064 137.563 71.7999 137.315 71.8227 137.037H73.0258C73.003 137.475 72.8549 137.882 72.5814 138.261C72.3126 138.634 71.9594 138.938 71.5219 139.17C71.0844 139.398 70.6036 139.512 70.0795 139.512C69.5235 139.512 69.0381 139.414 68.6234 139.218C68.2133 139.022 67.8715 138.753 67.598 138.411C67.3292 138.069 67.1264 137.677 66.9896 137.235C66.8575 136.789 66.7914 136.317 66.7914 135.82V135.533C66.7914 135.036 66.8575 134.567 66.9896 134.125C67.1264 133.678 67.3292 133.284 67.598 132.942C67.8715 132.601 68.2133 132.332 68.6234 132.136C69.0381 131.94 69.5235 131.842 70.0795 131.842C70.6583 131.842 71.1641 131.96 71.5971 132.197C72.03 132.43 72.3695 132.749 72.6156 133.154C72.8663 133.555 73.003 134.011 73.0258 134.521H71.8227C71.7999 134.216 71.7133 133.94 71.5629 133.694C71.4171 133.448 71.2165 133.252 70.9613 133.106C70.7107 132.956 70.4167 132.881 70.0795 132.881C69.6921 132.881 69.3663 132.958 69.102 133.113C68.8422 133.264 68.6348 133.469 68.4799 133.729C68.3295 133.984 68.2201 134.269 68.1518 134.583C68.088 134.893 68.0561 135.21 68.0561 135.533V135.82C68.0561 136.144 68.088 136.463 68.1518 136.777C68.2156 137.092 68.3227 137.377 68.473 137.632C68.628 137.887 68.8354 138.092 69.0951 138.247C69.3594 138.397 69.6876 138.473 70.0795 138.473ZM77.517 139.512C77.002 139.512 76.5349 139.425 76.1156 139.252C75.7009 139.074 75.3432 138.826 75.0424 138.507C74.7462 138.188 74.5183 137.81 74.3588 137.372C74.1993 136.935 74.1195 136.456 74.1195 135.937V135.649C74.1195 135.048 74.2084 134.512 74.3861 134.043C74.5639 133.569 74.8054 133.168 75.1107 132.84C75.4161 132.512 75.7624 132.263 76.1498 132.095C76.5372 131.926 76.9382 131.842 77.3529 131.842C77.8816 131.842 78.3373 131.933 78.7201 132.115C79.1075 132.298 79.4242 132.553 79.6703 132.881C79.9164 133.204 80.0987 133.587 80.2172 134.029C80.3357 134.467 80.3949 134.945 80.3949 135.465V136.032H74.8715V135H79.1303V134.904C79.112 134.576 79.0437 134.257 78.9252 133.947C78.8113 133.637 78.629 133.382 78.3783 133.182C78.1277 132.981 77.7859 132.881 77.3529 132.881C77.0658 132.881 76.8015 132.942 76.56 133.065C76.3184 133.184 76.1111 133.362 75.9379 133.599C75.7647 133.836 75.6303 134.125 75.5346 134.467C75.4389 134.809 75.391 135.203 75.391 135.649V135.937C75.391 136.287 75.4389 136.618 75.5346 136.928C75.6348 137.233 75.7784 137.502 75.9652 137.734C76.1566 137.967 76.3868 138.149 76.6557 138.281C76.9291 138.413 77.239 138.479 77.5854 138.479C78.032 138.479 78.4102 138.388 78.7201 138.206C79.03 138.024 79.3012 137.78 79.5336 137.475L80.2992 138.083C80.1397 138.325 79.9369 138.555 79.6908 138.773C79.4447 138.992 79.1417 139.17 78.7816 139.307C78.4262 139.443 78.0046 139.512 77.517 139.512ZM86.1781 137.413C86.1781 137.231 86.1371 137.062 86.0551 136.907C85.9776 136.748 85.8158 136.604 85.5697 136.477C85.3282 136.344 84.9636 136.23 84.476 136.135C84.0658 136.048 83.6944 135.946 83.3617 135.827C83.0336 135.709 82.7533 135.565 82.5209 135.396C82.293 135.228 82.1176 135.03 81.9945 134.802C81.8715 134.574 81.81 134.307 81.81 134.002C81.81 133.71 81.8738 133.435 82.0014 133.175C82.1335 132.915 82.3181 132.685 82.5551 132.484C82.7966 132.284 83.086 132.127 83.4232 132.013C83.7605 131.899 84.1365 131.842 84.5512 131.842C85.1436 131.842 85.6495 131.947 86.0687 132.156C86.488 132.366 86.8093 132.646 87.0326 132.997C87.2559 133.343 87.3676 133.729 87.3676 134.152H86.1029C86.1029 133.947 86.0414 133.749 85.9184 133.558C85.7999 133.362 85.6244 133.2 85.392 133.072C85.1641 132.945 84.8839 132.881 84.5512 132.881C84.2003 132.881 83.9154 132.936 83.6967 133.045C83.4825 133.15 83.3253 133.284 83.225 133.448C83.1293 133.612 83.0814 133.785 83.0814 133.968C83.0814 134.104 83.1042 134.228 83.1498 134.337C83.1999 134.442 83.2865 134.54 83.4096 134.631C83.5326 134.717 83.7058 134.799 83.9291 134.877C84.1524 134.954 84.4372 135.032 84.7836 135.109C85.3897 135.246 85.8887 135.41 86.2807 135.602C86.6726 135.793 86.9643 136.028 87.1557 136.306C87.3471 136.584 87.4428 136.921 87.4428 137.317C87.4428 137.641 87.3744 137.937 87.2377 138.206C87.1055 138.475 86.9118 138.707 86.6566 138.903C86.406 139.095 86.1052 139.245 85.7543 139.354C85.4079 139.459 85.0183 139.512 84.5854 139.512C83.9337 139.512 83.3822 139.396 82.9311 139.163C82.4799 138.931 82.1381 138.63 81.9057 138.261C81.6732 137.892 81.557 137.502 81.557 137.092H82.8285C82.8467 137.438 82.947 137.714 83.1293 137.919C83.3116 138.119 83.5349 138.263 83.7992 138.35C84.0635 138.432 84.3256 138.473 84.5854 138.473C84.9317 138.473 85.2211 138.427 85.4535 138.336C85.6905 138.245 85.8705 138.119 85.9936 137.96C86.1166 137.8 86.1781 137.618 86.1781 137.413ZM88.7689 135.759V135.602C88.7689 135.068 88.8464 134.574 89.0014 134.118C89.1563 133.658 89.3796 133.259 89.6713 132.922C89.963 132.58 90.3161 132.316 90.7309 132.129C91.1456 131.938 91.6104 131.842 92.1254 131.842C92.6449 131.842 93.112 131.938 93.5268 132.129C93.946 132.316 94.3015 132.58 94.5932 132.922C94.8894 133.259 95.115 133.658 95.2699 134.118C95.4249 134.574 95.5023 135.068 95.5023 135.602V135.759C95.5023 136.292 95.4249 136.786 95.2699 137.242C95.115 137.698 94.8894 138.097 94.5932 138.438C94.3015 138.776 93.9483 139.04 93.5336 139.231C93.1234 139.418 92.6586 139.512 92.1391 139.512C91.6195 139.512 91.1524 139.418 90.7377 139.231C90.323 139.04 89.9675 138.776 89.6713 138.438C89.3796 138.097 89.1563 137.698 89.0014 137.242C88.8464 136.786 88.7689 136.292 88.7689 135.759ZM90.0336 135.602V135.759C90.0336 136.128 90.0769 136.477 90.1635 136.805C90.2501 137.128 90.3799 137.415 90.5531 137.666C90.7309 137.917 90.9519 138.115 91.2162 138.261C91.4805 138.402 91.7881 138.473 92.1391 138.473C92.4854 138.473 92.7885 138.402 93.0482 138.261C93.3126 138.115 93.5313 137.917 93.7045 137.666C93.8777 137.415 94.0076 137.128 94.0941 136.805C94.1853 136.477 94.2309 136.128 94.2309 135.759V135.602C94.2309 135.237 94.1853 134.893 94.0941 134.569C94.0076 134.241 93.8754 133.952 93.6977 133.701C93.5245 133.446 93.3057 133.245 93.0414 133.1C92.7816 132.954 92.4763 132.881 92.1254 132.881C91.779 132.881 91.4737 132.954 91.2094 133.1C90.9496 133.245 90.7309 133.446 90.5531 133.701C90.3799 133.952 90.2501 134.241 90.1635 134.569C90.0769 134.893 90.0336 135.237 90.0336 135.602ZM98.3529 133.141V139.375H97.0883V131.979H98.3187L98.3529 133.141ZM100.663 131.938L100.657 133.113C100.552 133.09 100.452 133.077 100.356 133.072C100.265 133.063 100.16 133.059 100.041 133.059C99.7497 133.059 99.4923 133.104 99.2689 133.195C99.0456 133.286 98.8565 133.414 98.7016 133.578C98.5466 133.742 98.4236 133.938 98.3324 134.166C98.2458 134.389 98.1889 134.635 98.1615 134.904L97.8061 135.109C97.8061 134.663 97.8493 134.243 97.9359 133.852C98.0271 133.46 98.1661 133.113 98.3529 132.812C98.5398 132.507 98.7768 132.27 99.0639 132.102C99.3555 131.928 99.7019 131.842 100.103 131.842C100.194 131.842 100.299 131.853 100.417 131.876C100.536 131.894 100.618 131.915 100.663 131.938ZM103.206 131.979V139.375H101.935V131.979H103.206ZM101.839 130.017C101.839 129.812 101.901 129.638 102.024 129.497C102.151 129.356 102.338 129.285 102.584 129.285C102.826 129.285 103.01 129.356 103.138 129.497C103.27 129.638 103.336 129.812 103.336 130.017C103.336 130.213 103.27 130.381 103.138 130.522C103.01 130.659 102.826 130.728 102.584 130.728C102.338 130.728 102.151 130.659 102.024 130.522C101.901 130.381 101.839 130.213 101.839 130.017ZM104.902 135.759V135.602C104.902 135.068 104.979 134.574 105.134 134.118C105.289 133.658 105.512 133.259 105.804 132.922C106.096 132.58 106.449 132.316 106.864 132.129C107.278 131.938 107.743 131.842 108.258 131.842C108.778 131.842 109.245 131.938 109.66 132.129C110.079 132.316 110.434 132.58 110.726 132.922C111.022 133.259 111.248 133.658 111.403 134.118C111.558 134.574 111.635 135.068 111.635 135.602V135.759C111.635 136.292 111.558 136.786 111.403 137.242C111.248 137.698 111.022 138.097 110.726 138.438C110.434 138.776 110.081 139.04 109.666 139.231C109.256 139.418 108.791 139.512 108.272 139.512C107.752 139.512 107.285 139.418 106.871 139.231C106.456 139.04 106.1 138.776 105.804 138.438C105.512 138.097 105.289 137.698 105.134 137.242C104.979 136.786 104.902 136.292 104.902 135.759ZM106.166 135.602V135.759C106.166 136.128 106.21 136.477 106.296 136.805C106.383 137.128 106.513 137.415 106.686 137.666C106.864 137.917 107.085 138.115 107.349 138.261C107.613 138.402 107.921 138.473 108.272 138.473C108.618 138.473 108.921 138.402 109.181 138.261C109.445 138.115 109.664 137.917 109.837 137.666C110.01 137.415 110.14 137.128 110.227 136.805C110.318 136.477 110.364 136.128 110.364 135.759V135.602C110.364 135.237 110.318 134.893 110.227 134.569C110.14 134.241 110.008 133.952 109.83 133.701C109.657 133.446 109.439 133.245 109.174 133.1C108.914 132.954 108.609 132.881 108.258 132.881C107.912 132.881 107.607 132.954 107.342 133.1C107.082 133.245 106.864 133.446 106.686 133.701C106.513 133.952 106.383 134.241 106.296 134.569C106.21 134.893 106.166 135.237 106.166 135.602ZM117.528 137.413C117.528 137.231 117.487 137.062 117.405 136.907C117.327 136.748 117.165 136.604 116.919 136.477C116.678 136.344 116.313 136.23 115.826 136.135C115.415 136.048 115.044 135.946 114.711 135.827C114.383 135.709 114.103 135.565 113.871 135.396C113.643 135.228 113.467 135.03 113.344 134.802C113.221 134.574 113.16 134.307 113.16 134.002C113.16 133.71 113.223 133.435 113.351 133.175C113.483 132.915 113.668 132.685 113.905 132.484C114.146 132.284 114.436 132.127 114.773 132.013C115.11 131.899 115.486 131.842 115.901 131.842C116.493 131.842 116.999 131.947 117.418 132.156C117.838 132.366 118.159 132.646 118.382 132.997C118.606 133.343 118.717 133.729 118.717 134.152H117.453C117.453 133.947 117.391 133.749 117.268 133.558C117.149 133.362 116.974 133.2 116.742 133.072C116.514 132.945 116.233 132.881 115.901 132.881C115.55 132.881 115.265 132.936 115.046 133.045C114.832 133.15 114.675 133.284 114.575 133.448C114.479 133.612 114.431 133.785 114.431 133.968C114.431 134.104 114.454 134.228 114.499 134.337C114.55 134.442 114.636 134.54 114.759 134.631C114.882 134.717 115.055 134.799 115.279 134.877C115.502 134.954 115.787 135.032 116.133 135.109C116.739 135.246 117.238 135.41 117.63 135.602C118.022 135.793 118.314 136.028 118.505 136.306C118.697 136.584 118.792 136.921 118.792 137.317C118.792 137.641 118.724 137.937 118.587 138.206C118.455 138.475 118.261 138.707 118.006 138.903C117.756 139.095 117.455 139.245 117.104 139.354C116.758 139.459 116.368 139.512 115.935 139.512C115.283 139.512 114.732 139.396 114.281 139.163C113.829 138.931 113.488 138.63 113.255 138.261C113.023 137.892 112.907 137.502 112.907 137.092H114.178C114.196 137.438 114.297 137.714 114.479 137.919C114.661 138.119 114.885 138.263 115.149 138.35C115.413 138.432 115.675 138.473 115.935 138.473C116.281 138.473 116.571 138.427 116.803 138.336C117.04 138.245 117.22 138.119 117.343 137.96C117.466 137.8 117.528 137.618 117.528 137.413Z" fill="#333333"/>
<path d="M170 170.375V171.375H171V170.375H170ZM169 0.375V170.375H171V0.375H169ZM170 169.375H0V171.375H170V169.375Z" fill="#EAE6E6" mask="url(#path-1-inside-1_1_602)"/>
<defs>
<clipPath id="clip0_1_602">
<rect width="48" height="48" fill="white" transform="translate(62.5 46.375)"/>
</clipPath>
</defs>
</svg>
