<svg width="170" height="171" viewBox="0 0 170 171" fill="none" xmlns="http://www.w3.org/2000/svg">
<mask id="path-1-inside-1_1_450" fill="white">
<path d="M0 0.375H170V170.375H0V0.375Z"/>
</mask>
<path d="M0 0.375H170V170.375H0V0.375Z" fill="white"/>
<g clip-path="url(#clip0_1_450)">
<path d="M71.5 58.375H101.5" stroke="#3483FA" stroke-miterlimit="10" stroke-linecap="square"/>
<path d="M71.5 80.375H101.5" stroke="#3483FA" stroke-miterlimit="10" stroke-linecap="square"/>
<path d="M97.5 92.375H75.5C73.291 92.375 71.5 90.584 71.5 88.375V52.375C71.5 50.166 73.291 48.375 75.5 48.375H97.5C99.709 48.375 101.5 50.166 101.5 52.375V88.375C101.5 90.584 99.709 92.375 97.5 92.375Z" stroke="#3483FA" stroke-miterlimit="10" stroke-linecap="square"/>
<path d="M84.5 53.375H88.5" stroke="#3483FA" stroke-miterlimit="10" stroke-linecap="square"/>
</g>
<path d="M25.2631 117.21H26.5756C26.5072 117.839 26.3272 118.402 26.0355 118.898C25.7439 119.395 25.3314 119.789 24.7982 120.081C24.265 120.368 23.5997 120.512 22.8021 120.512C22.2188 120.512 21.6879 120.402 21.2094 120.184C20.7354 119.965 20.3275 119.655 19.9857 119.254C19.6439 118.848 19.3796 118.363 19.1928 117.798C19.0105 117.228 18.9193 116.595 18.9193 115.897V114.906C18.9193 114.209 19.0105 113.578 19.1928 113.013C19.3796 112.443 19.6462 111.955 19.9926 111.55C20.3435 111.144 20.765 110.832 21.2572 110.613C21.7494 110.395 22.3031 110.285 22.9184 110.285C23.6703 110.285 24.3061 110.426 24.8256 110.709C25.3451 110.992 25.7484 111.383 26.0355 111.885C26.3272 112.382 26.5072 112.958 26.5756 113.614H25.2631C25.1993 113.149 25.0808 112.751 24.9076 112.418C24.7344 112.081 24.4883 111.821 24.1693 111.639C23.8503 111.456 23.4333 111.365 22.9184 111.365C22.4763 111.365 22.0867 111.45 21.7494 111.618C21.4167 111.787 21.1365 112.026 20.9086 112.336C20.6853 112.646 20.5167 113.017 20.4027 113.45C20.2888 113.883 20.2318 114.364 20.2318 114.893V115.897C20.2318 116.385 20.282 116.843 20.3822 117.271C20.487 117.7 20.6443 118.076 20.8539 118.399C21.0635 118.723 21.3301 118.978 21.6537 119.165C21.9773 119.347 22.3601 119.438 22.8021 119.438C23.3627 119.438 23.8093 119.35 24.142 119.172C24.4747 118.994 24.7253 118.739 24.8939 118.406C25.0671 118.074 25.1902 117.675 25.2631 117.21ZM31.2514 120.512C30.7364 120.512 30.2693 120.425 29.85 120.252C29.4353 120.074 29.0775 119.826 28.7768 119.507C28.4805 119.188 28.2527 118.81 28.0932 118.372C27.9337 117.935 27.8539 117.456 27.8539 116.937V116.649C27.8539 116.048 27.9428 115.512 28.1205 115.043C28.2982 114.569 28.5398 114.168 28.8451 113.84C29.1505 113.512 29.4968 113.263 29.8842 113.095C30.2715 112.926 30.6726 112.842 31.0873 112.842C31.6159 112.842 32.0717 112.933 32.4545 113.115C32.8419 113.298 33.1586 113.553 33.4047 113.881C33.6508 114.204 33.8331 114.587 33.9516 115.029C34.0701 115.467 34.1293 115.945 34.1293 116.465V117.032H28.6059V116H32.8646V115.904C32.8464 115.576 32.7781 115.257 32.6596 114.947C32.5456 114.637 32.3633 114.382 32.1127 114.182C31.862 113.981 31.5202 113.881 31.0873 113.881C30.8002 113.881 30.5359 113.942 30.2943 114.065C30.0528 114.184 29.8454 114.362 29.6723 114.599C29.4991 114.836 29.3646 115.125 29.2689 115.467C29.1732 115.809 29.1254 116.203 29.1254 116.649V116.937C29.1254 117.287 29.1732 117.618 29.2689 117.928C29.3692 118.233 29.5128 118.502 29.6996 118.734C29.891 118.967 30.1212 119.149 30.39 119.281C30.6635 119.413 30.9734 119.479 31.3197 119.479C31.7663 119.479 32.1446 119.388 32.4545 119.206C32.7644 119.024 33.0355 118.78 33.268 118.475L34.0336 119.083C33.8741 119.325 33.6713 119.555 33.4252 119.773C33.1791 119.992 32.876 120.17 32.516 120.307C32.1605 120.443 31.739 120.512 31.2514 120.512ZM36.9799 109.875V120.375H35.7084V109.875H36.9799ZM43.5355 118.666V112.979H44.807V120.375H43.5971L43.5355 118.666ZM43.7748 117.107L44.3012 117.094C44.3012 117.586 44.2488 118.042 44.1439 118.461C44.0437 118.876 43.8796 119.236 43.6518 119.541C43.4239 119.846 43.1254 120.086 42.7562 120.259C42.3871 120.427 41.9382 120.512 41.4096 120.512C41.0495 120.512 40.7191 120.459 40.4184 120.354C40.1221 120.25 39.8669 120.088 39.6527 119.869C39.4385 119.65 39.2722 119.366 39.1537 119.015C39.0398 118.664 38.9828 118.242 38.9828 117.75V112.979H40.2475V117.764C40.2475 118.096 40.2839 118.372 40.3568 118.591C40.4343 118.805 40.5368 118.976 40.6645 119.104C40.7966 119.227 40.9424 119.313 41.102 119.363C41.266 119.413 41.4346 119.438 41.6078 119.438C42.1456 119.438 42.5717 119.336 42.8861 119.131C43.2006 118.921 43.4262 118.641 43.5629 118.29C43.7042 117.935 43.7748 117.54 43.7748 117.107ZM48.1088 109.875V120.375H46.8373V109.875H48.1088ZM54.5004 119.11V115.303C54.5004 115.011 54.4411 114.758 54.3227 114.544C54.2087 114.325 54.0355 114.157 53.8031 114.038C53.5707 113.92 53.2836 113.86 52.9418 113.86C52.6228 113.86 52.3425 113.915 52.101 114.024C51.864 114.134 51.6771 114.277 51.5404 114.455C51.4083 114.633 51.3422 114.824 51.3422 115.029H50.0775C50.0775 114.765 50.1459 114.503 50.2826 114.243C50.4193 113.983 50.6153 113.749 50.8705 113.539C51.1303 113.325 51.4402 113.156 51.8002 113.033C52.1648 112.906 52.5704 112.842 53.017 112.842C53.5548 112.842 54.0287 112.933 54.4389 113.115C54.8536 113.298 55.1771 113.573 55.4096 113.942C55.6465 114.307 55.765 114.765 55.765 115.316V118.762C55.765 119.008 55.7855 119.27 55.8266 119.548C55.8721 119.826 55.9382 120.065 56.0248 120.266V120.375H54.7055C54.6417 120.229 54.5915 120.035 54.5551 119.794C54.5186 119.548 54.5004 119.32 54.5004 119.11ZM54.7191 115.891L54.7328 116.779H53.4545C53.0945 116.779 52.7732 116.809 52.4906 116.868C52.2081 116.923 51.9711 117.007 51.7797 117.121C51.5883 117.235 51.4424 117.379 51.3422 117.552C51.2419 117.72 51.1918 117.919 51.1918 118.146C51.1918 118.379 51.2442 118.591 51.349 118.782C51.4538 118.974 51.6111 119.126 51.8207 119.24C52.0349 119.35 52.2969 119.404 52.6068 119.404C52.9942 119.404 53.336 119.322 53.6322 119.158C53.9284 118.994 54.1631 118.794 54.3363 118.557C54.5141 118.32 54.6098 118.09 54.6234 117.866L55.1635 118.475C55.1316 118.666 55.045 118.878 54.9037 119.11C54.7624 119.343 54.5733 119.566 54.3363 119.78C54.1039 119.99 53.8259 120.165 53.5023 120.307C53.1833 120.443 52.8233 120.512 52.4223 120.512C51.921 120.512 51.4812 120.414 51.1029 120.218C50.7292 120.022 50.4376 119.76 50.2279 119.432C50.0229 119.099 49.9203 118.728 49.9203 118.317C49.9203 117.921 49.9978 117.572 50.1527 117.271C50.3077 116.966 50.531 116.713 50.8227 116.513C51.1143 116.308 51.4652 116.153 51.8754 116.048C52.2855 115.943 52.7436 115.891 53.2494 115.891H54.7191ZM59.0189 114.141V120.375H57.7543V112.979H58.9848L59.0189 114.141ZM61.3295 112.938L61.3227 114.113C61.2178 114.09 61.1176 114.077 61.0219 114.072C60.9307 114.063 60.8259 114.059 60.7074 114.059C60.4158 114.059 60.1583 114.104 59.935 114.195C59.7117 114.286 59.5225 114.414 59.3676 114.578C59.2126 114.742 59.0896 114.938 58.9984 115.166C58.9118 115.389 58.8549 115.635 58.8275 115.904L58.4721 116.109C58.4721 115.663 58.5154 115.243 58.602 114.852C58.6931 114.46 58.8321 114.113 59.0189 113.812C59.2058 113.507 59.4428 113.27 59.7299 113.102C60.0215 112.928 60.3679 112.842 60.7689 112.842C60.8601 112.842 60.9649 112.853 61.0834 112.876C61.2019 112.894 61.2839 112.915 61.3295 112.938ZM65.4311 120.512C64.9161 120.512 64.449 120.425 64.0297 120.252C63.615 120.074 63.2572 119.826 62.9564 119.507C62.6602 119.188 62.4324 118.81 62.2729 118.372C62.1133 117.935 62.0336 117.456 62.0336 116.937V116.649C62.0336 116.048 62.1225 115.512 62.3002 115.043C62.4779 114.569 62.7195 114.168 63.0248 113.84C63.3301 113.512 63.6765 113.263 64.0639 113.095C64.4512 112.926 64.8523 112.842 65.267 112.842C65.7956 112.842 66.2514 112.933 66.6342 113.115C67.0215 113.298 67.3383 113.553 67.5844 113.881C67.8305 114.204 68.0128 114.587 68.1312 115.029C68.2497 115.467 68.309 115.945 68.309 116.465V117.032H62.7855V116H67.0443V115.904C67.0261 115.576 66.9577 115.257 66.8393 114.947C66.7253 114.637 66.543 114.382 66.2924 114.182C66.0417 113.981 65.6999 113.881 65.267 113.881C64.9799 113.881 64.7156 113.942 64.474 114.065C64.2325 114.184 64.0251 114.362 63.852 114.599C63.6788 114.836 63.5443 115.125 63.4486 115.467C63.3529 115.809 63.3051 116.203 63.3051 116.649V116.937C63.3051 117.287 63.3529 117.618 63.4486 117.928C63.5489 118.233 63.6924 118.502 63.8793 118.734C64.0707 118.967 64.3008 119.149 64.5697 119.281C64.8432 119.413 65.1531 119.479 65.4994 119.479C65.946 119.479 66.3243 119.388 66.6342 119.206C66.9441 119.024 67.2152 118.78 67.4477 118.475L68.2133 119.083C68.0538 119.325 67.851 119.555 67.6049 119.773C67.3588 119.992 67.0557 120.17 66.6957 120.307C66.3402 120.443 65.9187 120.512 65.4311 120.512ZM74.0922 118.413C74.0922 118.231 74.0512 118.062 73.9691 117.907C73.8917 117.748 73.7299 117.604 73.4838 117.477C73.2423 117.344 72.8777 117.23 72.39 117.135C71.9799 117.048 71.6085 116.946 71.2758 116.827C70.9477 116.709 70.6674 116.565 70.435 116.396C70.2071 116.228 70.0316 116.03 69.9086 115.802C69.7855 115.574 69.724 115.307 69.724 115.002C69.724 114.71 69.7878 114.435 69.9154 114.175C70.0476 113.915 70.2322 113.685 70.4691 113.484C70.7107 113.284 71.0001 113.127 71.3373 113.013C71.6745 112.899 72.0505 112.842 72.4652 112.842C73.0577 112.842 73.5635 112.947 73.9828 113.156C74.4021 113.366 74.7234 113.646 74.9467 113.997C75.17 114.343 75.2816 114.729 75.2816 115.152H74.017C74.017 114.947 73.9555 114.749 73.8324 114.558C73.7139 114.362 73.5385 114.2 73.3061 114.072C73.0782 113.945 72.7979 113.881 72.4652 113.881C72.1143 113.881 71.8295 113.936 71.6107 114.045C71.3965 114.15 71.2393 114.284 71.1391 114.448C71.0434 114.612 70.9955 114.785 70.9955 114.968C70.9955 115.104 71.0183 115.228 71.0639 115.337C71.114 115.442 71.2006 115.54 71.3236 115.631C71.4467 115.717 71.6199 115.799 71.8432 115.877C72.0665 115.954 72.3513 116.032 72.6977 116.109C73.3038 116.246 73.8028 116.41 74.1947 116.602C74.5867 116.793 74.8783 117.028 75.0697 117.306C75.2611 117.584 75.3568 117.921 75.3568 118.317C75.3568 118.641 75.2885 118.937 75.1518 119.206C75.0196 119.475 74.8259 119.707 74.5707 119.903C74.3201 120.095 74.0193 120.245 73.6684 120.354C73.322 120.459 72.9324 120.512 72.4994 120.512C71.8477 120.512 71.2963 120.396 70.8451 120.163C70.3939 119.931 70.0521 119.63 69.8197 119.261C69.5873 118.892 69.4711 118.502 69.4711 118.092H70.7426C70.7608 118.438 70.8611 118.714 71.0434 118.919C71.2256 119.119 71.449 119.263 71.7133 119.35C71.9776 119.432 72.2396 119.473 72.4994 119.473C72.8458 119.473 73.1352 119.427 73.3676 119.336C73.6046 119.245 73.7846 119.119 73.9076 118.96C74.0307 118.8 74.0922 118.618 74.0922 118.413ZM82.5687 119.609L84.6264 112.979H85.9799L83.0131 121.517C82.9447 121.699 82.8536 121.895 82.7396 122.104C82.6303 122.319 82.489 122.521 82.3158 122.713C82.1426 122.904 81.933 123.059 81.6869 123.178C81.4454 123.301 81.156 123.362 80.8187 123.362C80.7185 123.362 80.5909 123.349 80.4359 123.321C80.281 123.294 80.1716 123.271 80.1078 123.253L80.101 122.228C80.1374 122.232 80.1944 122.237 80.2719 122.241C80.3539 122.25 80.4109 122.255 80.4428 122.255C80.7299 122.255 80.9737 122.216 81.1742 122.139C81.3747 122.066 81.5434 121.94 81.6801 121.763C81.8214 121.59 81.9421 121.35 82.0424 121.045L82.5687 119.609ZM81.058 112.979L82.9789 118.721L83.307 120.054L82.3979 120.519L79.6771 112.979H81.058ZM94.1898 110.422V120.375H92.891V110.422H94.1898ZM97.3891 110.422V111.502H89.6986V110.422H97.3891ZM101.06 120.512C100.545 120.512 100.078 120.425 99.6586 120.252C99.2439 120.074 98.8861 119.826 98.5854 119.507C98.2891 119.188 98.0613 118.81 97.9018 118.372C97.7423 117.935 97.6625 117.456 97.6625 116.937V116.649C97.6625 116.048 97.7514 115.512 97.9291 115.043C98.1068 114.569 98.3484 114.168 98.6537 113.84C98.959 113.512 99.3054 113.263 99.6928 113.095C100.08 112.926 100.481 112.842 100.896 112.842C101.425 112.842 101.88 112.933 102.263 113.115C102.65 113.298 102.967 113.553 103.213 113.881C103.459 114.204 103.642 114.587 103.76 115.029C103.879 115.467 103.938 115.945 103.938 116.465V117.032H98.4145V116H102.673V115.904C102.655 115.576 102.587 115.257 102.468 114.947C102.354 114.637 102.172 114.382 101.921 114.182C101.671 113.981 101.329 113.881 100.896 113.881C100.609 113.881 100.344 113.942 100.103 114.065C99.8614 114.184 99.654 114.362 99.4809 114.599C99.3077 114.836 99.1732 115.125 99.0775 115.467C98.9818 115.809 98.934 116.203 98.934 116.649V116.937C98.934 117.287 98.9818 117.618 99.0775 117.928C99.1778 118.233 99.3214 118.502 99.5082 118.734C99.6996 118.967 99.9298 119.149 100.199 119.281C100.472 119.413 100.782 119.479 101.128 119.479C101.575 119.479 101.953 119.388 102.263 119.206C102.573 119.024 102.844 118.78 103.077 118.475L103.842 119.083C103.683 119.325 103.48 119.555 103.234 119.773C102.988 119.992 102.685 120.17 102.325 120.307C101.969 120.443 101.548 120.512 101.06 120.512ZM106.788 109.875V120.375H105.517V109.875H106.788ZM111.888 120.512C111.373 120.512 110.906 120.425 110.487 120.252C110.072 120.074 109.714 119.826 109.413 119.507C109.117 119.188 108.889 118.81 108.73 118.372C108.57 117.935 108.491 117.456 108.491 116.937V116.649C108.491 116.048 108.579 115.512 108.757 115.043C108.935 114.569 109.176 114.168 109.482 113.84C109.787 113.512 110.134 113.263 110.521 113.095C110.908 112.926 111.309 112.842 111.724 112.842C112.253 112.842 112.708 112.933 113.091 113.115C113.479 113.298 113.795 113.553 114.041 113.881C114.287 114.204 114.47 114.587 114.588 115.029C114.707 115.467 114.766 115.945 114.766 116.465V117.032H109.243V116H113.501V115.904C113.483 115.576 113.415 115.257 113.296 114.947C113.182 114.637 113 114.382 112.749 114.182C112.499 113.981 112.157 113.881 111.724 113.881C111.437 113.881 111.173 113.942 110.931 114.065C110.69 114.184 110.482 114.362 110.309 114.599C110.136 114.836 110.001 115.125 109.906 115.467C109.81 115.809 109.762 116.203 109.762 116.649V116.937C109.762 117.287 109.81 117.618 109.906 117.928C110.006 118.233 110.149 118.502 110.336 118.734C110.528 118.967 110.758 119.149 111.027 119.281C111.3 119.413 111.61 119.479 111.956 119.479C112.403 119.479 112.781 119.388 113.091 119.206C113.401 119.024 113.672 118.78 113.905 118.475L114.67 119.083C114.511 119.325 114.308 119.555 114.062 119.773C113.816 119.992 113.513 120.17 113.153 120.307C112.797 120.443 112.376 120.512 111.888 120.512ZM111.02 111.885L112.346 109.875H113.871L112.038 111.885H111.02ZM118.129 120.375H116.865V112.199C116.865 111.666 116.96 111.217 117.152 110.853C117.348 110.483 117.628 110.205 117.993 110.019C118.357 109.827 118.79 109.731 119.291 109.731C119.437 109.731 119.583 109.741 119.729 109.759C119.879 109.777 120.025 109.804 120.166 109.841L120.098 110.873C120.002 110.85 119.893 110.834 119.77 110.825C119.651 110.816 119.533 110.812 119.414 110.812C119.146 110.812 118.913 110.866 118.717 110.976C118.526 111.08 118.38 111.235 118.28 111.44C118.179 111.646 118.129 111.898 118.129 112.199V120.375ZM119.702 112.979V113.949H115.696V112.979H119.702ZM120.775 116.759V116.602C120.775 116.068 120.852 115.574 121.007 115.118C121.162 114.658 121.385 114.259 121.677 113.922C121.969 113.58 122.322 113.316 122.737 113.129C123.151 112.938 123.616 112.842 124.131 112.842C124.651 112.842 125.118 112.938 125.533 113.129C125.952 113.316 126.307 113.58 126.599 113.922C126.895 114.259 127.121 114.658 127.276 115.118C127.431 115.574 127.508 116.068 127.508 116.602V116.759C127.508 117.292 127.431 117.786 127.276 118.242C127.121 118.698 126.895 119.097 126.599 119.438C126.307 119.776 125.954 120.04 125.539 120.231C125.129 120.418 124.664 120.512 124.145 120.512C123.625 120.512 123.158 120.418 122.744 120.231C122.329 120.04 121.973 119.776 121.677 119.438C121.385 119.097 121.162 118.698 121.007 118.242C120.852 117.786 120.775 117.292 120.775 116.759ZM122.039 116.602V116.759C122.039 117.128 122.083 117.477 122.169 117.805C122.256 118.128 122.386 118.415 122.559 118.666C122.737 118.917 122.958 119.115 123.222 119.261C123.486 119.402 123.794 119.473 124.145 119.473C124.491 119.473 124.794 119.402 125.054 119.261C125.318 119.115 125.537 118.917 125.71 118.666C125.884 118.415 126.013 118.128 126.1 117.805C126.191 117.477 126.237 117.128 126.237 116.759V116.602C126.237 116.237 126.191 115.893 126.1 115.569C126.013 115.241 125.881 114.952 125.704 114.701C125.53 114.446 125.312 114.245 125.047 114.1C124.787 113.954 124.482 113.881 124.131 113.881C123.785 113.881 123.48 113.954 123.215 114.1C122.955 114.245 122.737 114.446 122.559 114.701C122.386 114.952 122.256 115.241 122.169 115.569C122.083 115.893 122.039 116.237 122.039 116.602ZM130.359 114.558V120.375H129.094V112.979H130.29L130.359 114.558ZM130.058 116.396L129.532 116.376C129.536 115.87 129.611 115.403 129.757 114.975C129.903 114.542 130.108 114.166 130.372 113.847C130.637 113.528 130.951 113.282 131.316 113.108C131.685 112.931 132.093 112.842 132.539 112.842C132.904 112.842 133.232 112.892 133.524 112.992C133.815 113.088 134.064 113.243 134.269 113.457C134.479 113.671 134.638 113.949 134.747 114.291C134.857 114.628 134.912 115.041 134.912 115.528V120.375H133.64V115.515C133.64 115.127 133.583 114.817 133.469 114.585C133.355 114.348 133.189 114.177 132.97 114.072C132.751 113.963 132.482 113.908 132.163 113.908C131.849 113.908 131.562 113.974 131.302 114.106C131.047 114.239 130.826 114.421 130.639 114.653C130.457 114.886 130.313 115.152 130.208 115.453C130.108 115.749 130.058 116.064 130.058 116.396ZM136.497 116.759V116.602C136.497 116.068 136.575 115.574 136.73 115.118C136.885 114.658 137.108 114.259 137.4 113.922C137.691 113.58 138.045 113.316 138.459 113.129C138.874 112.938 139.339 112.842 139.854 112.842C140.373 112.842 140.841 112.938 141.255 113.129C141.675 113.316 142.03 113.58 142.322 113.922C142.618 114.259 142.843 114.658 142.998 115.118C143.153 115.574 143.231 116.068 143.231 116.602V116.759C143.231 117.292 143.153 117.786 142.998 118.242C142.843 118.698 142.618 119.097 142.322 119.438C142.03 119.776 141.677 120.04 141.262 120.231C140.852 120.418 140.387 120.512 139.868 120.512C139.348 120.512 138.881 120.418 138.466 120.231C138.051 120.04 137.696 119.776 137.4 119.438C137.108 119.097 136.885 118.698 136.73 118.242C136.575 117.786 136.497 117.292 136.497 116.759ZM137.762 116.602V116.759C137.762 117.128 137.805 117.477 137.892 117.805C137.979 118.128 138.108 118.415 138.282 118.666C138.459 118.917 138.68 119.115 138.945 119.261C139.209 119.402 139.517 119.473 139.868 119.473C140.214 119.473 140.517 119.402 140.777 119.261C141.041 119.115 141.26 118.917 141.433 118.666C141.606 118.415 141.736 118.128 141.823 117.805C141.914 117.477 141.959 117.128 141.959 116.759V116.602C141.959 116.237 141.914 115.893 141.823 115.569C141.736 115.241 141.604 114.952 141.426 114.701C141.253 114.446 141.034 114.245 140.77 114.1C140.51 113.954 140.205 113.881 139.854 113.881C139.508 113.881 139.202 113.954 138.938 114.1C138.678 114.245 138.459 114.446 138.282 114.701C138.108 114.952 137.979 115.241 137.892 115.569C137.805 115.893 137.762 116.237 137.762 116.602ZM149.123 118.413C149.123 118.231 149.082 118.062 149 117.907C148.923 117.748 148.761 117.604 148.515 117.477C148.274 117.344 147.909 117.23 147.421 117.135C147.011 117.048 146.64 116.946 146.307 116.827C145.979 116.709 145.699 116.565 145.466 116.396C145.238 116.228 145.063 116.03 144.94 115.802C144.817 115.574 144.755 115.307 144.755 115.002C144.755 114.71 144.819 114.435 144.947 114.175C145.079 113.915 145.263 113.685 145.5 113.484C145.742 113.284 146.031 113.127 146.369 113.013C146.706 112.899 147.082 112.842 147.496 112.842C148.089 112.842 148.595 112.947 149.014 113.156C149.433 113.366 149.755 113.646 149.978 113.997C150.201 114.343 150.313 114.729 150.313 115.152H149.048C149.048 114.947 148.987 114.749 148.864 114.558C148.745 114.362 148.57 114.2 148.337 114.072C148.109 113.945 147.829 113.881 147.496 113.881C147.146 113.881 146.861 113.936 146.642 114.045C146.428 114.15 146.271 114.284 146.17 114.448C146.075 114.612 146.027 114.785 146.027 114.968C146.027 115.104 146.05 115.228 146.095 115.337C146.145 115.442 146.232 115.54 146.355 115.631C146.478 115.717 146.651 115.799 146.874 115.877C147.098 115.954 147.383 116.032 147.729 116.109C148.335 116.246 148.834 116.41 149.226 116.602C149.618 116.793 149.91 117.028 150.101 117.306C150.292 117.584 150.388 117.921 150.388 118.317C150.388 118.641 150.32 118.937 150.183 119.206C150.051 119.475 149.857 119.707 149.602 119.903C149.351 120.095 149.051 120.245 148.7 120.354C148.353 120.459 147.964 120.512 147.531 120.512C146.879 120.512 146.328 120.396 145.876 120.163C145.425 119.931 145.083 119.63 144.851 119.261C144.619 118.892 144.502 118.502 144.502 118.092H145.774C145.792 118.438 145.892 118.714 146.075 118.919C146.257 119.119 146.48 119.263 146.745 119.35C147.009 119.432 147.271 119.473 147.531 119.473C147.877 119.473 148.166 119.427 148.399 119.336C148.636 119.245 148.816 119.119 148.939 118.96C149.062 118.8 149.123 118.618 149.123 118.413Z" fill="#333333"/>
<path d="M170 170.375V171.375H171V170.375H170ZM169 0.375V170.375H171V0.375H169ZM170 169.375H0V171.375H170V169.375Z" fill="#EAE6E6" mask="url(#path-1-inside-1_1_450)"/>
<defs>
<clipPath id="clip0_1_450">
<rect width="48" height="48" fill="white" transform="translate(62.5 46.375)"/>
</clipPath>
</defs>
</svg>
