<svg width="170" height="171" viewBox="0 0 170 171" fill="none" xmlns="http://www.w3.org/2000/svg">
<mask id="path-1-inside-1_1_475" fill="white">
<path d="M0 0.375H170V170.375H0V0.375Z"/>
</mask>
<path d="M0 0.375H170V170.375H0V0.375Z" fill="white"/>
<g clip-path="url(#clip0_1_475)">
<path d="M80.5 58.375C86.4 58.375 90.5 55.475 90.5 48.875" stroke="#3483FA" stroke-miterlimit="10"/>
<path d="M92.5 76.375V54.375C92.5 51.075 91.8 48.375 88.5 48.375C85.2 48.375 80.5 53.075 80.5 56.375V76.375" stroke="#3483FA" stroke-miterlimit="10" stroke-linecap="square"/>
<path d="M98.5 76.375H74.5V92.375H98.5V76.375Z" stroke="#3483FA" stroke-miterlimit="10" stroke-linecap="square"/>
</g>
<path d="M30.6127 117.387H27.9101L27.8954 116.252H30.349C30.7543 116.252 31.1083 116.184 31.411 116.047C31.7138 115.91 31.9481 115.715 32.1142 115.461C32.2851 115.202 32.3705 114.895 32.3705 114.538C32.3705 114.147 32.2948 113.83 32.1435 113.586C31.997 113.337 31.7699 113.156 31.4623 113.044C31.1596 112.927 30.7738 112.868 30.3051 112.868H28.225V122.375H26.8114V111.711H30.3051C30.852 111.711 31.3402 111.767 31.7699 111.879C32.1996 111.987 32.5634 112.158 32.8612 112.392C33.164 112.622 33.3935 112.915 33.5497 113.271C33.706 113.627 33.7841 114.055 33.7841 114.553C33.7841 114.992 33.6718 115.39 33.4472 115.747C33.2226 116.098 32.9101 116.386 32.5097 116.611C32.1142 116.835 31.6503 116.979 31.1181 117.043L30.6127 117.387ZM30.5468 122.375H27.3534L28.1518 121.225H30.5468C30.996 121.225 31.3769 121.147 31.6894 120.991C32.0067 120.834 32.2484 120.615 32.4145 120.332C32.5805 120.043 32.6635 119.704 32.6635 119.313C32.6635 118.918 32.5927 118.576 32.4511 118.288C32.3095 118 32.0873 117.778 31.7846 117.622C31.4818 117.465 31.0912 117.387 30.6127 117.387H28.5985L28.6132 116.252H31.3671L31.6674 116.662C32.1801 116.706 32.6146 116.853 32.9711 117.102C33.3275 117.346 33.5985 117.658 33.7841 118.039C33.9745 118.42 34.0697 118.84 34.0697 119.299C34.0697 119.963 33.9232 120.524 33.6303 120.983C33.3422 121.438 32.9345 121.784 32.4071 122.023C31.8798 122.258 31.2597 122.375 30.5468 122.375ZM39.2406 122.521C38.6889 122.521 38.1884 122.429 37.7392 122.243C37.2948 122.053 36.9115 121.787 36.5893 121.445C36.2719 121.103 36.0277 120.698 35.8568 120.229C35.6859 119.76 35.6005 119.248 35.6005 118.691V118.383C35.6005 117.739 35.6957 117.165 35.8861 116.662C36.0766 116.154 36.3354 115.725 36.6625 115.373C36.9896 115.021 37.3607 114.755 37.7758 114.575C38.1908 114.394 38.6205 114.304 39.0648 114.304C39.6312 114.304 40.1195 114.401 40.5297 114.597C40.9447 114.792 41.2841 115.065 41.5478 115.417C41.8114 115.764 42.0067 116.174 42.1337 116.647C42.2606 117.116 42.3241 117.629 42.3241 118.186V118.793H36.4062V117.688H40.9691V117.585C40.9496 117.233 40.8764 116.892 40.7494 116.56C40.6273 116.228 40.432 115.954 40.1635 115.739C39.8949 115.524 39.5287 115.417 39.0648 115.417C38.7572 115.417 38.474 115.483 38.2152 115.615C37.9564 115.742 37.7343 115.932 37.5487 116.186C37.3632 116.44 37.2191 116.75 37.1166 117.116C37.0141 117.482 36.9628 117.905 36.9628 118.383V118.691C36.9628 119.067 37.0141 119.421 37.1166 119.753C37.224 120.08 37.3778 120.368 37.578 120.617C37.7831 120.866 38.0297 121.062 38.3178 121.203C38.6107 121.345 38.9428 121.416 39.3139 121.416C39.7924 121.416 40.1977 121.318 40.5297 121.123C40.8617 120.927 41.1522 120.666 41.4013 120.339L42.2216 120.991C42.0507 121.25 41.8334 121.496 41.5697 121.73C41.3061 121.965 40.9813 122.155 40.5956 122.302C40.2147 122.448 39.7631 122.521 39.2406 122.521ZM45.3783 111.125V122.375H44.016V111.125H45.3783ZM49.0258 111.125V122.375H47.6635V111.125H49.0258ZM54.4896 122.521C53.9379 122.521 53.4374 122.429 52.9882 122.243C52.5438 122.053 52.1605 121.787 51.8383 121.445C51.5209 121.103 51.2768 120.698 51.1059 120.229C50.935 119.76 50.8495 119.248 50.8495 118.691V118.383C50.8495 117.739 50.9447 117.165 51.1352 116.662C51.3256 116.154 51.5844 115.725 51.9115 115.373C52.2387 115.021 52.6098 114.755 53.0248 114.575C53.4398 114.394 53.8695 114.304 54.3139 114.304C54.8803 114.304 55.3686 114.401 55.7787 114.597C56.1937 114.792 56.5331 115.065 56.7968 115.417C57.0604 115.764 57.2558 116.174 57.3827 116.647C57.5097 117.116 57.5731 117.629 57.5731 118.186V118.793H51.6552V117.688H56.2182V117.585C56.1986 117.233 56.1254 116.892 55.9984 116.56C55.8764 116.228 55.6811 115.954 55.4125 115.739C55.1439 115.524 54.7777 115.417 54.3139 115.417C54.0062 115.417 53.723 115.483 53.4643 115.615C53.2055 115.742 52.9833 115.932 52.7978 116.186C52.6122 116.44 52.4682 116.75 52.3656 117.116C52.2631 117.482 52.2118 117.905 52.2118 118.383V118.691C52.2118 119.067 52.2631 119.421 52.3656 119.753C52.473 120.08 52.6269 120.368 52.827 120.617C53.0321 120.866 53.2787 121.062 53.5668 121.203C53.8598 121.345 54.1918 121.416 54.5629 121.416C55.0414 121.416 55.4467 121.318 55.7787 121.123C56.1107 120.927 56.4013 120.666 56.6503 120.339L57.4706 120.991C57.2997 121.25 57.0824 121.496 56.8187 121.73C56.5551 121.965 56.2304 122.155 55.8446 122.302C55.4638 122.448 55.0121 122.521 54.4896 122.521ZM65.0585 121.262V122.375H59.2943V121.262H65.0585ZM64.8461 115.41L59.602 122.375H58.7743V121.379L63.9818 114.45H64.8461V115.41ZM64.2455 114.45V115.571H58.8329V114.45H64.2455ZM71.2694 121.02V116.94C71.2694 116.628 71.206 116.357 71.079 116.127C70.9569 115.893 70.7714 115.712 70.5224 115.585C70.2733 115.458 69.9657 115.395 69.5995 115.395C69.2577 115.395 68.9574 115.454 68.6986 115.571C68.4447 115.688 68.2445 115.842 68.098 116.032C67.9564 116.223 67.8856 116.428 67.8856 116.647H66.5307C66.5307 116.364 66.6039 116.083 66.7504 115.805C66.8969 115.527 67.1068 115.275 67.3803 115.051C67.6586 114.821 67.9906 114.641 68.3764 114.509C68.767 114.372 69.2016 114.304 69.6801 114.304C70.2562 114.304 70.7641 114.401 71.2035 114.597C71.6479 114.792 71.9945 115.087 72.2436 115.483C72.4975 115.874 72.6244 116.364 72.6244 116.955V120.646C72.6244 120.91 72.6464 121.191 72.6903 121.489C72.7392 121.787 72.81 122.043 72.9027 122.258V122.375H71.4892C71.4208 122.219 71.3671 122.011 71.328 121.752C71.289 121.489 71.2694 121.245 71.2694 121.02ZM71.5038 117.57L71.5185 118.522H70.1488C69.7631 118.522 69.4188 118.554 69.1161 118.618C68.8134 118.676 68.5595 118.767 68.3544 118.889C68.1493 119.011 67.9931 119.165 67.8856 119.35C67.7782 119.531 67.7245 119.743 67.7245 119.987C67.7245 120.236 67.7807 120.463 67.893 120.668C68.0053 120.874 68.1737 121.037 68.3983 121.159C68.6278 121.276 68.9086 121.335 69.2406 121.335C69.6557 121.335 70.0219 121.247 70.3393 121.071C70.6566 120.896 70.9081 120.681 71.0937 120.427C71.2841 120.173 71.3866 119.926 71.4013 119.687L71.9799 120.339C71.9457 120.544 71.8529 120.771 71.7016 121.02C71.5502 121.269 71.3476 121.508 71.0937 121.738C70.8446 121.962 70.5468 122.15 70.2001 122.302C69.8583 122.448 69.4726 122.521 69.0429 122.521C68.5058 122.521 68.0346 122.417 67.6293 122.207C67.2289 121.997 66.9164 121.716 66.6918 121.364C66.4721 121.008 66.3622 120.61 66.3622 120.17C66.3622 119.746 66.4452 119.372 66.6112 119.05C66.7772 118.723 67.0165 118.452 67.329 118.237C67.6415 118.017 68.0175 117.851 68.4569 117.739C68.8964 117.626 69.3871 117.57 69.9291 117.57H71.5038ZM80.703 121.555L82.9076 114.45H84.3578L81.1791 123.598C81.1059 123.793 81.0082 124.003 80.8861 124.228C80.7689 124.458 80.6176 124.675 80.432 124.88C80.2465 125.085 80.0219 125.251 79.7582 125.378C79.4994 125.51 79.1894 125.576 78.828 125.576C78.7206 125.576 78.5839 125.561 78.4179 125.532C78.2519 125.502 78.1347 125.478 78.0663 125.458L78.059 124.36C78.098 124.365 78.1591 124.37 78.2421 124.375C78.33 124.384 78.391 124.389 78.4252 124.389C78.7328 124.389 78.994 124.348 79.2089 124.265C79.4237 124.187 79.6044 124.052 79.7509 123.862C79.9022 123.676 80.0316 123.42 80.1391 123.093L80.703 121.555ZM79.0844 114.45L81.1425 120.603L81.494 122.031L80.5199 122.529L77.6049 114.45H79.0844ZM95.9447 118.984H97.351C97.2777 119.658 97.0849 120.261 96.7724 120.793C96.4599 121.325 96.018 121.748 95.4467 122.06C94.8754 122.368 94.1625 122.521 93.308 122.521C92.683 122.521 92.1142 122.404 91.6015 122.17C91.0937 121.936 90.6566 121.604 90.2904 121.174C89.9242 120.739 89.641 120.219 89.4408 119.614C89.2455 119.003 89.1479 118.325 89.1479 117.578V116.516C89.1479 115.769 89.2455 115.092 89.4408 114.487C89.641 113.876 89.9267 113.354 90.2978 112.919C90.6737 112.485 91.1254 112.15 91.6527 111.916C92.1801 111.682 92.7733 111.564 93.4325 111.564C94.2382 111.564 94.9193 111.716 95.476 112.019C96.0326 112.321 96.4647 112.741 96.7724 113.278C97.0849 113.811 97.2777 114.428 97.351 115.131H95.9447C95.8764 114.633 95.7494 114.206 95.5639 113.85C95.3783 113.488 95.1146 113.21 94.7729 113.015C94.4311 112.819 93.9843 112.722 93.4325 112.722C92.9589 112.722 92.5414 112.812 92.1801 112.993C91.8236 113.173 91.5233 113.43 91.2792 113.762C91.0399 114.094 90.8593 114.492 90.7372 114.956C90.6151 115.419 90.5541 115.935 90.5541 116.501V117.578C90.5541 118.1 90.6078 118.591 90.7152 119.05C90.8275 119.509 90.996 119.912 91.2206 120.258C91.4452 120.605 91.7309 120.878 92.0775 121.079C92.4242 121.274 92.8344 121.372 93.308 121.372C93.9086 121.372 94.3871 121.276 94.7436 121.086C95.1 120.896 95.3686 120.622 95.5492 120.266C95.7348 119.909 95.8666 119.482 95.9447 118.984ZM103.921 120.544V114.45H105.283V122.375H103.987L103.921 120.544ZM104.177 118.874L104.741 118.859C104.741 119.387 104.685 119.875 104.573 120.324C104.465 120.769 104.289 121.154 104.045 121.481C103.801 121.809 103.481 122.065 103.086 122.25C102.69 122.431 102.209 122.521 101.643 122.521C101.257 122.521 100.903 122.465 100.581 122.353C100.264 122.241 99.9901 122.067 99.7606 121.833C99.5312 121.599 99.3529 121.293 99.226 120.917C99.1039 120.542 99.0429 120.09 99.0429 119.562V114.45H100.398V119.577C100.398 119.934 100.437 120.229 100.515 120.463C100.598 120.693 100.708 120.876 100.845 121.013C100.986 121.145 101.142 121.237 101.313 121.291C101.489 121.345 101.67 121.372 101.855 121.372C102.432 121.372 102.888 121.262 103.225 121.042C103.562 120.817 103.804 120.517 103.95 120.141C104.101 119.76 104.177 119.338 104.177 118.874ZM108.821 114.45V122.375H107.458V114.45H108.821ZM107.356 112.348C107.356 112.128 107.422 111.943 107.554 111.792C107.69 111.64 107.891 111.564 108.154 111.564C108.413 111.564 108.611 111.64 108.747 111.792C108.889 111.943 108.96 112.128 108.96 112.348C108.96 112.558 108.889 112.739 108.747 112.89C108.611 113.037 108.413 113.11 108.154 113.11C107.891 113.11 107.69 113.037 107.554 112.89C107.422 112.739 107.356 112.558 107.356 112.348ZM115.991 120.837V111.125H117.353V122.375H116.108L115.991 120.837ZM110.659 118.5V118.347C110.659 117.741 110.732 117.192 110.879 116.699C111.03 116.201 111.243 115.773 111.516 115.417C111.794 115.061 112.124 114.787 112.505 114.597C112.891 114.401 113.32 114.304 113.794 114.304C114.292 114.304 114.726 114.392 115.098 114.567C115.474 114.738 115.791 114.99 116.05 115.322C116.313 115.649 116.521 116.044 116.672 116.508C116.824 116.972 116.929 117.497 116.987 118.083V118.757C116.933 119.338 116.829 119.86 116.672 120.324C116.521 120.788 116.313 121.184 116.05 121.511C115.791 121.838 115.474 122.089 115.098 122.265C114.722 122.436 114.282 122.521 113.779 122.521C113.315 122.521 112.891 122.421 112.505 122.221C112.124 122.021 111.794 121.74 111.516 121.379C111.243 121.018 111.03 120.593 110.879 120.104C110.732 119.611 110.659 119.077 110.659 118.5ZM112.021 118.347V118.5C112.021 118.896 112.06 119.267 112.139 119.614C112.222 119.96 112.349 120.266 112.519 120.529C112.69 120.793 112.908 121 113.171 121.152C113.435 121.298 113.75 121.372 114.116 121.372C114.565 121.372 114.934 121.276 115.222 121.086C115.515 120.896 115.749 120.644 115.925 120.332C116.101 120.019 116.238 119.68 116.335 119.313V117.548C116.277 117.28 116.191 117.021 116.079 116.772C115.972 116.518 115.83 116.293 115.654 116.098C115.483 115.898 115.271 115.739 115.017 115.622C114.768 115.505 114.473 115.446 114.131 115.446C113.76 115.446 113.44 115.524 113.171 115.681C112.908 115.832 112.69 116.042 112.519 116.311C112.349 116.574 112.222 116.882 112.139 117.233C112.06 117.58 112.021 117.951 112.021 118.347ZM124.136 121.02V116.94C124.136 116.628 124.072 116.357 123.945 116.127C123.823 115.893 123.638 115.712 123.389 115.585C123.14 115.458 122.832 115.395 122.466 115.395C122.124 115.395 121.824 115.454 121.565 115.571C121.311 115.688 121.111 115.842 120.964 116.032C120.823 116.223 120.752 116.428 120.752 116.647H119.397C119.397 116.364 119.47 116.083 119.617 115.805C119.763 115.527 119.973 115.275 120.246 115.051C120.525 114.821 120.857 114.641 121.243 114.509C121.633 114.372 122.068 114.304 122.546 114.304C123.122 114.304 123.63 114.401 124.07 114.597C124.514 114.792 124.861 115.087 125.11 115.483C125.364 115.874 125.491 116.364 125.491 116.955V120.646C125.491 120.91 125.513 121.191 125.557 121.489C125.605 121.787 125.676 122.043 125.769 122.258V122.375H124.355C124.287 122.219 124.233 122.011 124.194 121.752C124.155 121.489 124.136 121.245 124.136 121.02ZM124.37 117.57L124.385 118.522H123.015C122.629 118.522 122.285 118.554 121.982 118.618C121.68 118.676 121.426 118.767 121.221 118.889C121.016 119.011 120.859 119.165 120.752 119.35C120.644 119.531 120.591 119.743 120.591 119.987C120.591 120.236 120.647 120.463 120.759 120.668C120.871 120.874 121.04 121.037 121.265 121.159C121.494 121.276 121.775 121.335 122.107 121.335C122.522 121.335 122.888 121.247 123.205 121.071C123.523 120.896 123.774 120.681 123.96 120.427C124.15 120.173 124.253 119.926 124.267 119.687L124.846 120.339C124.812 120.544 124.719 120.771 124.568 121.02C124.416 121.269 124.214 121.508 123.96 121.738C123.711 121.962 123.413 122.15 123.066 122.302C122.725 122.448 122.339 122.521 121.909 122.521C121.372 122.521 120.901 122.417 120.496 122.207C120.095 121.997 119.783 121.716 119.558 121.364C119.338 121.008 119.228 120.61 119.228 120.17C119.228 119.746 119.311 119.372 119.477 119.05C119.643 118.723 119.883 118.452 120.195 118.237C120.508 118.017 120.884 117.851 121.323 117.739C121.763 117.626 122.253 117.57 122.795 117.57H124.37ZM132.617 120.837V111.125H133.979V122.375H132.734L132.617 120.837ZM127.285 118.5V118.347C127.285 117.741 127.358 117.192 127.505 116.699C127.656 116.201 127.869 115.773 128.142 115.417C128.42 115.061 128.75 114.787 129.131 114.597C129.517 114.401 129.946 114.304 130.42 114.304C130.918 114.304 131.352 114.392 131.724 114.567C132.1 114.738 132.417 114.99 132.676 115.322C132.939 115.649 133.147 116.044 133.298 116.508C133.45 116.972 133.555 117.497 133.613 118.083V118.757C133.559 119.338 133.454 119.86 133.298 120.324C133.147 120.788 132.939 121.184 132.676 121.511C132.417 121.838 132.1 122.089 131.724 122.265C131.348 122.436 130.908 122.521 130.405 122.521C129.941 122.521 129.517 122.421 129.131 122.221C128.75 122.021 128.42 121.74 128.142 121.379C127.869 121.018 127.656 120.593 127.505 120.104C127.358 119.611 127.285 119.077 127.285 118.5ZM128.647 118.347V118.5C128.647 118.896 128.686 119.267 128.765 119.614C128.848 119.96 128.975 120.266 129.145 120.529C129.316 120.793 129.534 121 129.797 121.152C130.061 121.298 130.376 121.372 130.742 121.372C131.191 121.372 131.56 121.276 131.848 121.086C132.141 120.896 132.375 120.644 132.551 120.332C132.727 120.019 132.864 119.68 132.961 119.313V117.548C132.903 117.28 132.817 117.021 132.705 116.772C132.598 116.518 132.456 116.293 132.28 116.098C132.109 115.898 131.897 115.739 131.643 115.622C131.394 115.505 131.099 115.446 130.757 115.446C130.386 115.446 130.066 115.524 129.797 115.681C129.534 115.832 129.316 116.042 129.145 116.311C128.975 116.574 128.848 116.882 128.765 117.233C128.686 117.58 128.647 117.951 128.647 118.347ZM135.73 118.5V118.332C135.73 117.761 135.813 117.231 135.979 116.743C136.145 116.25 136.384 115.822 136.697 115.461C137.009 115.095 137.388 114.812 137.832 114.611C138.276 114.406 138.774 114.304 139.326 114.304C139.883 114.304 140.383 114.406 140.828 114.611C141.277 114.812 141.658 115.095 141.97 115.461C142.287 115.822 142.529 116.25 142.695 116.743C142.861 117.231 142.944 117.761 142.944 118.332V118.5C142.944 119.072 142.861 119.602 142.695 120.09C142.529 120.578 142.287 121.005 141.97 121.372C141.658 121.733 141.279 122.016 140.835 122.221C140.395 122.421 139.897 122.521 139.341 122.521C138.784 122.521 138.284 122.421 137.839 122.221C137.395 122.016 137.014 121.733 136.697 121.372C136.384 121.005 136.145 120.578 135.979 120.09C135.813 119.602 135.73 119.072 135.73 118.5ZM137.085 118.332V118.5C137.085 118.896 137.131 119.27 137.224 119.621C137.317 119.968 137.456 120.275 137.642 120.544C137.832 120.812 138.069 121.025 138.352 121.181C138.635 121.333 138.965 121.408 139.341 121.408C139.712 121.408 140.037 121.333 140.315 121.181C140.598 121.025 140.832 120.812 141.018 120.544C141.204 120.275 141.343 119.968 141.435 119.621C141.533 119.27 141.582 118.896 141.582 118.5V118.332C141.582 117.941 141.533 117.573 141.435 117.226C141.343 116.875 141.201 116.564 141.011 116.296C140.825 116.022 140.591 115.808 140.308 115.651C140.029 115.495 139.702 115.417 139.326 115.417C138.955 115.417 138.628 115.495 138.345 115.651C138.066 115.808 137.832 116.022 137.642 116.296C137.456 116.564 137.317 116.875 137.224 117.226C137.131 117.573 137.085 117.941 137.085 118.332ZM60.3637 136.193H57.5145V135.043H60.3637C60.9154 135.043 61.3622 134.955 61.704 134.779C62.0458 134.604 62.2948 134.359 62.4511 134.047C62.6122 133.734 62.6928 133.378 62.6928 132.978C62.6928 132.611 62.6122 132.267 62.4511 131.945C62.2948 131.623 62.0458 131.364 61.704 131.168C61.3622 130.968 60.9154 130.868 60.3637 130.868H57.8441V140.375H56.4306V129.711H60.3637C61.1693 129.711 61.8505 129.85 62.4071 130.128C62.9638 130.407 63.3861 130.792 63.6742 131.286C63.9623 131.774 64.1063 132.333 64.1063 132.963C64.1063 133.646 63.9623 134.23 63.6742 134.713C63.3861 135.197 62.9638 135.565 62.4071 135.819C61.8505 136.068 61.1693 136.193 60.3637 136.193ZM68.8744 140.521C68.3227 140.521 67.8222 140.429 67.3729 140.243C66.9286 140.053 66.5453 139.787 66.223 139.445C65.9057 139.103 65.6615 138.698 65.4906 138.229C65.3197 137.76 65.2343 137.248 65.2343 136.691V136.383C65.2343 135.739 65.3295 135.165 65.5199 134.662C65.7104 134.154 65.9691 133.725 66.2963 133.373C66.6234 133.021 66.9945 132.755 67.4096 132.575C67.8246 132.394 68.2543 132.304 68.6986 132.304C69.265 132.304 69.7533 132.401 70.1635 132.597C70.5785 132.792 70.9179 133.065 71.1815 133.417C71.4452 133.764 71.6405 134.174 71.7675 134.647C71.8944 135.116 71.9579 135.629 71.9579 136.186V136.793H66.0399V135.688H70.6029V135.585C70.5834 135.233 70.5102 134.892 70.3832 134.56C70.2611 134.228 70.0658 133.954 69.7973 133.739C69.5287 133.524 69.1625 133.417 68.6986 133.417C68.391 133.417 68.1078 133.483 67.849 133.615C67.5902 133.742 67.3681 133.932 67.1825 134.186C66.997 134.44 66.8529 134.75 66.7504 135.116C66.6479 135.482 66.5966 135.905 66.5966 136.383V136.691C66.5966 137.067 66.6479 137.421 66.7504 137.753C66.8578 138.08 67.0116 138.368 67.2118 138.617C67.4169 138.866 67.6635 139.062 67.9516 139.203C68.2445 139.345 68.5766 139.416 68.9477 139.416C69.4262 139.416 69.8314 139.318 70.1635 139.123C70.4955 138.927 70.786 138.666 71.0351 138.339L71.8554 138.991C71.6845 139.25 71.4672 139.496 71.2035 139.73C70.9398 139.965 70.6151 140.155 70.2294 140.302C69.8485 140.448 69.3969 140.521 68.8744 140.521ZM74.8949 133.695V140.375H73.5399V132.45H74.8583L74.8949 133.695ZM77.3705 132.406L77.3632 133.666C77.2509 133.642 77.1435 133.627 77.0409 133.622C76.9433 133.612 76.831 133.607 76.704 133.607C76.3915 133.607 76.1156 133.656 75.8764 133.754C75.6371 133.852 75.4345 133.988 75.2685 134.164C75.1024 134.34 74.9706 134.55 74.8729 134.794C74.7802 135.033 74.7191 135.297 74.6898 135.585L74.309 135.805C74.309 135.326 74.3554 134.877 74.4481 134.457C74.5458 134.037 74.6947 133.666 74.8949 133.344C75.0951 133.017 75.349 132.763 75.6566 132.582C75.9691 132.396 76.3402 132.304 76.7699 132.304C76.8676 132.304 76.9799 132.316 77.1068 132.34C77.2338 132.36 77.3217 132.382 77.3705 132.406ZM83.2372 138.273C83.2372 138.078 83.1933 137.897 83.1054 137.731C83.0224 137.56 82.849 137.406 82.5854 137.27C82.3266 137.128 81.9359 137.006 81.4135 136.903C80.974 136.811 80.5761 136.701 80.2196 136.574C79.8681 136.447 79.5678 136.293 79.3187 136.112C79.0746 135.932 78.8866 135.719 78.7548 135.475C78.6229 135.231 78.557 134.945 78.557 134.618C78.557 134.306 78.6254 134.01 78.7621 133.732C78.9037 133.454 79.1015 133.207 79.3554 132.992C79.6142 132.777 79.9242 132.609 80.2855 132.487C80.6469 132.365 81.0497 132.304 81.494 132.304C82.1288 132.304 82.6708 132.416 83.12 132.641C83.5692 132.865 83.9135 133.166 84.1527 133.542C84.392 133.913 84.5116 134.325 84.5116 134.779H83.1566C83.1566 134.56 83.0907 134.347 82.9589 134.142C82.8319 133.932 82.6439 133.759 82.3949 133.622C82.1508 133.485 81.8505 133.417 81.494 133.417C81.1181 133.417 80.8129 133.476 80.5785 133.593C80.349 133.705 80.1806 133.849 80.0731 134.025C79.9706 134.201 79.9193 134.386 79.9193 134.582C79.9193 134.728 79.9437 134.86 79.9926 134.977C80.0463 135.089 80.1391 135.194 80.2709 135.292C80.4027 135.385 80.5883 135.473 80.8275 135.556C81.0668 135.639 81.372 135.722 81.7431 135.805C82.3925 135.951 82.9271 136.127 83.3471 136.332C83.767 136.537 84.0795 136.789 84.2846 137.086C84.4896 137.384 84.5922 137.746 84.5922 138.17C84.5922 138.517 84.5189 138.834 84.3725 139.123C84.2309 139.411 84.0233 139.66 83.7499 139.87C83.4813 140.075 83.1591 140.236 82.7831 140.353C82.412 140.465 81.9945 140.521 81.5307 140.521C80.8324 140.521 80.2416 140.397 79.7582 140.148C79.2748 139.899 78.9086 139.577 78.6596 139.181C78.4105 138.786 78.286 138.368 78.286 137.929H79.6483C79.6679 138.3 79.7753 138.595 79.9706 138.815C80.1659 139.03 80.4052 139.184 80.6884 139.276C80.9716 139.364 81.2523 139.408 81.5307 139.408C81.9018 139.408 82.2118 139.359 82.4608 139.262C82.7147 139.164 82.9076 139.03 83.0395 138.859C83.1713 138.688 83.2372 138.493 83.2372 138.273ZM86.0131 136.5V136.332C86.0131 135.761 86.0961 135.231 86.2621 134.743C86.4281 134.25 86.6674 133.822 86.9799 133.461C87.2924 133.095 87.6708 132.812 88.1151 132.611C88.5595 132.406 89.0575 132.304 89.6093 132.304C90.1659 132.304 90.6664 132.406 91.1107 132.611C91.56 132.812 91.9408 133.095 92.2533 133.461C92.5707 133.822 92.8124 134.25 92.9784 134.743C93.1444 135.231 93.2274 135.761 93.2274 136.332V136.5C93.2274 137.072 93.1444 137.602 92.9784 138.09C92.8124 138.578 92.5707 139.005 92.2533 139.372C91.9408 139.733 91.5624 140.016 91.1181 140.221C90.6786 140.421 90.1806 140.521 89.6239 140.521C89.0673 140.521 88.5668 140.421 88.1225 140.221C87.6781 140.016 87.2973 139.733 86.9799 139.372C86.6674 139.005 86.4281 138.578 86.2621 138.09C86.0961 137.602 86.0131 137.072 86.0131 136.5ZM87.3681 136.332V136.5C87.3681 136.896 87.4145 137.27 87.5072 137.621C87.6 137.968 87.7392 138.275 87.9247 138.544C88.1151 138.812 88.352 139.025 88.6352 139.181C88.9184 139.333 89.2479 139.408 89.6239 139.408C89.995 139.408 90.3197 139.333 90.598 139.181C90.8812 139.025 91.1156 138.812 91.3012 138.544C91.4867 138.275 91.6259 137.968 91.7187 137.621C91.8163 137.27 91.8651 136.896 91.8651 136.5V136.332C91.8651 135.941 91.8163 135.573 91.7187 135.226C91.6259 134.875 91.4843 134.564 91.2938 134.296C91.1083 134.022 90.8739 133.808 90.5907 133.651C90.3124 133.495 89.9853 133.417 89.6093 133.417C89.2382 133.417 88.911 133.495 88.6278 133.651C88.3495 133.808 88.1151 134.022 87.9247 134.296C87.7392 134.564 87.6 134.875 87.5072 135.226C87.4145 135.573 87.3681 135.941 87.3681 136.332ZM96.2816 134.142V140.375H94.9267V132.45H96.2084L96.2816 134.142ZM95.9594 136.112L95.3954 136.09C95.4003 135.548 95.4809 135.048 95.6371 134.589C95.7934 134.125 96.0131 133.722 96.2963 133.38C96.5795 133.039 96.9164 132.775 97.307 132.589C97.7025 132.399 98.1395 132.304 98.6181 132.304C99.0087 132.304 99.3603 132.357 99.6728 132.465C99.9853 132.567 100.251 132.733 100.471 132.963C100.696 133.192 100.867 133.49 100.984 133.856C101.101 134.218 101.16 134.66 101.16 135.182V140.375H99.7973V135.167C99.7973 134.752 99.7362 134.42 99.6142 134.171C99.4921 133.917 99.3139 133.734 99.0795 133.622C98.8451 133.505 98.557 133.446 98.2152 133.446C97.8783 133.446 97.5707 133.517 97.2924 133.659C97.0189 133.8 96.7821 133.996 96.5819 134.245C96.3866 134.494 96.2328 134.779 96.1205 135.102C96.0131 135.419 95.9594 135.756 95.9594 136.112ZM107.891 139.02V134.94C107.891 134.628 107.827 134.357 107.7 134.127C107.578 133.893 107.392 133.712 107.143 133.585C106.894 133.458 106.587 133.395 106.221 133.395C105.879 133.395 105.579 133.454 105.32 133.571C105.066 133.688 104.866 133.842 104.719 134.032C104.578 134.223 104.507 134.428 104.507 134.647H103.152C103.152 134.364 103.225 134.083 103.371 133.805C103.518 133.527 103.728 133.275 104.001 133.051C104.28 132.821 104.612 132.641 104.997 132.509C105.388 132.372 105.823 132.304 106.301 132.304C106.877 132.304 107.385 132.401 107.825 132.597C108.269 132.792 108.616 133.087 108.865 133.483C109.119 133.874 109.246 134.364 109.246 134.955V138.646C109.246 138.91 109.267 139.191 109.311 139.489C109.36 139.787 109.431 140.043 109.524 140.258V140.375H108.11C108.042 140.219 107.988 140.011 107.949 139.752C107.91 139.489 107.891 139.245 107.891 139.02ZM108.125 135.57L108.14 136.522H106.77C106.384 136.522 106.04 136.554 105.737 136.618C105.434 136.676 105.181 136.767 104.975 136.889C104.77 137.011 104.614 137.165 104.507 137.35C104.399 137.531 104.346 137.743 104.346 137.987C104.346 138.236 104.402 138.463 104.514 138.668C104.626 138.874 104.795 139.037 105.019 139.159C105.249 139.276 105.53 139.335 105.862 139.335C106.277 139.335 106.643 139.247 106.96 139.071C107.278 138.896 107.529 138.681 107.715 138.427C107.905 138.173 108.008 137.926 108.022 137.687L108.601 138.339C108.567 138.544 108.474 138.771 108.323 139.02C108.171 139.269 107.969 139.508 107.715 139.738C107.466 139.962 107.168 140.15 106.821 140.302C106.479 140.448 106.094 140.521 105.664 140.521C105.127 140.521 104.656 140.417 104.25 140.207C103.85 139.997 103.537 139.716 103.313 139.364C103.093 139.008 102.983 138.61 102.983 138.17C102.983 137.746 103.066 137.372 103.232 137.05C103.398 136.723 103.638 136.452 103.95 136.237C104.263 136.017 104.639 135.851 105.078 135.739C105.517 135.626 106.008 135.57 106.55 135.57H108.125ZM112.849 129.125V140.375H111.487V129.125H112.849Z" fill="#333333"/>
<path d="M170 170.375V171.375H171V170.375H170ZM169 0.375V170.375H171V0.375H169ZM170 169.375H0V171.375H170V169.375Z" fill="#EAE6E6" mask="url(#path-1-inside-1_1_475)"/>
<defs>
<clipPath id="clip0_1_475">
<rect width="48" height="48" fill="white" transform="translate(62.5 46.375)"/>
</clipPath>
</defs>
</svg>
