<svg width="170" height="171" viewBox="0 0 170 171" fill="none" xmlns="http://www.w3.org/2000/svg">
<mask id="path-1-inside-1_1_496" fill="white">
<path d="M0 0.375H170V170.375H0V0.375Z"/>
</mask>
<path d="M0 0.375H170V170.375H0V0.375Z" fill="white"/>
<g clip-path="url(#clip0_1_496)">
<path d="M78.5 49.875L86.5 55.875L94.5 49.875" stroke="#3483FA" stroke-miterlimit="10"/>
<path d="M64.5 71.6751L72.7 65.8751L69.5 56.4751" stroke="#3483FA" stroke-miterlimit="10"/>
<path d="M80.9 91.6749L78 82.075L68 82.275" stroke="#3483FA" stroke-miterlimit="10"/>
<path d="M105 82.275L95 82.075L92.1 91.6749" stroke="#3483FA" stroke-miterlimit="10"/>
<path d="M103.5 56.4751L100.3 65.8751L108.5 71.6751" stroke="#3483FA" stroke-miterlimit="10"/>
<path d="M90.5 76.375H82.5L78.5 68.375L86.5 62.375L94.5 68.375L90.5 76.375Z" stroke="#3483FA" stroke-miterlimit="10" stroke-linecap="square"/>
<path d="M86.5 92.375C98.6503 92.375 108.5 82.5253 108.5 70.375C108.5 58.2247 98.6503 48.375 86.5 48.375C74.3497 48.375 64.5 58.2247 64.5 70.375C64.5 82.5253 74.3497 92.375 86.5 92.375Z" stroke="#3483FA" stroke-miterlimit="10" stroke-linecap="square"/>
</g>
<path d="M30.5883 120.375H28.5102L28.5238 119.302H30.5883C31.2992 119.302 31.8917 119.154 32.3656 118.857C32.8396 118.557 33.1951 118.137 33.432 117.6C33.6736 117.057 33.7943 116.424 33.7943 115.699V115.091C33.7943 114.521 33.726 114.015 33.5893 113.573C33.4525 113.127 33.252 112.751 32.9877 112.445C32.7234 112.135 32.3998 111.901 32.017 111.741C31.6387 111.582 31.2035 111.502 30.7113 111.502H28.4691V110.422H30.7113C31.363 110.422 31.9577 110.531 32.4955 110.75C33.0333 110.964 33.4958 111.276 33.8832 111.687C34.2751 112.092 34.5759 112.584 34.7855 113.163C34.9952 113.737 35.1 114.384 35.1 115.104V115.699C35.1 116.419 34.9952 117.069 34.7855 117.647C34.5759 118.222 34.2729 118.712 33.8764 119.117C33.4844 119.523 33.0105 119.835 32.4545 120.054C31.9031 120.268 31.281 120.375 30.5883 120.375ZM29.2143 110.422V120.375H27.8949V110.422H29.2143ZM39.9604 120.512C39.4454 120.512 38.9783 120.425 38.559 120.252C38.1443 120.074 37.7865 119.826 37.4857 119.507C37.1895 119.188 36.9617 118.81 36.8021 118.372C36.6426 117.935 36.5629 117.456 36.5629 116.937V116.649C36.5629 116.048 36.6518 115.512 36.8295 115.043C37.0072 114.569 37.2488 114.168 37.5541 113.84C37.8594 113.512 38.2058 113.263 38.5932 113.095C38.9805 112.926 39.3816 112.842 39.7963 112.842C40.3249 112.842 40.7807 112.933 41.1635 113.115C41.5508 113.298 41.8676 113.553 42.1137 113.881C42.3598 114.204 42.5421 114.587 42.6605 115.029C42.779 115.467 42.8383 115.945 42.8383 116.465V117.032H37.3148V116H41.5736V115.904C41.5554 115.576 41.487 115.257 41.3686 114.947C41.2546 114.637 41.0723 114.382 40.8217 114.182C40.571 113.981 40.2292 113.881 39.7963 113.881C39.5092 113.881 39.2449 113.942 39.0033 114.065C38.7618 114.184 38.5544 114.362 38.3812 114.599C38.2081 114.836 38.0736 115.125 37.9779 115.467C37.8822 115.809 37.8344 116.203 37.8344 116.649V116.937C37.8344 117.287 37.8822 117.618 37.9779 117.928C38.0782 118.233 38.2217 118.502 38.4086 118.734C38.6 118.967 38.8301 119.149 39.099 119.281C39.3725 119.413 39.6824 119.479 40.0287 119.479C40.4753 119.479 40.8536 119.388 41.1635 119.206C41.4734 119.024 41.7445 118.78 41.977 118.475L42.7426 119.083C42.5831 119.325 42.3803 119.555 42.1342 119.773C41.8881 119.992 41.585 120.17 41.225 120.307C40.8695 120.443 40.448 120.512 39.9604 120.512ZM45.5795 114.4V123.219H44.308V112.979H45.4701L45.5795 114.4ZM50.5629 116.615V116.759C50.5629 117.297 50.4991 117.796 50.3715 118.256C50.2439 118.712 50.057 119.108 49.8109 119.445C49.5694 119.783 49.2709 120.045 48.9154 120.231C48.56 120.418 48.1521 120.512 47.6918 120.512C47.2224 120.512 46.8077 120.434 46.4477 120.279C46.0876 120.124 45.7823 119.899 45.5316 119.603C45.281 119.306 45.0805 118.951 44.9301 118.536C44.7842 118.121 44.684 117.654 44.6293 117.135V116.369C44.684 115.822 44.7865 115.332 44.9369 114.899C45.0873 114.466 45.2855 114.097 45.5316 113.792C45.7823 113.482 46.0854 113.247 46.4408 113.088C46.7963 112.924 47.2064 112.842 47.6713 112.842C48.1361 112.842 48.5486 112.933 48.9086 113.115C49.2686 113.293 49.5717 113.548 49.8178 113.881C50.0639 114.214 50.2484 114.612 50.3715 115.077C50.4991 115.537 50.5629 116.05 50.5629 116.615ZM49.2914 116.759V116.615C49.2914 116.246 49.2527 115.9 49.1752 115.576C49.0977 115.248 48.977 114.961 48.8129 114.715C48.6534 114.464 48.4483 114.268 48.1977 114.127C47.947 113.981 47.6485 113.908 47.3021 113.908C46.9831 113.908 46.7051 113.963 46.4682 114.072C46.2357 114.182 46.0375 114.33 45.8734 114.517C45.7094 114.699 45.5749 114.909 45.4701 115.146C45.3699 115.378 45.2947 115.619 45.2445 115.87V117.641C45.3357 117.96 45.4633 118.26 45.6273 118.543C45.7914 118.821 46.0102 119.047 46.2836 119.22C46.557 119.388 46.9011 119.473 47.3158 119.473C47.6576 119.473 47.9516 119.402 48.1977 119.261C48.4483 119.115 48.6534 118.917 48.8129 118.666C48.977 118.415 49.0977 118.128 49.1752 117.805C49.2527 117.477 49.2914 117.128 49.2914 116.759ZM51.8412 116.759V116.602C51.8412 116.068 51.9187 115.574 52.0736 115.118C52.2286 114.658 52.4519 114.259 52.7436 113.922C53.0352 113.58 53.3884 113.316 53.8031 113.129C54.2178 112.938 54.6827 112.842 55.1977 112.842C55.7172 112.842 56.1843 112.938 56.599 113.129C57.0183 113.316 57.3738 113.58 57.6654 113.922C57.9617 114.259 58.1872 114.658 58.3422 115.118C58.4971 115.574 58.5746 116.068 58.5746 116.602V116.759C58.5746 117.292 58.4971 117.786 58.3422 118.242C58.1872 118.698 57.9617 119.097 57.6654 119.438C57.3738 119.776 57.0206 120.04 56.6059 120.231C56.1957 120.418 55.7309 120.512 55.2113 120.512C54.6918 120.512 54.2247 120.418 53.81 120.231C53.3952 120.04 53.0398 119.776 52.7436 119.438C52.4519 119.097 52.2286 118.698 52.0736 118.242C51.9187 117.786 51.8412 117.292 51.8412 116.759ZM53.1059 116.602V116.759C53.1059 117.128 53.1492 117.477 53.2357 117.805C53.3223 118.128 53.4522 118.415 53.6254 118.666C53.8031 118.917 54.0242 119.115 54.2885 119.261C54.5528 119.402 54.8604 119.473 55.2113 119.473C55.5577 119.473 55.8607 119.402 56.1205 119.261C56.3848 119.115 56.6036 118.917 56.7768 118.666C56.9499 118.415 57.0798 118.128 57.1664 117.805C57.2576 117.477 57.3031 117.128 57.3031 116.759V116.602C57.3031 116.237 57.2576 115.893 57.1664 115.569C57.0798 115.241 56.9477 114.952 56.7699 114.701C56.5967 114.446 56.378 114.245 56.1137 114.1C55.8539 113.954 55.5486 113.881 55.1977 113.881C54.8513 113.881 54.546 113.954 54.2816 114.1C54.0219 114.245 53.8031 114.446 53.6254 114.701C53.4522 114.952 53.3223 115.241 53.2357 115.569C53.1492 115.893 53.1059 116.237 53.1059 116.602ZM61.4252 114.141V120.375H60.1605V112.979H61.391L61.4252 114.141ZM63.7357 112.938L63.7289 114.113C63.6241 114.09 63.5238 114.077 63.4281 114.072C63.337 114.063 63.2322 114.059 63.1137 114.059C62.822 114.059 62.5645 114.104 62.3412 114.195C62.1179 114.286 61.9288 114.414 61.7738 114.578C61.6189 114.742 61.4958 114.938 61.4047 115.166C61.3181 115.389 61.2611 115.635 61.2338 115.904L60.8783 116.109C60.8783 115.663 60.9216 115.243 61.0082 114.852C61.0993 114.46 61.2383 114.113 61.4252 113.812C61.612 113.507 61.849 113.27 62.1361 113.102C62.4278 112.928 62.7742 112.842 63.1752 112.842C63.2663 112.842 63.3712 112.853 63.4896 112.876C63.6081 112.894 63.6902 112.915 63.7357 112.938ZM68.3432 112.979V113.949H64.3441V112.979H68.3432ZM65.6977 111.181H66.9623V118.543C66.9623 118.794 67.001 118.983 67.0785 119.11C67.156 119.238 67.2562 119.322 67.3793 119.363C67.5023 119.404 67.6345 119.425 67.7758 119.425C67.8806 119.425 67.99 119.416 68.1039 119.397C68.2224 119.375 68.3113 119.356 68.3705 119.343L68.3773 120.375C68.2771 120.407 68.1449 120.437 67.9809 120.464C67.8214 120.496 67.6277 120.512 67.3998 120.512C67.0899 120.512 66.8051 120.45 66.5453 120.327C66.2855 120.204 66.0782 119.999 65.9232 119.712C65.7729 119.42 65.6977 119.028 65.6977 118.536V111.181ZM72.8959 120.512C72.3809 120.512 71.9138 120.425 71.4945 120.252C71.0798 120.074 70.7221 119.826 70.4213 119.507C70.1251 119.188 69.8972 118.81 69.7377 118.372C69.5782 117.935 69.4984 117.456 69.4984 116.937V116.649C69.4984 116.048 69.5873 115.512 69.765 115.043C69.9428 114.569 70.1843 114.168 70.4896 113.84C70.795 113.512 71.1413 113.263 71.5287 113.095C71.9161 112.926 72.3171 112.842 72.7318 112.842C73.2605 112.842 73.7162 112.933 74.099 113.115C74.4864 113.298 74.8031 113.553 75.0492 113.881C75.2953 114.204 75.4776 114.587 75.5961 115.029C75.7146 115.467 75.7738 115.945 75.7738 116.465V117.032H70.2504V116H74.5092V115.904C74.4909 115.576 74.4226 115.257 74.3041 114.947C74.1902 114.637 74.0079 114.382 73.7572 114.182C73.5066 113.981 73.1648 113.881 72.7318 113.881C72.4447 113.881 72.1804 113.942 71.9389 114.065C71.6973 114.184 71.49 114.362 71.3168 114.599C71.1436 114.836 71.0092 115.125 70.9135 115.467C70.8178 115.809 70.7699 116.203 70.7699 116.649V116.937C70.7699 117.287 70.8178 117.618 70.9135 117.928C71.0137 118.233 71.1573 118.502 71.3441 118.734C71.5355 118.967 71.7657 119.149 72.0346 119.281C72.308 119.413 72.6179 119.479 72.9643 119.479C73.4109 119.479 73.7891 119.388 74.099 119.206C74.4089 119.024 74.6801 118.78 74.9125 118.475L75.6781 119.083C75.5186 119.325 75.3158 119.555 75.0697 119.773C74.8236 119.992 74.5206 120.17 74.1605 120.307C73.8051 120.443 73.3835 120.512 72.8959 120.512ZM81.557 118.413C81.557 118.231 81.516 118.062 81.434 117.907C81.3565 117.748 81.1947 117.604 80.9486 117.477C80.7071 117.344 80.3425 117.23 79.8549 117.135C79.4447 117.048 79.0733 116.946 78.7406 116.827C78.4125 116.709 78.1322 116.565 77.8998 116.396C77.6719 116.228 77.4965 116.03 77.3734 115.802C77.2504 115.574 77.1889 115.307 77.1889 115.002C77.1889 114.71 77.2527 114.435 77.3803 114.175C77.5124 113.915 77.697 113.685 77.934 113.484C78.1755 113.284 78.4649 113.127 78.8021 113.013C79.1394 112.899 79.5154 112.842 79.9301 112.842C80.5225 112.842 81.0284 112.947 81.4477 113.156C81.8669 113.366 82.1882 113.646 82.4115 113.997C82.6348 114.343 82.7465 114.729 82.7465 115.152H81.4818C81.4818 114.947 81.4203 114.749 81.2973 114.558C81.1788 114.362 81.0033 114.2 80.7709 114.072C80.543 113.945 80.2628 113.881 79.9301 113.881C79.5792 113.881 79.2943 113.936 79.0756 114.045C78.8614 114.15 78.7042 114.284 78.6039 114.448C78.5082 114.612 78.4604 114.785 78.4604 114.968C78.4604 115.104 78.4831 115.228 78.5287 115.337C78.5788 115.442 78.6654 115.54 78.7885 115.631C78.9115 115.717 79.0847 115.799 79.308 115.877C79.5313 115.954 79.8161 116.032 80.1625 116.109C80.7686 116.246 81.2676 116.41 81.6596 116.602C82.0515 116.793 82.3432 117.028 82.5346 117.306C82.726 117.584 82.8217 117.921 82.8217 118.317C82.8217 118.641 82.7533 118.937 82.6166 119.206C82.4844 119.475 82.2908 119.707 82.0355 119.903C81.7849 120.095 81.4841 120.245 81.1332 120.354C80.7868 120.459 80.3972 120.512 79.9643 120.512C79.3126 120.512 78.7611 120.396 78.31 120.163C77.8588 119.931 77.517 119.63 77.2846 119.261C77.0521 118.892 76.9359 118.502 76.9359 118.092H78.2074C78.2256 118.438 78.3259 118.714 78.5082 118.919C78.6905 119.119 78.9138 119.263 79.1781 119.35C79.4424 119.432 79.7045 119.473 79.9643 119.473C80.3106 119.473 80.6 119.427 80.8324 119.336C81.0694 119.245 81.2494 119.119 81.3725 118.96C81.4955 118.8 81.557 118.618 81.557 118.413ZM90.0336 119.609L92.0912 112.979H93.4447L90.4779 121.517C90.4096 121.699 90.3184 121.895 90.2045 122.104C90.0951 122.319 89.9538 122.521 89.7807 122.713C89.6075 122.904 89.3979 123.059 89.1518 123.178C88.9102 123.301 88.6208 123.362 88.2836 123.362C88.1833 123.362 88.0557 123.349 87.9008 123.321C87.7458 123.294 87.6365 123.271 87.5727 123.253L87.5658 122.228C87.6023 122.232 87.6592 122.237 87.7367 122.241C87.8187 122.25 87.8757 122.255 87.9076 122.255C88.1947 122.255 88.4385 122.216 88.6391 122.139C88.8396 122.066 89.0082 121.94 89.1449 121.763C89.2862 121.59 89.407 121.35 89.5072 121.045L90.0336 119.609ZM88.5229 112.979L90.4437 118.721L90.7719 120.054L89.8627 120.519L87.142 112.979H88.5229ZM99.5697 110.422V120.375H98.2504V110.422H99.5697ZM103.74 114.899V115.979H99.2826V114.899H103.74ZM104.416 110.422V111.502H99.2826V110.422H104.416ZM107.171 112.979V120.375H105.9V112.979H107.171ZM105.804 111.017C105.804 110.812 105.866 110.638 105.989 110.497C106.116 110.356 106.303 110.285 106.549 110.285C106.791 110.285 106.975 110.356 107.103 110.497C107.235 110.638 107.301 110.812 107.301 111.017C107.301 111.213 107.235 111.381 107.103 111.522C106.975 111.659 106.791 111.728 106.549 111.728C106.303 111.728 106.116 111.659 105.989 111.522C105.866 111.381 105.804 111.213 105.804 111.017ZM112.298 112.979V113.949H108.299V112.979H112.298ZM109.653 111.181H110.917V118.543C110.917 118.794 110.956 118.983 111.034 119.11C111.111 119.238 111.211 119.322 111.334 119.363C111.457 119.404 111.59 119.425 111.731 119.425C111.836 119.425 111.945 119.416 112.059 119.397C112.177 119.375 112.266 119.356 112.326 119.343L112.332 120.375C112.232 120.407 112.1 120.437 111.936 120.464C111.776 120.496 111.583 120.512 111.355 120.512C111.045 120.512 110.76 120.45 110.5 120.327C110.241 120.204 110.033 119.999 109.878 119.712C109.728 119.42 109.653 119.028 109.653 118.536V111.181ZM115.046 114.558V120.375H113.782V112.979H114.978L115.046 114.558ZM114.746 116.396L114.219 116.376C114.224 115.87 114.299 115.403 114.445 114.975C114.591 114.542 114.796 114.166 115.06 113.847C115.324 113.528 115.639 113.282 116.003 113.108C116.372 112.931 116.78 112.842 117.227 112.842C117.592 112.842 117.92 112.892 118.211 112.992C118.503 113.088 118.751 113.243 118.956 113.457C119.166 113.671 119.326 113.949 119.435 114.291C119.544 114.628 119.599 115.041 119.599 115.528V120.375H118.328V115.515C118.328 115.127 118.271 114.817 118.157 114.585C118.043 114.348 117.876 114.177 117.658 114.072C117.439 113.963 117.17 113.908 116.851 113.908C116.537 113.908 116.249 113.974 115.99 114.106C115.734 114.239 115.513 114.421 115.327 114.653C115.144 114.886 115.001 115.152 114.896 115.453C114.796 115.749 114.746 116.064 114.746 116.396ZM124.589 120.512C124.074 120.512 123.607 120.425 123.188 120.252C122.773 120.074 122.415 119.826 122.115 119.507C121.818 119.188 121.591 118.81 121.431 118.372C121.272 117.935 121.192 117.456 121.192 116.937V116.649C121.192 116.048 121.281 115.512 121.458 115.043C121.636 114.569 121.878 114.168 122.183 113.84C122.488 113.512 122.835 113.263 123.222 113.095C123.609 112.926 124.01 112.842 124.425 112.842C124.954 112.842 125.41 112.933 125.792 113.115C126.18 113.298 126.496 113.553 126.743 113.881C126.989 114.204 127.171 114.587 127.289 115.029C127.408 115.467 127.467 115.945 127.467 116.465V117.032H121.944V116H126.203V115.904C126.184 115.576 126.116 115.257 125.997 114.947C125.884 114.637 125.701 114.382 125.451 114.182C125.2 113.981 124.858 113.881 124.425 113.881C124.138 113.881 123.874 113.942 123.632 114.065C123.391 114.184 123.183 114.362 123.01 114.599C122.837 114.836 122.703 115.125 122.607 115.467C122.511 115.809 122.463 116.203 122.463 116.649V116.937C122.463 117.287 122.511 117.618 122.607 117.928C122.707 118.233 122.851 118.502 123.037 118.734C123.229 118.967 123.459 119.149 123.728 119.281C124.001 119.413 124.311 119.479 124.658 119.479C125.104 119.479 125.482 119.388 125.792 119.206C126.102 119.024 126.373 118.78 126.606 118.475L127.371 119.083C127.212 119.325 127.009 119.555 126.763 119.773C126.517 119.992 126.214 120.17 125.854 120.307C125.498 120.443 125.077 120.512 124.589 120.512ZM133.25 118.413C133.25 118.231 133.209 118.062 133.127 117.907C133.05 117.748 132.888 117.604 132.642 117.477C132.4 117.344 132.036 117.23 131.548 117.135C131.138 117.048 130.767 116.946 130.434 116.827C130.106 116.709 129.826 116.565 129.593 116.396C129.365 116.228 129.19 116.03 129.067 115.802C128.944 115.574 128.882 115.307 128.882 115.002C128.882 114.71 128.946 114.435 129.074 114.175C129.206 113.915 129.39 113.685 129.627 113.484C129.869 113.284 130.158 113.127 130.496 113.013C130.833 112.899 131.209 112.842 131.623 112.842C132.216 112.842 132.722 112.947 133.141 113.156C133.56 113.366 133.882 113.646 134.105 113.997C134.328 114.343 134.44 114.729 134.44 115.152H133.175C133.175 114.947 133.114 114.749 132.991 114.558C132.872 114.362 132.697 114.2 132.464 114.072C132.236 113.945 131.956 113.881 131.623 113.881C131.273 113.881 130.988 113.936 130.769 114.045C130.555 114.15 130.398 114.284 130.297 114.448C130.202 114.612 130.154 114.785 130.154 114.968C130.154 115.104 130.176 115.228 130.222 115.337C130.272 115.442 130.359 115.54 130.482 115.631C130.605 115.717 130.778 115.799 131.001 115.877C131.225 115.954 131.51 116.032 131.856 116.109C132.462 116.246 132.961 116.41 133.353 116.602C133.745 116.793 134.037 117.028 134.228 117.306C134.419 117.584 134.515 117.921 134.515 118.317C134.515 118.641 134.447 118.937 134.31 119.206C134.178 119.475 133.984 119.707 133.729 119.903C133.478 120.095 133.177 120.245 132.827 120.354C132.48 120.459 132.091 120.512 131.658 120.512C131.006 120.512 130.454 120.396 130.003 120.163C129.552 119.931 129.21 119.63 128.978 119.261C128.746 118.892 128.629 118.502 128.629 118.092H129.901C129.919 118.438 130.019 118.714 130.202 118.919C130.384 119.119 130.607 119.263 130.871 119.35C131.136 119.432 131.398 119.473 131.658 119.473C132.004 119.473 132.293 119.427 132.526 119.336C132.763 119.245 132.943 119.119 133.066 118.96C133.189 118.8 133.25 118.618 133.25 118.413ZM140.483 118.413C140.483 118.231 140.442 118.062 140.36 117.907C140.282 117.748 140.121 117.604 139.874 117.477C139.633 117.344 139.268 117.23 138.781 117.135C138.371 117.048 137.999 116.946 137.666 116.827C137.338 116.709 137.058 116.565 136.826 116.396C136.598 116.228 136.422 116.03 136.299 115.802C136.176 115.574 136.115 115.307 136.115 115.002C136.115 114.71 136.178 114.435 136.306 114.175C136.438 113.915 136.623 113.685 136.86 113.484C137.101 113.284 137.391 113.127 137.728 113.013C138.065 112.899 138.441 112.842 138.856 112.842C139.448 112.842 139.954 112.947 140.373 113.156C140.793 113.366 141.114 113.646 141.337 113.997C141.561 114.343 141.672 114.729 141.672 115.152H140.408C140.408 114.947 140.346 114.749 140.223 114.558C140.105 114.362 139.929 114.2 139.697 114.072C139.469 113.945 139.189 113.881 138.856 113.881C138.505 113.881 138.22 113.936 138.001 114.045C137.787 114.15 137.63 114.284 137.53 114.448C137.434 114.612 137.386 114.785 137.386 114.968C137.386 115.104 137.409 115.228 137.454 115.337C137.505 115.442 137.591 115.54 137.714 115.631C137.837 115.717 138.01 115.799 138.234 115.877C138.457 115.954 138.742 116.032 139.088 116.109C139.694 116.246 140.193 116.41 140.585 116.602C140.977 116.793 141.269 117.028 141.46 117.306C141.652 117.584 141.747 117.921 141.747 118.317C141.747 118.641 141.679 118.937 141.542 119.206C141.41 119.475 141.217 119.707 140.961 119.903C140.711 120.095 140.41 120.245 140.059 120.354C139.713 120.459 139.323 120.512 138.89 120.512C138.238 120.512 137.687 120.396 137.236 120.163C136.785 119.931 136.443 119.63 136.21 119.261C135.978 118.892 135.862 118.502 135.862 118.092H137.133C137.151 118.438 137.252 118.714 137.434 118.919C137.616 119.119 137.84 119.263 138.104 119.35C138.368 119.432 138.63 119.473 138.89 119.473C139.236 119.473 139.526 119.427 139.758 119.336C139.995 119.245 140.175 119.119 140.298 118.96C140.421 118.8 140.483 118.618 140.483 118.413Z" fill="#333333"/>
<path d="M170 170.375V171.375H171V170.375H170ZM169 0.375V170.375H171V0.375H169ZM170 169.375H0V171.375H170V169.375Z" fill="#EAE6E6" mask="url(#path-1-inside-1_1_496)"/>
<defs>
<clipPath id="clip0_1_496">
<rect width="48" height="48" fill="white" transform="translate(62.5 46.375)"/>
</clipPath>
</defs>
</svg>
