<svg width="170" height="171" viewBox="0 0 170 171" fill="none" xmlns="http://www.w3.org/2000/svg">
<mask id="path-1-inside-1_1_435" fill="white">
<path d="M0 0.375H170V170.375H0V0.375Z"/>
</mask>
<path d="M0 0.375H170V170.375H0V0.375Z" fill="white"/>
<g clip-path="url(#clip0_1_435)">
<path d="M104.5 66.375L102.731 53.111C102.599 52.117 101.751 51.375 100.749 51.375H72.251C71.249 51.375 70.401 52.117 70.269 53.111L68.5 66.375" stroke="#3483FA" stroke-miterlimit="10"/>
<path d="M76.5 83.375V89.375H67.5V83.375" stroke="#3483FA" stroke-miterlimit="10" stroke-linecap="square"/>
<path d="M105.5 83.375V89.375H96.5V83.375" stroke="#3483FA" stroke-miterlimit="10" stroke-linecap="square"/>
<path d="M108.5 83.375H64.5V72.778C64.5 71.87 64.809 70.988 65.377 70.279L68.5 66.375H104.5L107.623 70.279C108.191 70.989 108.5 71.87 108.5 72.778V83.375Z" stroke="#3483FA" stroke-miterlimit="10" stroke-linecap="square"/>
<path d="M100.5 78.375C102.157 78.375 103.5 77.0319 103.5 75.375C103.5 73.7181 102.157 72.375 100.5 72.375C98.8431 72.375 97.5 73.7181 97.5 75.375C97.5 77.0319 98.8431 78.375 100.5 78.375Z" stroke="#3483FA" stroke-miterlimit="10" stroke-linecap="square"/>
<path d="M72.5 78.375C74.1569 78.375 75.5 77.0319 75.5 75.375C75.5 73.7181 74.1569 72.375 72.5 72.375C70.8431 72.375 69.5 73.7181 69.5 75.375C69.5 77.0319 70.8431 78.375 72.5 78.375Z" stroke="#3483FA" stroke-miterlimit="10" stroke-linecap="square"/>
<path d="M83.5 75.375H89.5" stroke="#3483FA" stroke-miterlimit="10" stroke-linecap="square"/>
</g>
<path d="M24.2445 117.21H25.557C25.4887 117.839 25.3087 118.402 25.017 118.898C24.7253 119.395 24.3129 119.789 23.7797 120.081C23.2465 120.368 22.5811 120.512 21.7836 120.512C21.2003 120.512 20.6693 120.402 20.1908 120.184C19.7169 119.965 19.309 119.655 18.9672 119.254C18.6254 118.848 18.3611 118.363 18.1742 117.798C17.9919 117.228 17.9008 116.595 17.9008 115.897V114.906C17.9008 114.209 17.9919 113.578 18.1742 113.013C18.3611 112.443 18.6277 111.955 18.974 111.55C19.3249 111.144 19.7465 110.832 20.2387 110.613C20.7309 110.395 21.2846 110.285 21.8998 110.285C22.6518 110.285 23.2875 110.426 23.807 110.709C24.3266 110.992 24.7299 111.383 25.017 111.885C25.3087 112.382 25.4887 112.958 25.557 113.614H24.2445C24.1807 113.149 24.0622 112.751 23.8891 112.418C23.7159 112.081 23.4698 111.821 23.1508 111.639C22.8318 111.456 22.4148 111.365 21.8998 111.365C21.4577 111.365 21.0681 111.45 20.7309 111.618C20.3982 111.787 20.1179 112.026 19.89 112.336C19.6667 112.646 19.4981 113.017 19.3842 113.45C19.2702 113.883 19.2133 114.364 19.2133 114.893V115.897C19.2133 116.385 19.2634 116.843 19.3637 117.271C19.4685 117.7 19.6257 118.076 19.8354 118.399C20.045 118.723 20.3116 118.978 20.6352 119.165C20.9587 119.347 21.3415 119.438 21.7836 119.438C22.3441 119.438 22.7908 119.35 23.1234 119.172C23.4561 118.994 23.7068 118.739 23.8754 118.406C24.0486 118.074 24.1716 117.675 24.2445 117.21ZM31.5248 119.11V115.303C31.5248 115.011 31.4656 114.758 31.3471 114.544C31.2331 114.325 31.06 114.157 30.8275 114.038C30.5951 113.92 30.308 113.86 29.9662 113.86C29.6472 113.86 29.3669 113.915 29.1254 114.024C28.8884 114.134 28.7016 114.277 28.5648 114.455C28.4327 114.633 28.3666 114.824 28.3666 115.029H27.102C27.102 114.765 27.1703 114.503 27.307 114.243C27.4437 113.983 27.6397 113.749 27.8949 113.539C28.1547 113.325 28.4646 113.156 28.8246 113.033C29.1892 112.906 29.5948 112.842 30.0414 112.842C30.5792 112.842 31.0531 112.933 31.4633 113.115C31.878 113.298 32.2016 113.573 32.434 113.942C32.671 114.307 32.7895 114.765 32.7895 115.316V118.762C32.7895 119.008 32.81 119.27 32.851 119.548C32.8965 119.826 32.9626 120.065 33.0492 120.266V120.375H31.7299C31.6661 120.229 31.6159 120.035 31.5795 119.794C31.543 119.548 31.5248 119.32 31.5248 119.11ZM31.7436 115.891L31.7572 116.779H30.4789C30.1189 116.779 29.7976 116.809 29.515 116.868C29.2325 116.923 28.9955 117.007 28.8041 117.121C28.6127 117.235 28.4669 117.379 28.3666 117.552C28.2663 117.72 28.2162 117.919 28.2162 118.146C28.2162 118.379 28.2686 118.591 28.3734 118.782C28.4783 118.974 28.6355 119.126 28.8451 119.24C29.0593 119.35 29.3214 119.404 29.6312 119.404C30.0186 119.404 30.3604 119.322 30.6566 119.158C30.9529 118.994 31.1876 118.794 31.3607 118.557C31.5385 118.32 31.6342 118.09 31.6479 117.866L32.1879 118.475C32.156 118.666 32.0694 118.878 31.9281 119.11C31.7868 119.343 31.5977 119.566 31.3607 119.78C31.1283 119.99 30.8503 120.165 30.5268 120.307C30.2077 120.443 29.8477 120.512 29.4467 120.512C28.9454 120.512 28.5056 120.414 28.1273 120.218C27.7536 120.022 27.462 119.76 27.2523 119.432C27.0473 119.099 26.9447 118.728 26.9447 118.317C26.9447 117.921 27.0222 117.572 27.1771 117.271C27.3321 116.966 27.5554 116.713 27.8471 116.513C28.1387 116.308 28.4896 116.153 28.8998 116.048C29.31 115.943 29.768 115.891 30.2738 115.891H31.7436ZM36.0434 114.141V120.375H34.7787V112.979H36.0092L36.0434 114.141ZM38.3539 112.938L38.3471 114.113C38.2423 114.09 38.142 114.077 38.0463 114.072C37.9551 114.063 37.8503 114.059 37.7318 114.059C37.4402 114.059 37.1827 114.104 36.9594 114.195C36.7361 114.286 36.5469 114.414 36.392 114.578C36.237 114.742 36.114 114.938 36.0229 115.166C35.9363 115.389 35.8793 115.635 35.852 115.904L35.4965 116.109C35.4965 115.663 35.5398 115.243 35.6264 114.852C35.7175 114.46 35.8565 114.113 36.0434 113.812C36.2302 113.507 36.4672 113.27 36.7543 113.102C37.046 112.928 37.3923 112.842 37.7934 112.842C37.8845 112.842 37.9893 112.853 38.1078 112.876C38.2263 112.894 38.3083 112.915 38.3539 112.938ZM40.7875 114.141V120.375H39.5229V112.979H40.7533L40.7875 114.141ZM43.098 112.938L43.0912 114.113C42.9864 114.09 42.8861 114.077 42.7904 114.072C42.6993 114.063 42.5945 114.059 42.476 114.059C42.1843 114.059 41.9268 114.104 41.7035 114.195C41.4802 114.286 41.2911 114.414 41.1361 114.578C40.9812 114.742 40.8581 114.938 40.767 115.166C40.6804 115.389 40.6234 115.635 40.5961 115.904L40.2406 116.109C40.2406 115.663 40.2839 115.243 40.3705 114.852C40.4617 114.46 40.6006 114.113 40.7875 113.812C40.9743 113.507 41.2113 113.27 41.4984 113.102C41.7901 112.928 42.1365 112.842 42.5375 112.842C42.6286 112.842 42.7335 112.853 42.852 112.876C42.9704 112.894 43.0525 112.915 43.098 112.938ZM43.7953 116.759V116.602C43.7953 116.068 43.8728 115.574 44.0277 115.118C44.1827 114.658 44.406 114.259 44.6977 113.922C44.9893 113.58 45.3425 113.316 45.7572 113.129C46.1719 112.938 46.6368 112.842 47.1518 112.842C47.6713 112.842 48.1384 112.938 48.5531 113.129C48.9724 113.316 49.3279 113.58 49.6195 113.922C49.9158 114.259 50.1413 114.658 50.2963 115.118C50.4512 115.574 50.5287 116.068 50.5287 116.602V116.759C50.5287 117.292 50.4512 117.786 50.2963 118.242C50.1413 118.698 49.9158 119.097 49.6195 119.438C49.3279 119.776 48.9747 120.04 48.56 120.231C48.1498 120.418 47.685 120.512 47.1654 120.512C46.6459 120.512 46.1788 120.418 45.7641 120.231C45.3493 120.04 44.9939 119.776 44.6977 119.438C44.406 119.097 44.1827 118.698 44.0277 118.242C43.8728 117.786 43.7953 117.292 43.7953 116.759ZM45.06 116.602V116.759C45.06 117.128 45.1033 117.477 45.1898 117.805C45.2764 118.128 45.4063 118.415 45.5795 118.666C45.7572 118.917 45.9783 119.115 46.2426 119.261C46.5069 119.402 46.8145 119.473 47.1654 119.473C47.5118 119.473 47.8148 119.402 48.0746 119.261C48.3389 119.115 48.5577 118.917 48.7309 118.666C48.904 118.415 49.0339 118.128 49.1205 117.805C49.2117 117.477 49.2572 117.128 49.2572 116.759V116.602C49.2572 116.237 49.2117 115.893 49.1205 115.569C49.0339 115.241 48.9018 114.952 48.724 114.701C48.5508 114.446 48.3321 114.245 48.0678 114.1C47.808 113.954 47.5027 113.881 47.1518 113.881C46.8054 113.881 46.5001 113.954 46.2357 114.1C45.976 114.245 45.7572 114.446 45.5795 114.701C45.4063 114.952 45.2764 115.241 45.1898 115.569C45.1033 115.893 45.06 116.237 45.06 116.602ZM56.4213 118.413C56.4213 118.231 56.3803 118.062 56.2982 117.907C56.2208 117.748 56.059 117.604 55.8129 117.477C55.5714 117.344 55.2068 117.23 54.7191 117.135C54.309 117.048 53.9376 116.946 53.6049 116.827C53.2768 116.709 52.9965 116.565 52.7641 116.396C52.5362 116.228 52.3607 116.03 52.2377 115.802C52.1146 115.574 52.0531 115.307 52.0531 115.002C52.0531 114.71 52.1169 114.435 52.2445 114.175C52.3767 113.915 52.5613 113.685 52.7982 113.484C53.0398 113.284 53.3292 113.127 53.6664 113.013C54.0036 112.899 54.3796 112.842 54.7943 112.842C55.3868 112.842 55.8926 112.947 56.3119 113.156C56.7312 113.366 57.0525 113.646 57.2758 113.997C57.4991 114.343 57.6107 114.729 57.6107 115.152H56.3461C56.3461 114.947 56.2846 114.749 56.1615 114.558C56.043 114.362 55.8676 114.2 55.6352 114.072C55.4073 113.945 55.127 113.881 54.7943 113.881C54.4434 113.881 54.1586 113.936 53.9398 114.045C53.7256 114.15 53.5684 114.284 53.4682 114.448C53.3725 114.612 53.3246 114.785 53.3246 114.968C53.3246 115.104 53.3474 115.228 53.393 115.337C53.4431 115.442 53.5297 115.54 53.6527 115.631C53.7758 115.717 53.949 115.799 54.1723 115.877C54.3956 115.954 54.6804 116.032 55.0268 116.109C55.6329 116.246 56.1319 116.41 56.5238 116.602C56.9158 116.793 57.2074 117.028 57.3988 117.306C57.5902 117.584 57.6859 117.921 57.6859 118.317C57.6859 118.641 57.6176 118.937 57.4809 119.206C57.3487 119.475 57.155 119.707 56.8998 119.903C56.6492 120.095 56.3484 120.245 55.9975 120.354C55.6511 120.459 55.2615 120.512 54.8285 120.512C54.1768 120.512 53.6254 120.396 53.1742 120.163C52.723 119.931 52.3812 119.63 52.1488 119.261C51.9164 118.892 51.8002 118.502 51.8002 118.092H53.0717C53.0899 118.438 53.1902 118.714 53.3725 118.919C53.5548 119.119 53.7781 119.263 54.0424 119.35C54.3067 119.432 54.5687 119.473 54.8285 119.473C55.1749 119.473 55.4643 119.427 55.6967 119.336C55.9337 119.245 56.1137 119.119 56.2367 118.96C56.3598 118.8 56.4213 118.618 56.4213 118.413ZM60.4955 118.871V119.89C60.4955 120.304 60.3907 120.742 60.1811 121.202C59.9714 121.667 59.6775 122.054 59.2992 122.364L58.5814 121.865C58.7273 121.665 58.8503 121.46 58.9506 121.25C59.0508 121.045 59.126 120.831 59.1762 120.607C59.2309 120.389 59.2582 120.156 59.2582 119.91V118.871H60.4955ZM66.1898 110.422H67.4682L70.7289 118.536L73.9828 110.422H75.268L71.2211 120.375H70.223L66.1898 110.422ZM65.7729 110.422H66.9008L67.0854 116.492V120.375H65.7729V110.422ZM74.5502 110.422H75.6781V120.375H74.3656V116.492L74.5502 110.422ZM77.4691 116.759V116.602C77.4691 116.068 77.5466 115.574 77.7016 115.118C77.8565 114.658 78.0798 114.259 78.3715 113.922C78.6631 113.58 79.0163 113.316 79.4311 113.129C79.8458 112.938 80.3106 112.842 80.8256 112.842C81.3451 112.842 81.8122 112.938 82.227 113.129C82.6462 113.316 83.0017 113.58 83.2934 113.922C83.5896 114.259 83.8152 114.658 83.9701 115.118C84.1251 115.574 84.2025 116.068 84.2025 116.602V116.759C84.2025 117.292 84.1251 117.786 83.9701 118.242C83.8152 118.698 83.5896 119.097 83.2934 119.438C83.0017 119.776 82.6485 120.04 82.2338 120.231C81.8236 120.418 81.3588 120.512 80.8393 120.512C80.3197 120.512 79.8526 120.418 79.4379 120.231C79.0232 120.04 78.6677 119.776 78.3715 119.438C78.0798 119.097 77.8565 118.698 77.7016 118.242C77.5466 117.786 77.4691 117.292 77.4691 116.759ZM78.7338 116.602V116.759C78.7338 117.128 78.7771 117.477 78.8637 117.805C78.9503 118.128 79.0801 118.415 79.2533 118.666C79.4311 118.917 79.6521 119.115 79.9164 119.261C80.1807 119.402 80.4883 119.473 80.8393 119.473C81.1856 119.473 81.4887 119.402 81.7484 119.261C82.0128 119.115 82.2315 118.917 82.4047 118.666C82.5779 118.415 82.7077 118.128 82.7943 117.805C82.8855 117.477 82.9311 117.128 82.9311 116.759V116.602C82.9311 116.237 82.8855 115.893 82.7943 115.569C82.7077 115.241 82.5756 114.952 82.3979 114.701C82.2247 114.446 82.0059 114.245 81.7416 114.1C81.4818 113.954 81.1765 113.881 80.8256 113.881C80.4792 113.881 80.1739 113.954 79.9096 114.1C79.6498 114.245 79.4311 114.446 79.2533 114.701C79.0801 114.952 78.9503 115.241 78.8637 115.569C78.7771 115.893 78.7338 116.237 78.7338 116.602ZM88.8852 112.979V113.949H84.8861V112.979H88.8852ZM86.2396 111.181H87.5043V118.543C87.5043 118.794 87.543 118.983 87.6205 119.11C87.698 119.238 87.7982 119.322 87.9213 119.363C88.0443 119.404 88.1765 119.425 88.3178 119.425C88.4226 119.425 88.532 119.416 88.6459 119.397C88.7644 119.375 88.8533 119.356 88.9125 119.343L88.9193 120.375C88.8191 120.407 88.6869 120.437 88.5229 120.464C88.3633 120.496 88.1697 120.512 87.9418 120.512C87.6319 120.512 87.3471 120.45 87.0873 120.327C86.8275 120.204 86.6202 119.999 86.4652 119.712C86.3148 119.42 86.2396 119.028 86.2396 118.536V111.181ZM89.8969 116.759V116.602C89.8969 116.068 89.9743 115.574 90.1293 115.118C90.2842 114.658 90.5076 114.259 90.7992 113.922C91.0909 113.58 91.4441 113.316 91.8588 113.129C92.2735 112.938 92.7383 112.842 93.2533 112.842C93.7729 112.842 94.24 112.938 94.6547 113.129C95.074 113.316 95.4294 113.58 95.7211 113.922C96.0173 114.259 96.2429 114.658 96.3979 115.118C96.5528 115.574 96.6303 116.068 96.6303 116.602V116.759C96.6303 117.292 96.5528 117.786 96.3979 118.242C96.2429 118.698 96.0173 119.097 95.7211 119.438C95.4294 119.776 95.0762 120.04 94.6615 120.231C94.2514 120.418 93.7865 120.512 93.267 120.512C92.7475 120.512 92.2803 120.418 91.8656 120.231C91.4509 120.04 91.0954 119.776 90.7992 119.438C90.5076 119.097 90.2842 118.698 90.1293 118.242C89.9743 117.786 89.8969 117.292 89.8969 116.759ZM91.1615 116.602V116.759C91.1615 117.128 91.2048 117.477 91.2914 117.805C91.378 118.128 91.5079 118.415 91.6811 118.666C91.8588 118.917 92.0798 119.115 92.3441 119.261C92.6085 119.402 92.9161 119.473 93.267 119.473C93.6133 119.473 93.9164 119.402 94.1762 119.261C94.4405 119.115 94.6592 118.917 94.8324 118.666C95.0056 118.415 95.1355 118.128 95.2221 117.805C95.3132 117.477 95.3588 117.128 95.3588 116.759V116.602C95.3588 116.237 95.3132 115.893 95.2221 115.569C95.1355 115.241 95.0033 114.952 94.8256 114.701C94.6524 114.446 94.4337 114.245 94.1693 114.1C93.9096 113.954 93.6042 113.881 93.2533 113.881C92.907 113.881 92.6016 113.954 92.3373 114.1C92.0775 114.245 91.8588 114.446 91.6811 114.701C91.5079 114.952 91.378 115.241 91.2914 115.569C91.2048 115.893 91.1615 116.237 91.1615 116.602ZM102.523 118.413C102.523 118.231 102.482 118.062 102.4 117.907C102.322 117.748 102.161 117.604 101.914 117.477C101.673 117.344 101.308 117.23 100.821 117.135C100.411 117.048 100.039 116.946 99.7064 116.827C99.3783 116.709 99.098 116.565 98.8656 116.396C98.6378 116.228 98.4623 116.03 98.3393 115.802C98.2162 115.574 98.1547 115.307 98.1547 115.002C98.1547 114.71 98.2185 114.435 98.3461 114.175C98.4783 113.915 98.6628 113.685 98.8998 113.484C99.1413 113.284 99.4307 113.127 99.768 113.013C100.105 112.899 100.481 112.842 100.896 112.842C101.488 112.842 101.994 112.947 102.413 113.156C102.833 113.366 103.154 113.646 103.377 113.997C103.601 114.343 103.712 114.729 103.712 115.152H102.448C102.448 114.947 102.386 114.749 102.263 114.558C102.145 114.362 101.969 114.2 101.737 114.072C101.509 113.945 101.229 113.881 100.896 113.881C100.545 113.881 100.26 113.936 100.041 114.045C99.8272 114.15 99.67 114.284 99.5697 114.448C99.474 114.612 99.4262 114.785 99.4262 114.968C99.4262 115.104 99.449 115.228 99.4945 115.337C99.5447 115.442 99.6312 115.54 99.7543 115.631C99.8773 115.717 100.051 115.799 100.274 115.877C100.497 115.954 100.782 116.032 101.128 116.109C101.734 116.246 102.233 116.41 102.625 116.602C103.017 116.793 103.309 117.028 103.5 117.306C103.692 117.584 103.787 117.921 103.787 118.317C103.787 118.641 103.719 118.937 103.582 119.206C103.45 119.475 103.257 119.707 103.001 119.903C102.751 120.095 102.45 120.245 102.099 120.354C101.753 120.459 101.363 120.512 100.93 120.512C100.278 120.512 99.727 120.396 99.2758 120.163C98.8246 119.931 98.4828 119.63 98.2504 119.261C98.018 118.892 97.9018 118.502 97.9018 118.092H99.1732C99.1915 118.438 99.2917 118.714 99.474 118.919C99.6563 119.119 99.8796 119.263 100.144 119.35C100.408 119.432 100.67 119.473 100.93 119.473C101.276 119.473 101.566 119.427 101.798 119.336C102.035 119.245 102.215 119.119 102.338 118.96C102.461 118.8 102.523 118.618 102.523 118.413ZM110.999 119.609L113.057 112.979H114.411L111.444 121.517C111.375 121.699 111.284 121.895 111.17 122.104C111.061 122.319 110.92 122.521 110.746 122.713C110.573 122.904 110.364 123.059 110.118 123.178C109.876 123.301 109.587 123.362 109.249 123.362C109.149 123.362 109.022 123.349 108.867 123.321C108.712 123.294 108.602 123.271 108.538 123.253L108.532 122.228C108.568 122.232 108.625 122.237 108.703 122.241C108.785 122.25 108.842 122.255 108.873 122.255C109.161 122.255 109.404 122.216 109.605 122.139C109.805 122.066 109.974 121.94 110.111 121.763C110.252 121.59 110.373 121.35 110.473 121.045L110.999 119.609ZM109.489 112.979L111.41 118.721L111.738 120.054L110.829 120.519L108.108 112.979H109.489ZM126.879 115.084V115.713C126.879 116.46 126.786 117.13 126.599 117.723C126.412 118.315 126.143 118.819 125.792 119.233C125.441 119.648 125.02 119.965 124.528 120.184C124.04 120.402 123.493 120.512 122.887 120.512C122.299 120.512 121.759 120.402 121.267 120.184C120.779 119.965 120.356 119.648 119.996 119.233C119.64 118.819 119.364 118.315 119.168 117.723C118.972 117.13 118.874 116.46 118.874 115.713V115.084C118.874 114.337 118.97 113.669 119.162 113.081C119.357 112.489 119.633 111.985 119.989 111.57C120.344 111.151 120.766 110.832 121.253 110.613C121.746 110.395 122.286 110.285 122.873 110.285C123.48 110.285 124.026 110.395 124.514 110.613C125.006 110.832 125.428 111.151 125.779 111.57C126.134 111.985 126.405 112.489 126.592 113.081C126.784 113.669 126.879 114.337 126.879 115.084ZM125.574 115.713V115.07C125.574 114.478 125.512 113.954 125.389 113.498C125.271 113.042 125.095 112.66 124.863 112.35C124.63 112.04 124.345 111.805 124.008 111.646C123.676 111.486 123.297 111.406 122.873 111.406C122.463 111.406 122.092 111.486 121.759 111.646C121.431 111.805 121.149 112.04 120.912 112.35C120.679 112.66 120.499 113.042 120.371 113.498C120.244 113.954 120.18 114.478 120.18 115.07V115.713C120.18 116.31 120.244 116.839 120.371 117.299C120.499 117.755 120.681 118.14 120.918 118.454C121.16 118.764 121.445 118.999 121.773 119.158C122.106 119.318 122.477 119.397 122.887 119.397C123.315 119.397 123.696 119.318 124.029 119.158C124.361 118.999 124.642 118.764 124.87 118.454C125.102 118.14 125.277 117.755 125.396 117.299C125.514 116.839 125.574 116.31 125.574 115.713ZM131.76 112.979V113.949H127.761V112.979H131.76ZM129.115 111.181H130.379V118.543C130.379 118.794 130.418 118.983 130.496 119.11C130.573 119.238 130.673 119.322 130.796 119.363C130.919 119.404 131.051 119.425 131.193 119.425C131.298 119.425 131.407 119.416 131.521 119.397C131.639 119.375 131.728 119.356 131.787 119.343L131.794 120.375C131.694 120.407 131.562 120.437 131.398 120.464C131.238 120.496 131.045 120.512 130.817 120.512C130.507 120.512 130.222 120.45 129.962 120.327C129.703 120.204 129.495 119.999 129.34 119.712C129.19 119.42 129.115 119.028 129.115 118.536V111.181ZM134.508 114.141V120.375H133.244V112.979H134.474L134.508 114.141ZM136.819 112.938L136.812 114.113C136.707 114.09 136.607 114.077 136.511 114.072C136.42 114.063 136.315 114.059 136.197 114.059C135.905 114.059 135.648 114.104 135.424 114.195C135.201 114.286 135.012 114.414 134.857 114.578C134.702 114.742 134.579 114.938 134.488 115.166C134.401 115.389 134.344 115.635 134.317 115.904L133.961 116.109C133.961 115.663 134.005 115.243 134.091 114.852C134.182 114.46 134.321 114.113 134.508 113.812C134.695 113.507 134.932 113.27 135.219 113.102C135.511 112.928 135.857 112.842 136.258 112.842C136.349 112.842 136.454 112.853 136.573 112.876C136.691 112.894 136.773 112.915 136.819 112.938ZM137.516 116.759V116.602C137.516 116.068 137.593 115.574 137.748 115.118C137.903 114.658 138.127 114.259 138.418 113.922C138.71 113.58 139.063 113.316 139.478 113.129C139.893 112.938 140.357 112.842 140.872 112.842C141.392 112.842 141.859 112.938 142.274 113.129C142.693 113.316 143.049 113.58 143.34 113.922C143.636 114.259 143.862 114.658 144.017 115.118C144.172 115.574 144.249 116.068 144.249 116.602V116.759C144.249 117.292 144.172 117.786 144.017 118.242C143.862 118.698 143.636 119.097 143.34 119.438C143.049 119.776 142.695 120.04 142.281 120.231C141.871 120.418 141.406 120.512 140.886 120.512C140.367 120.512 139.899 120.418 139.485 120.231C139.07 120.04 138.715 119.776 138.418 119.438C138.127 119.097 137.903 118.698 137.748 118.242C137.593 117.786 137.516 117.292 137.516 116.759ZM138.781 116.602V116.759C138.781 117.128 138.824 117.477 138.911 117.805C138.997 118.128 139.127 118.415 139.3 118.666C139.478 118.917 139.699 119.115 139.963 119.261C140.228 119.402 140.535 119.473 140.886 119.473C141.232 119.473 141.536 119.402 141.795 119.261C142.06 119.115 142.278 118.917 142.452 118.666C142.625 118.415 142.755 118.128 142.841 117.805C142.932 117.477 142.978 117.128 142.978 116.759V116.602C142.978 116.237 142.932 115.893 142.841 115.569C142.755 115.241 142.622 114.952 142.445 114.701C142.272 114.446 142.053 114.245 141.788 114.1C141.529 113.954 141.223 113.881 140.872 113.881C140.526 113.881 140.221 113.954 139.956 114.1C139.697 114.245 139.478 114.446 139.3 114.701C139.127 114.952 138.997 115.241 138.911 115.569C138.824 115.893 138.781 116.237 138.781 116.602ZM150.142 118.413C150.142 118.231 150.101 118.062 150.019 117.907C149.941 117.748 149.78 117.604 149.534 117.477C149.292 117.344 148.927 117.23 148.44 117.135C148.03 117.048 147.658 116.946 147.326 116.827C146.997 116.709 146.717 116.565 146.485 116.396C146.257 116.228 146.081 116.03 145.958 115.802C145.835 115.574 145.774 115.307 145.774 115.002C145.774 114.71 145.838 114.435 145.965 114.175C146.097 113.915 146.282 113.685 146.519 113.484C146.76 113.284 147.05 113.127 147.387 113.013C147.724 112.899 148.1 112.842 148.515 112.842C149.107 112.842 149.613 112.947 150.033 113.156C150.452 113.366 150.773 113.646 150.996 113.997C151.22 114.343 151.331 114.729 151.331 115.152H150.067C150.067 114.947 150.005 114.749 149.882 114.558C149.764 114.362 149.588 114.2 149.356 114.072C149.128 113.945 148.848 113.881 148.515 113.881C148.164 113.881 147.879 113.936 147.661 114.045C147.446 114.15 147.289 114.284 147.189 114.448C147.093 114.612 147.045 114.785 147.045 114.968C147.045 115.104 147.068 115.228 147.114 115.337C147.164 115.442 147.25 115.54 147.373 115.631C147.496 115.717 147.67 115.799 147.893 115.877C148.116 115.954 148.401 116.032 148.747 116.109C149.354 116.246 149.853 116.41 150.245 116.602C150.636 116.793 150.928 117.028 151.12 117.306C151.311 117.584 151.407 117.921 151.407 118.317C151.407 118.641 151.338 118.937 151.202 119.206C151.069 119.475 150.876 119.707 150.621 119.903C150.37 120.095 150.069 120.245 149.718 120.354C149.372 120.459 148.982 120.512 148.549 120.512C147.898 120.512 147.346 120.396 146.895 120.163C146.444 119.931 146.102 119.63 145.87 119.261C145.637 118.892 145.521 118.502 145.521 118.092H146.792C146.811 118.438 146.911 118.714 147.093 118.919C147.275 119.119 147.499 119.263 147.763 119.35C148.027 119.432 148.289 119.473 148.549 119.473C148.896 119.473 149.185 119.427 149.417 119.336C149.654 119.245 149.834 119.119 149.957 118.96C150.08 118.8 150.142 118.618 150.142 118.413Z" fill="#333333"/>
<path d="M170 170.375V171.375H171V170.375H170ZM169 0.375V170.375H171V0.375H169ZM170 169.375H0V171.375H170V169.375Z" fill="#EAE6E6" mask="url(#path-1-inside-1_1_435)"/>
<defs>
<clipPath id="clip0_1_435">
<rect width="48" height="48" fill="white" transform="translate(62.5 46.375)"/>
</clipPath>
</defs>
</svg>
