<svg width="170" height="171" viewBox="0 0 170 171" fill="none" xmlns="http://www.w3.org/2000/svg">
<mask id="path-1-inside-1_1_524" fill="white">
<path d="M0 0.375H170V170.375H0V0.375Z"/>
</mask>
<path d="M0 0.375H170V170.375H0V0.375Z" fill="white"/>
<g clip-path="url(#clip0_1_524)">
<path d="M86.5 78.375C80.977 78.375 76.5 73.898 76.5 68.375V58.375C76.5 52.852 80.977 48.375 86.5 48.375C92.023 48.375 96.5 52.852 96.5 58.375V68.375C96.5 73.898 92.023 78.375 86.5 78.375Z" stroke="#3483FA" stroke-miterlimit="10" stroke-linecap="square"/>
<path d="M76.5 92.375H96.5" stroke="#3483FA" stroke-miterlimit="10" stroke-linecap="square"/>
<path d="M86.5 84.375V92.375" stroke="#3483FA" stroke-miterlimit="10" stroke-linecap="square"/>
<path d="M102.5 68.375C102.5 77.212 95.337 84.375 86.5 84.375C77.663 84.375 70.5 77.212 70.5 68.375" stroke="#3483FA" stroke-miterlimit="10" stroke-linecap="square"/>
<path d="M76.5 60.375H81.5" stroke="#3483FA" stroke-miterlimit="10" stroke-linecap="square"/>
<path d="M76.5 67.375H81.5" stroke="#3483FA" stroke-miterlimit="10" stroke-linecap="square"/>
<path d="M91.5 60.375H96.5" stroke="#3483FA" stroke-miterlimit="10" stroke-linecap="square"/>
<path d="M91.5 67.375H96.5" stroke="#3483FA" stroke-miterlimit="10" stroke-linecap="square"/>
</g>
<path d="M32.7885 121.225V122.375H27.1415V121.225H32.7885ZM27.4271 111.711V122.375H26.0136V111.711H27.4271ZM32.0414 116.296V117.446H27.1415V116.296H32.0414ZM32.7152 111.711V112.868H27.1415V111.711H32.7152ZM35.8061 111.125V122.375H34.4437V111.125H35.8061ZM41.2699 122.521C40.7182 122.521 40.2177 122.429 39.7685 122.243C39.3241 122.053 38.9408 121.787 38.6186 121.445C38.3012 121.103 38.057 120.698 37.8861 120.229C37.7152 119.76 37.6298 119.248 37.6298 118.691V118.383C37.6298 117.739 37.725 117.165 37.9154 116.662C38.1059 116.154 38.3646 115.725 38.6918 115.373C39.0189 115.021 39.39 114.755 39.8051 114.575C40.2201 114.394 40.6498 114.304 41.0941 114.304C41.6605 114.304 42.1488 114.401 42.559 114.597C42.974 114.792 43.3134 115.065 43.577 115.417C43.8407 115.764 44.036 116.174 44.163 116.647C44.2899 117.116 44.3534 117.629 44.3534 118.186V118.793H38.4354V117.688H42.9984V117.585C42.9789 117.233 42.9057 116.892 42.7787 116.56C42.6566 116.228 42.4613 115.954 42.1928 115.739C41.9242 115.524 41.558 115.417 41.0941 115.417C40.7865 115.417 40.5033 115.483 40.2445 115.615C39.9857 115.742 39.7636 115.932 39.578 116.186C39.3925 116.44 39.2484 116.75 39.1459 117.116C39.0434 117.482 38.9921 117.905 38.9921 118.383V118.691C38.9921 119.067 39.0434 119.421 39.1459 119.753C39.2533 120.08 39.4071 120.368 39.6073 120.617C39.8124 120.866 40.059 121.062 40.3471 121.203C40.64 121.345 40.9721 121.416 41.3432 121.416C41.8217 121.416 42.227 121.318 42.559 121.123C42.891 120.927 43.1815 120.666 43.4306 120.339L44.2509 120.991C44.08 121.25 43.8627 121.496 43.599 121.73C43.3354 121.965 43.0106 122.155 42.6249 122.302C42.244 122.448 41.7924 122.521 41.2699 122.521ZM49.1068 121.408C49.4291 121.408 49.727 121.342 50.0004 121.21C50.2738 121.079 50.4984 120.898 50.6742 120.668C50.85 120.434 50.9501 120.168 50.9745 119.87H52.2636C52.2392 120.339 52.0805 120.776 51.7875 121.181C51.4994 121.582 51.121 121.906 50.6522 122.155C50.1835 122.399 49.6684 122.521 49.1068 122.521C48.5111 122.521 47.9911 122.417 47.5468 122.207C47.1073 121.997 46.7411 121.708 46.4481 121.342C46.1601 120.976 45.9428 120.556 45.7963 120.083C45.6547 119.604 45.5839 119.099 45.5839 118.566V118.259C45.5839 117.727 45.6547 117.224 45.7963 116.75C45.9428 116.271 46.1601 115.849 46.4481 115.483C46.7411 115.117 47.1073 114.829 47.5468 114.619C47.9911 114.409 48.5111 114.304 49.1068 114.304C49.727 114.304 50.2689 114.431 50.7328 114.685C51.1967 114.934 51.5604 115.275 51.8241 115.71C52.0927 116.14 52.2392 116.628 52.2636 117.175H50.9745C50.9501 116.848 50.8573 116.552 50.6962 116.289C50.5399 116.025 50.3251 115.815 50.0517 115.659C49.7831 115.498 49.4682 115.417 49.1068 115.417C48.6918 115.417 48.3427 115.5 48.0595 115.666C47.7812 115.827 47.559 116.047 47.393 116.325C47.2318 116.599 47.1146 116.904 47.0414 117.241C46.973 117.573 46.9389 117.912 46.9389 118.259V118.566C46.9389 118.913 46.973 119.255 47.0414 119.592C47.1098 119.929 47.2245 120.234 47.3856 120.507C47.5517 120.781 47.7738 121 48.0521 121.167C48.3354 121.328 48.6869 121.408 49.1068 121.408ZM57.1049 114.45V115.49H52.8202V114.45H57.1049ZM54.2704 112.524H55.6254V120.412C55.6254 120.681 55.6669 120.883 55.7499 121.02C55.8329 121.157 55.9403 121.247 56.0722 121.291C56.204 121.335 56.3456 121.357 56.497 121.357C56.6093 121.357 56.7265 121.347 56.8485 121.328C56.9755 121.303 57.0707 121.284 57.1342 121.269L57.1415 122.375C57.0341 122.409 56.8925 122.441 56.7167 122.47C56.5458 122.504 56.3383 122.521 56.0941 122.521C55.7621 122.521 55.4569 122.456 55.1786 122.324C54.9003 122.192 54.6781 121.972 54.5121 121.665C54.351 121.352 54.2704 120.932 54.2704 120.405V112.524ZM60.0492 115.695V122.375H58.6942V114.45H60.0126L60.0492 115.695ZM62.5248 114.406L62.5175 115.666C62.4052 115.642 62.2978 115.627 62.1952 115.622C62.0976 115.612 61.9853 115.607 61.8583 115.607C61.5458 115.607 61.2699 115.656 61.0307 115.754C60.7914 115.852 60.5888 115.988 60.4228 116.164C60.2567 116.34 60.1249 116.55 60.0272 116.794C59.9345 117.033 59.8734 117.297 59.8441 117.585L59.4633 117.805C59.4633 117.326 59.5097 116.877 59.6024 116.457C59.7001 116.037 59.849 115.666 60.0492 115.344C60.2494 115.017 60.5033 114.763 60.8109 114.582C61.1234 114.396 61.4945 114.304 61.9242 114.304C62.0219 114.304 62.1342 114.316 62.2611 114.34C62.3881 114.36 62.476 114.382 62.5248 114.406ZM63.2719 118.5V118.332C63.2719 117.761 63.3549 117.231 63.5209 116.743C63.6869 116.25 63.9262 115.822 64.2387 115.461C64.5512 115.095 64.9296 114.812 65.3739 114.611C65.8183 114.406 66.3163 114.304 66.8681 114.304C67.4247 114.304 67.9252 114.406 68.3695 114.611C68.8187 114.812 69.1996 115.095 69.5121 115.461C69.8295 115.822 70.0712 116.25 70.2372 116.743C70.4032 117.231 70.4862 117.761 70.4862 118.332V118.5C70.4862 119.072 70.4032 119.602 70.2372 120.09C70.0712 120.578 69.8295 121.005 69.5121 121.372C69.1996 121.733 68.8212 122.016 68.3769 122.221C67.9374 122.421 67.4394 122.521 66.8827 122.521C66.3261 122.521 65.8256 122.421 65.3812 122.221C64.9369 122.016 64.5561 121.733 64.2387 121.372C63.9262 121.005 63.6869 120.578 63.5209 120.09C63.3549 119.602 63.2719 119.072 63.2719 118.5ZM64.6269 118.332V118.5C64.6269 118.896 64.6732 119.27 64.766 119.621C64.8588 119.968 64.9979 120.275 65.1835 120.544C65.3739 120.812 65.6107 121.025 65.8939 121.181C66.1771 121.333 66.5067 121.408 66.8827 121.408C67.2538 121.408 67.5785 121.333 67.8568 121.181C68.14 121.025 68.3744 120.812 68.56 120.544C68.7455 120.275 68.8847 119.968 68.9774 119.621C69.0751 119.27 69.1239 118.896 69.1239 118.5V118.332C69.1239 117.941 69.0751 117.573 68.9774 117.226C68.8847 116.875 68.7431 116.564 68.5526 116.296C68.3671 116.022 68.1327 115.808 67.8495 115.651C67.5712 115.495 67.244 115.417 66.8681 115.417C66.497 115.417 66.1698 115.495 65.8866 115.651C65.6083 115.808 65.3739 116.022 65.1835 116.296C64.9979 116.564 64.8588 116.875 64.766 117.226C64.6732 117.573 64.6269 117.941 64.6269 118.332ZM66.0624 113.278L67.4833 111.125H69.1166L67.1537 113.278H66.0624ZM73.5404 116.142V122.375H72.1854V114.45H73.4672L73.5404 116.142ZM73.2182 118.112L72.6542 118.09C72.6591 117.548 72.7396 117.048 72.8959 116.589C73.0521 116.125 73.2719 115.722 73.5551 115.38C73.8383 115.039 74.1752 114.775 74.5658 114.589C74.9613 114.399 75.3983 114.304 75.8769 114.304C76.2675 114.304 76.619 114.357 76.9315 114.465C77.244 114.567 77.5102 114.733 77.7299 114.963C77.9545 115.192 78.1254 115.49 78.2426 115.856C78.3598 116.218 78.4184 116.66 78.4184 117.182V122.375H77.0561V117.167C77.0561 116.752 76.995 116.42 76.8729 116.171C76.7509 115.917 76.5727 115.734 76.3383 115.622C76.1039 115.505 75.8158 115.446 75.474 115.446C75.1371 115.446 74.8295 115.517 74.5512 115.659C74.2777 115.8 74.0409 115.996 73.8407 116.245C73.6454 116.494 73.4916 116.779 73.3793 117.102C73.2719 117.419 73.2182 117.756 73.2182 118.112ZM81.9486 114.45V122.375H80.5863V114.45H81.9486ZM80.4838 112.348C80.4838 112.128 80.5497 111.943 80.6815 111.792C80.8183 111.64 81.0185 111.564 81.2821 111.564C81.5409 111.564 81.7387 111.64 81.8754 111.792C82.017 111.943 82.0878 112.128 82.0878 112.348C82.0878 112.558 82.017 112.739 81.8754 112.89C81.7387 113.037 81.5409 113.11 81.2821 113.11C81.0185 113.11 80.8183 113.037 80.6815 112.89C80.5497 112.739 80.4838 112.558 80.4838 112.348ZM87.2953 121.408C87.6176 121.408 87.9154 121.342 88.1889 121.21C88.4623 121.079 88.6869 120.898 88.8627 120.668C89.0385 120.434 89.1386 120.168 89.163 119.87H90.452C90.4276 120.339 90.2689 120.776 89.976 121.181C89.6879 121.582 89.3095 121.906 88.8407 122.155C88.372 122.399 87.8568 122.521 87.2953 122.521C86.6996 122.521 86.1796 122.417 85.7353 122.207C85.2958 121.997 84.9296 121.708 84.6366 121.342C84.3485 120.976 84.1312 120.556 83.9848 120.083C83.8432 119.604 83.7724 119.099 83.7724 118.566V118.259C83.7724 117.727 83.8432 117.224 83.9848 116.75C84.1312 116.271 84.3485 115.849 84.6366 115.483C84.9296 115.117 85.2958 114.829 85.7353 114.619C86.1796 114.409 86.6996 114.304 87.2953 114.304C87.9154 114.304 88.4574 114.431 88.9213 114.685C89.3852 114.934 89.7489 115.275 90.0126 115.71C90.2812 116.14 90.4276 116.628 90.452 117.175H89.163C89.1386 116.848 89.0458 116.552 88.8847 116.289C88.7284 116.025 88.5136 115.815 88.2401 115.659C87.9716 115.498 87.6566 115.417 87.2953 115.417C86.8803 115.417 86.5312 115.5 86.2479 115.666C85.9696 115.827 85.7475 116.047 85.5814 116.325C85.4203 116.599 85.3031 116.904 85.2299 117.241C85.1615 117.573 85.1273 117.912 85.1273 118.259V118.566C85.1273 118.913 85.1615 119.255 85.2299 119.592C85.2982 119.929 85.413 120.234 85.5741 120.507C85.7401 120.781 85.9623 121 86.2406 121.167C86.5238 121.328 86.8754 121.408 87.2953 121.408ZM96.6483 121.02V116.94C96.6483 116.628 96.5849 116.357 96.4579 116.127C96.3358 115.893 96.1503 115.712 95.9013 115.585C95.6522 115.458 95.3446 115.395 94.9784 115.395C94.6366 115.395 94.3363 115.454 94.0775 115.571C93.8236 115.688 93.6234 115.842 93.477 116.032C93.3354 116.223 93.2645 116.428 93.2645 116.647H91.9096C91.9096 116.364 91.9828 116.083 92.1293 115.805C92.2758 115.527 92.4857 115.275 92.7592 115.051C93.0375 114.821 93.3695 114.641 93.7553 114.509C94.1459 114.372 94.5805 114.304 95.059 114.304C95.6352 114.304 96.143 114.401 96.5824 114.597C97.0268 114.792 97.3734 115.087 97.6225 115.483C97.8764 115.874 98.0033 116.364 98.0033 116.955V120.646C98.0033 120.91 98.0253 121.191 98.0692 121.489C98.1181 121.787 98.1889 122.043 98.2816 122.258V122.375H96.8681C96.7997 122.219 96.746 122.011 96.7069 121.752C96.6679 121.489 96.6483 121.245 96.6483 121.02ZM96.8827 117.57L96.8974 118.522H95.5277C95.142 118.522 94.7978 118.554 94.495 118.618C94.1923 118.676 93.9384 118.767 93.7333 118.889C93.5282 119.011 93.372 119.165 93.2645 119.35C93.1571 119.531 93.1034 119.743 93.1034 119.987C93.1034 120.236 93.1596 120.463 93.2719 120.668C93.3842 120.874 93.5526 121.037 93.7772 121.159C94.0067 121.276 94.2875 121.335 94.6195 121.335C95.0346 121.335 95.4008 121.247 95.7182 121.071C96.0355 120.896 96.287 120.681 96.4726 120.427C96.663 120.173 96.7655 119.926 96.7802 119.687L97.3588 120.339C97.3246 120.544 97.2318 120.771 97.0805 121.02C96.9291 121.269 96.7265 121.508 96.4726 121.738C96.2235 121.962 95.9257 122.15 95.579 122.302C95.2372 122.448 94.8515 122.521 94.4218 122.521C93.8847 122.521 93.4135 122.417 93.0082 122.207C92.6078 121.997 92.2953 121.716 92.0707 121.364C91.851 121.008 91.7411 120.61 91.7411 120.17C91.7411 119.746 91.8241 119.372 91.9901 119.05C92.1562 118.723 92.3954 118.452 92.7079 118.237C93.0204 118.017 93.3964 117.851 93.8358 117.739C94.2753 117.626 94.766 117.57 95.308 117.57H96.8827ZM101.365 120.764V121.855C101.365 122.299 101.253 122.768 101.028 123.261C100.804 123.759 100.489 124.174 100.083 124.506L99.3144 123.972C99.4706 123.757 99.6024 123.537 99.7099 123.312C99.8173 123.093 99.8979 122.863 99.9516 122.624C100.01 122.39 100.039 122.141 100.039 121.877V120.764H101.365ZM110.967 112.656L107.437 122.375H105.994L110.059 111.711H110.989L110.967 112.656ZM113.926 122.375L110.389 112.656L110.367 111.711H111.297L115.376 122.375H113.926ZM113.743 118.427V119.584H107.752V118.427H113.743ZM121.36 120.544V114.45H122.723V122.375H121.426L121.36 120.544ZM121.617 118.874L122.181 118.859C122.181 119.387 122.124 119.875 122.012 120.324C121.905 120.769 121.729 121.154 121.485 121.481C121.241 121.809 120.921 122.065 120.525 122.25C120.13 122.431 119.649 122.521 119.082 122.521C118.697 122.521 118.343 122.465 118.02 122.353C117.703 122.241 117.43 122.067 117.2 121.833C116.971 121.599 116.792 121.293 116.665 120.917C116.543 120.542 116.482 120.09 116.482 119.562V114.45H117.837V119.577C117.837 119.934 117.876 120.229 117.954 120.463C118.037 120.693 118.147 120.876 118.284 121.013C118.426 121.145 118.582 121.237 118.753 121.291C118.929 121.345 119.109 121.372 119.295 121.372C119.871 121.372 120.328 121.262 120.664 121.042C121.001 120.817 121.243 120.517 121.39 120.141C121.541 119.76 121.617 119.338 121.617 118.874ZM129.783 120.837V111.125H131.145V122.375H129.9L129.783 120.837ZM124.451 118.5V118.347C124.451 117.741 124.524 117.192 124.671 116.699C124.822 116.201 125.035 115.773 125.308 115.417C125.586 115.061 125.916 114.787 126.297 114.597C126.683 114.401 127.112 114.304 127.586 114.304C128.084 114.304 128.518 114.392 128.89 114.567C129.266 114.738 129.583 114.99 129.842 115.322C130.105 115.649 130.313 116.044 130.464 116.508C130.616 116.972 130.721 117.497 130.779 118.083V118.757C130.725 119.338 130.621 119.86 130.464 120.324C130.313 120.788 130.105 121.184 129.842 121.511C129.583 121.838 129.266 122.089 128.89 122.265C128.514 122.436 128.074 122.521 127.571 122.521C127.107 122.521 126.683 122.421 126.297 122.221C125.916 122.021 125.586 121.74 125.308 121.379C125.035 121.018 124.822 120.593 124.671 120.104C124.524 119.611 124.451 119.077 124.451 118.5ZM125.813 118.347V118.5C125.813 118.896 125.852 119.267 125.931 119.614C126.014 119.96 126.141 120.266 126.311 120.529C126.482 120.793 126.7 121 126.963 121.152C127.227 121.298 127.542 121.372 127.908 121.372C128.357 121.372 128.726 121.276 129.014 121.086C129.307 120.896 129.541 120.644 129.717 120.332C129.893 120.019 130.03 119.68 130.127 119.313V117.548C130.069 117.28 129.983 117.021 129.871 116.772C129.764 116.518 129.622 116.293 129.446 116.098C129.275 115.898 129.063 115.739 128.809 115.622C128.56 115.505 128.265 115.446 127.923 115.446C127.552 115.446 127.232 115.524 126.963 115.681C126.7 115.832 126.482 116.042 126.311 116.311C126.141 116.574 126.014 116.882 125.931 117.233C125.852 117.58 125.813 117.951 125.813 118.347ZM134.727 114.45V122.375H133.365V114.45H134.727ZM133.262 112.348C133.262 112.128 133.328 111.943 133.46 111.792C133.597 111.64 133.797 111.564 134.06 111.564C134.319 111.564 134.517 111.64 134.654 111.792C134.795 111.943 134.866 112.128 134.866 112.348C134.866 112.558 134.795 112.739 134.654 112.89C134.517 113.037 134.319 113.11 134.06 113.11C133.797 113.11 133.597 113.037 133.46 112.89C133.328 112.739 133.262 112.558 133.262 112.348ZM136.543 118.5V118.332C136.543 117.761 136.626 117.231 136.792 116.743C136.958 116.25 137.198 115.822 137.51 115.461C137.823 115.095 138.201 114.812 138.645 114.611C139.09 114.406 139.588 114.304 140.14 114.304C140.696 114.304 141.197 114.406 141.641 114.611C142.09 114.812 142.471 115.095 142.784 115.461C143.101 115.822 143.343 116.25 143.509 116.743C143.675 117.231 143.758 117.761 143.758 118.332V118.5C143.758 119.072 143.675 119.602 143.509 120.09C143.343 120.578 143.101 121.005 142.784 121.372C142.471 121.733 142.093 122.016 141.648 122.221C141.209 122.421 140.711 122.521 140.154 122.521C139.598 122.521 139.097 122.421 138.653 122.221C138.208 122.016 137.828 121.733 137.51 121.372C137.198 121.005 136.958 120.578 136.792 120.09C136.626 119.602 136.543 119.072 136.543 118.5ZM137.898 118.332V118.5C137.898 118.896 137.945 119.27 138.037 119.621C138.13 119.968 138.269 120.275 138.455 120.544C138.645 120.812 138.882 121.025 139.165 121.181C139.449 121.333 139.778 121.408 140.154 121.408C140.525 121.408 140.85 121.333 141.128 121.181C141.412 121.025 141.646 120.812 141.831 120.544C142.017 120.275 142.156 119.968 142.249 119.621C142.347 119.27 142.395 118.896 142.395 118.5V118.332C142.395 117.941 142.347 117.573 142.249 117.226C142.156 116.875 142.015 116.564 141.824 116.296C141.639 116.022 141.404 115.808 141.121 115.651C140.843 115.495 140.516 115.417 140.14 115.417C139.768 115.417 139.441 115.495 139.158 115.651C138.88 115.808 138.645 116.022 138.455 116.296C138.269 116.564 138.13 116.875 138.037 117.226C137.945 117.573 137.898 117.941 137.898 118.332ZM63.3598 139.555L65.5644 132.45H67.0145L63.8358 141.598C63.7626 141.793 63.6649 142.003 63.5429 142.228C63.4257 142.458 63.2743 142.675 63.0888 142.88C62.9032 143.085 62.6786 143.251 62.4149 143.378C62.1562 143.51 61.8461 143.576 61.4848 143.576C61.3773 143.576 61.2406 143.561 61.0746 143.532C60.9086 143.502 60.7914 143.478 60.723 143.458L60.7157 142.36C60.7548 142.365 60.8158 142.37 60.8988 142.375C60.9867 142.384 61.0478 142.389 61.0819 142.389C61.3895 142.389 61.6508 142.348 61.8656 142.265C62.0805 142.187 62.2611 142.052 62.4076 141.862C62.559 141.676 62.6884 141.42 62.7958 141.093L63.3598 139.555ZM61.7411 132.45L63.7992 138.603L64.1508 140.031L63.1767 140.529L60.2616 132.45H61.7411ZM75.6059 138.756L78.7479 129.711H80.2787L76.331 140.375H75.2396L75.6059 138.756ZM72.6688 129.711L75.7816 138.756L76.1698 140.375H75.0785L71.1381 129.711H72.6688ZM82.9813 132.45V140.375H81.619V132.45H82.9813ZM81.5165 130.348C81.5165 130.128 81.5824 129.943 81.7143 129.792C81.851 129.64 82.0512 129.564 82.3148 129.564C82.5736 129.564 82.7714 129.64 82.9081 129.792C83.0497 129.943 83.1205 130.128 83.1205 130.348C83.1205 130.558 83.0497 130.739 82.9081 130.89C82.7714 131.037 82.5736 131.11 82.3148 131.11C82.0512 131.11 81.851 131.037 81.7143 130.89C81.5824 130.739 81.5165 130.558 81.5165 130.348ZM90.1518 138.837V129.125H91.5141V140.375H90.2689L90.1518 138.837ZM84.8197 136.5V136.347C84.8197 135.741 84.893 135.192 85.0395 134.699C85.1908 134.201 85.4032 133.773 85.6767 133.417C85.955 133.061 86.2846 132.787 86.6654 132.597C87.0512 132.401 87.4809 132.304 87.9545 132.304C88.4525 132.304 88.8871 132.392 89.2582 132.567C89.6342 132.738 89.9516 132.99 90.2104 133.322C90.474 133.649 90.6815 134.044 90.8329 134.508C90.9843 134.972 91.0893 135.497 91.1479 136.083V136.757C91.0941 137.338 90.9892 137.86 90.8329 138.324C90.6815 138.788 90.474 139.184 90.2104 139.511C89.9516 139.838 89.6342 140.089 89.2582 140.265C88.8822 140.436 88.4428 140.521 87.9398 140.521C87.476 140.521 87.0512 140.421 86.6654 140.221C86.2846 140.021 85.955 139.74 85.6767 139.379C85.4032 139.018 85.1908 138.593 85.0395 138.104C84.893 137.611 84.8197 137.077 84.8197 136.5ZM86.182 136.347V136.5C86.182 136.896 86.2211 137.267 86.2992 137.614C86.3822 137.96 86.5092 138.266 86.6801 138.529C86.851 138.793 87.0683 139 87.3319 139.152C87.5956 139.298 87.9105 139.372 88.2768 139.372C88.726 139.372 89.0946 139.276 89.3827 139.086C89.6757 138.896 89.9101 138.644 90.0858 138.332C90.2616 138.019 90.3983 137.68 90.496 137.313V135.548C90.4374 135.28 90.352 135.021 90.2396 134.772C90.1322 134.518 89.9906 134.293 89.8148 134.098C89.6439 133.898 89.4315 133.739 89.1776 133.622C88.9286 133.505 88.6332 133.446 88.2914 133.446C87.9203 133.446 87.6005 133.524 87.3319 133.681C87.0683 133.832 86.851 134.042 86.6801 134.311C86.5092 134.574 86.3822 134.882 86.2992 135.233C86.2211 135.58 86.182 135.951 86.182 136.347ZM96.912 140.521C96.3603 140.521 95.8598 140.429 95.4105 140.243C94.9662 140.053 94.5829 139.787 94.2606 139.445C93.9433 139.103 93.6991 138.698 93.5282 138.229C93.3573 137.76 93.2719 137.248 93.2719 136.691V136.383C93.2719 135.739 93.3671 135.165 93.5575 134.662C93.7479 134.154 94.0067 133.725 94.3339 133.373C94.661 133.021 95.0321 132.755 95.4472 132.575C95.8622 132.394 96.2919 132.304 96.7362 132.304C97.3026 132.304 97.7909 132.401 98.2011 132.597C98.6161 132.792 98.9555 133.065 99.2191 133.417C99.4828 133.764 99.6781 134.174 99.8051 134.647C99.932 135.116 99.9955 135.629 99.9955 136.186V136.793H94.0775V135.688H98.6405V135.585C98.621 135.233 98.5478 134.892 98.4208 134.56C98.2987 134.228 98.1034 133.954 97.8349 133.739C97.5663 133.524 97.2001 133.417 96.7362 133.417C96.4286 133.417 96.1454 133.483 95.8866 133.615C95.6278 133.742 95.4057 133.932 95.2201 134.186C95.0346 134.44 94.8905 134.75 94.788 135.116C94.6854 135.482 94.6342 135.905 94.6342 136.383V136.691C94.6342 137.067 94.6854 137.421 94.788 137.753C94.8954 138.08 95.0492 138.368 95.2494 138.617C95.4545 138.866 95.7011 139.062 95.9892 139.203C96.2821 139.345 96.6142 139.416 96.9853 139.416C97.4638 139.416 97.869 139.318 98.2011 139.123C98.5331 138.927 98.8236 138.666 99.0727 138.339L99.893 138.991C99.7221 139.25 99.5048 139.496 99.2411 139.73C98.9774 139.965 98.6527 140.155 98.267 140.302C97.8861 140.448 97.4345 140.521 96.912 140.521ZM101.219 136.5V136.332C101.219 135.761 101.302 135.231 101.468 134.743C101.634 134.25 101.873 133.822 102.185 133.461C102.498 133.095 102.876 132.812 103.321 132.611C103.765 132.406 104.263 132.304 104.815 132.304C105.371 132.304 105.872 132.406 106.316 132.611C106.766 132.812 107.146 133.095 107.459 133.461C107.776 133.822 108.018 134.25 108.184 134.743C108.35 135.231 108.433 135.761 108.433 136.332V136.5C108.433 137.072 108.35 137.602 108.184 138.09C108.018 138.578 107.776 139.005 107.459 139.372C107.146 139.733 106.768 140.016 106.324 140.221C105.884 140.421 105.386 140.521 104.829 140.521C104.273 140.521 103.772 140.421 103.328 140.221C102.884 140.016 102.503 139.733 102.185 139.372C101.873 139.005 101.634 138.578 101.468 138.09C101.302 137.602 101.219 137.072 101.219 136.5ZM102.574 136.332V136.5C102.574 136.896 102.62 137.27 102.713 137.621C102.806 137.968 102.945 138.275 103.13 138.544C103.321 138.812 103.558 139.025 103.841 139.181C104.124 139.333 104.454 139.408 104.829 139.408C105.201 139.408 105.525 139.333 105.804 139.181C106.087 139.025 106.321 138.812 106.507 138.544C106.692 138.275 106.831 137.968 106.924 137.621C107.022 137.27 107.071 136.896 107.071 136.5V136.332C107.071 135.941 107.022 135.573 106.924 135.226C106.831 134.875 106.69 134.564 106.499 134.296C106.314 134.022 106.079 133.808 105.796 133.651C105.518 133.495 105.191 133.417 104.815 133.417C104.444 133.417 104.117 133.495 103.833 133.651C103.555 133.808 103.321 134.022 103.13 134.296C102.945 134.564 102.806 134.875 102.713 135.226C102.62 135.573 102.574 135.941 102.574 136.332Z" fill="#333333"/>
<path d="M170 170.375V171.375H171V170.375H170ZM169 0.375V170.375H171V0.375H169ZM170 169.375H0V171.375H170V169.375Z" fill="#EAE6E6" mask="url(#path-1-inside-1_1_524)"/>
<defs>
<clipPath id="clip0_1_524">
<rect width="48" height="48" fill="white" transform="translate(62.5 46.375)"/>
</clipPath>
</defs>
</svg>
